<svg xmlns="http://www.w3.org/2000/svg" xmlns:xlink="http://www.w3.org/1999/xlink" width="500" zoomAndPan="magnify" viewBox="0 0 375 374.999991" height="500" preserveAspectRatio="xMidYMid meet" version="1.0"><defs><g><g id="id1"/><g id="id2"/><g id="id3"/></g><clipPath id="id4"><path d="M 71 71 L 304.832031 71 L 304.832031 304 L 71 304 Z M 71 71 " clip-rule="nonzero"/></clipPath></defs><rect x="-37.5" width="450" fill="rgb(100%, 100%, 100%)" y="-37.499999" height="449.999989" fill-opacity="1"/><rect x="-37.5" width="450" fill="rgb(0%, 0%, 0%)" y="-37.499999" height="449.999989" fill-opacity="1"/><rect x="-37.5" width="450" fill="rgb(100%, 100%, 100%)" y="-37.499999" height="449.999989" fill-opacity="1"/><rect x="-37.5" width="450" fill="rgb(0%, 0%, 0%)" y="-37.499999" height="449.999989" fill-opacity="1"/><g clip-path="url(#id4)"><path fill="rgb(100%, 100%, 100%)" d="M 234.640625 303.390625 C 234.203125 303.390625 233.769531 303.390625 233.292969 303.351562 C 226.238281 303.03125 219.300781 300.574219 212.5625 298.195312 C 204.480469 295.304688 196.117188 292.328125 187.632812 293.28125 C 182.402344 293.835938 177.371094 295.898438 172.496094 297.878906 C 168.214844 299.625 163.816406 301.40625 159.257812 302.238281 C 146.734375 304.460938 134.011719 299.304688 122.160156 293.398438 C 118.671875 291.65625 113.757812 288.761719 110.191406 284.835938 C 106.503906 280.753906 105.078125 276.472656 105.910156 272.113281 C 106.703125 268.070312 109.554688 264.738281 111.894531 262.042969 L 131.355469 239.449219 C 135.160156 235.007812 139.082031 230.449219 143.761719 226.683594 C 151.726562 220.183594 161.554688 216.335938 172.96875 215.1875 C 183.078125 214.15625 194.132812 215.425781 204.875 218.792969 C 228.535156 226.207031 249.503906 242.023438 263.851562 263.390625 L 263.769531 263.46875 L 263.890625 263.429688 C 268.210938 272.628906 266.863281 282.539062 260.085938 291.339844 C 254.21875 298.792969 244.589844 303.390625 234.640625 303.390625 Z M 190.882812 292.804688 C 198.335938 292.804688 205.628906 295.382812 212.722656 297.917969 C 219.421875 300.296875 226.316406 302.753906 233.332031 303.074219 C 243.636719 303.507812 253.824219 298.910156 259.808594 291.0625 C 266.464844 282.378906 267.8125 272.589844 263.574219 263.511719 C 249.265625 242.222656 228.378906 226.445312 204.796875 219.070312 C 194.09375 215.703125 183.117188 214.472656 173.050781 215.503906 C 161.714844 216.652344 151.925781 220.5 143.996094 226.921875 C 139.359375 230.6875 135.4375 235.246094 131.632812 239.644531 L 112.171875 262.242188 C 109.753906 265.015625 107.058594 268.1875 106.265625 272.152344 C 105.394531 276.550781 106.347656 285.113281 122.316406 293.082031 C 134.128906 298.988281 146.8125 304.101562 159.21875 301.882812 C 163.734375 301.089844 168.136719 299.265625 172.414062 297.5625 C 177.289062 295.582031 182.363281 293.519531 187.632812 292.925781 C 188.703125 292.84375 189.773438 292.804688 190.882812 292.804688 Z M 254.8125 290.703125 C 261.472656 282.339844 263.136719 272.824219 259.410156 263.90625 L 259.132812 264.027344 C 262.78125 272.824219 261.15625 282.222656 254.574219 290.507812 C 248.472656 298.15625 238.761719 302.558594 228.574219 302.28125 C 221.679688 302.082031 214.863281 299.820312 208.242188 297.640625 C 207.175781 297.285156 206.105469 296.929688 205.035156 296.609375 C 198.335938 294.429688 191.203125 292.410156 183.789062 293.121094 C 178.675781 293.636719 173.761719 295.5 169.046875 297.285156 C 164.84375 298.871094 160.445312 300.535156 155.96875 301.210938 C 145.503906 302.796875 133.8125 299.742188 120.179688 291.855469 C 115.582031 289.117188 111.65625 285.550781 108.484375 281.230469 C 104.917969 276.394531 103.492188 271.753906 104.167969 267.039062 C 104.800781 262.679688 107.257812 258.992188 109.714844 255.582031 C 113.636719 250.152344 118.195312 246.109375 122.992188 241.867188 C 125.964844 239.25 129.054688 236.515625 131.988281 233.421875 C 132.941406 232.390625 133.929688 231.359375 134.84375 230.332031 C 137.894531 227 141.066406 223.550781 144.59375 220.617188 C 159.8125 207.972656 181.886719 204.085938 205.074219 209.996094 L 205.90625 210.191406 C 209.550781 211.105469 213.316406 212.054688 216.644531 213.839844 C 218.351562 214.75 220.015625 215.78125 221.601562 216.890625 C 224.375 218.753906 227.109375 220.777344 229.765625 222.839844 C 235.511719 227.316406 240.109375 231.519531 243.835938 235.761719 C 247.519531 240.042969 250.652344 244.761719 253.148438 249.792969 C 255.605469 254.75 257.351562 258.398438 259.054688 264.066406 L 259.332031 263.984375 C 257.628906 258.316406 255.882812 254.628906 253.425781 249.675781 C 250.890625 244.601562 247.757812 239.84375 244.074219 235.5625 C 240.347656 231.320312 235.75 227.078125 229.964844 222.601562 C 227.308594 220.539062 224.535156 218.515625 221.757812 216.652344 C 220.171875 215.542969 218.507812 214.511719 216.804688 213.601562 C 213.394531 211.816406 209.632812 210.867188 205.984375 209.953125 L 205.152344 209.757812 C 181.847656 203.851562 159.691406 207.734375 144.394531 220.460938 C 140.867188 223.394531 137.65625 226.882812 134.605469 230.210938 C 133.652344 231.242188 132.703125 232.273438 131.75 233.304688 C 128.816406 236.394531 125.765625 239.128906 122.792969 241.746094 C 117.957031 246.027344 113.402344 250.070312 109.476562 255.503906 C 106.980469 258.953125 104.523438 262.679688 103.890625 267.117188 C 103.175781 271.914062 104.601562 276.632812 108.25 281.546875 C 111.417969 285.90625 115.382812 289.515625 120.019531 292.25 C 133.691406 300.179688 145.464844 303.230469 156.007812 301.644531 C 160.523438 300.972656 164.886719 299.304688 169.125 297.722656 C 173.84375 295.9375 178.71875 294.113281 183.789062 293.597656 C 191.160156 292.84375 198.257812 294.90625 204.914062 297.046875 C 205.984375 297.402344 207.054688 297.761719 208.125 298.078125 C 214.742188 300.257812 221.601562 302.519531 228.535156 302.714844 C 228.851562 302.714844 229.132812 302.714844 229.449219 302.714844 C 239.4375 302.597656 248.867188 298.195312 254.8125 290.703125 Z M 224.214844 301.804688 C 224.097656 301.804688 224.019531 301.804688 223.898438 301.804688 C 217.042969 301.726562 210.304688 299.664062 203.765625 297.679688 C 202.773438 297.363281 201.785156 297.085938 200.792969 296.769531 C 194.214844 294.789062 187.238281 292.925781 180.066406 293.597656 C 175.148438 294.035156 170.433594 295.660156 165.875 297.246094 C 161.675781 298.710938 157.273438 300.21875 152.835938 300.773438 C 145.304688 301.726562 133.136719 300.734375 118 290.863281 C 113.914062 288.167969 110.109375 283.964844 106.425781 277.980469 C 102.820312 272.191406 101.351562 266.917969 101.867188 261.765625 C 102.34375 257.128906 104.285156 253.164062 107.097656 248.605469 C 110.984375 242.339844 116.175781 238.773438 121.683594 235.007812 C 125.171875 232.589844 128.816406 230.09375 132.1875 226.800781 C 133.734375 225.296875 135.316406 223.632812 136.785156 222.085938 C 139.402344 219.308594 142.136719 216.457031 145.109375 213.917969 C 160.800781 200.597656 182.839844 195.683594 205.550781 200.402344 C 206.144531 200.519531 206.738281 200.640625 207.332031 200.757812 C 211.453125 201.589844 215.695312 202.421875 219.300781 204.601562 C 221.203125 205.792969 223.027344 207.179688 224.691406 208.6875 C 227.625 211.222656 230.597656 213.839844 233.410156 216.535156 C 238.007812 220.855469 243.796875 226.683594 248.074219 233.222656 C 251.601562 238.65625 254.21875 245.273438 254.894531 250.507812 C 255.40625 254.550781 255.289062 256.890625 255.128906 260.179688 C 255.050781 261.371094 255.011719 262.71875 254.972656 264.34375 L 255.011719 264.34375 C 258.101562 272.90625 256.160156 282.023438 249.582031 290.070312 C 243.558594 297.445312 234.085938 301.804688 224.214844 301.804688 Z M 182.996094 293.121094 C 189.140625 293.121094 195.164062 294.746094 200.832031 296.453125 C 201.824219 296.730469 202.8125 297.046875 203.804688 297.363281 C 210.34375 299.347656 217.082031 301.40625 223.859375 301.488281 C 223.980469 301.488281 224.058594 301.488281 224.175781 301.488281 C 233.964844 301.488281 243.359375 297.164062 249.34375 289.910156 C 255.84375 281.984375 257.746094 272.945312 254.734375 264.5 L 254.894531 264.421875 L 254.695312 264.421875 C 254.734375 262.796875 254.8125 261.449219 254.851562 260.21875 C 255.011719 256.96875 255.128906 254.589844 254.617188 250.585938 C 253.941406 245.394531 251.367188 238.8125 247.839844 233.421875 C 243.597656 226.921875 237.8125 221.09375 233.214844 216.773438 C 230.359375 214.078125 227.425781 211.421875 224.492188 208.925781 C 222.828125 207.417969 221.046875 206.070312 219.144531 204.878906 C 215.578125 202.738281 211.335938 201.867188 207.292969 201.074219 C 206.699219 200.957031 206.105469 200.835938 205.507812 200.71875 C 182.878906 196 160.960938 200.875 145.34375 214.15625 C 142.371094 216.695312 139.679688 219.546875 137.023438 222.28125 C 135.515625 223.867188 133.96875 225.492188 132.386719 227 C 128.976562 230.332031 125.332031 232.828125 121.84375 235.207031 C 116.375 238.972656 111.179688 242.5 107.335938 248.722656 C 104.5625 253.242188 102.621094 257.207031 102.144531 261.765625 C 101.628906 266.839844 103.054688 272.074219 106.582031 277.742188 C 110.269531 283.6875 113.996094 287.851562 118.078125 290.507812 C 133.136719 300.375 145.226562 301.328125 152.71875 300.375 C 157.15625 299.820312 161.515625 298.316406 165.71875 296.847656 C 170.316406 295.261719 175.03125 293.636719 179.984375 293.164062 C 181.015625 293.164062 182.007812 293.121094 182.996094 293.121094 Z M 218.90625 300.972656 C 212.167969 300.972656 205.429688 299.109375 198.96875 297.285156 C 198.136719 297.046875 197.34375 296.808594 196.511719 296.609375 C 189.734375 294.746094 183.078125 293.121094 176.21875 293.675781 C 171.503906 294.074219 166.984375 295.5 162.585938 296.847656 C 158.386719 298.15625 154.023438 299.542969 149.546875 299.980469 C 138.765625 301.011719 126.480469 297.207031 115.820312 289.515625 C 110.625 285.75 107.21875 279.804688 104.445312 274.492188 C 100.917969 267.871094 99.488281 262.164062 99.847656 256.613281 C 100.242188 250.824219 102.542969 245.910156 104.722656 241.90625 C 108.566406 234.847656 114.351562 231.71875 120.535156 228.425781 C 124.578125 226.246094 128.777344 224.027344 132.625 220.5 C 134.644531 218.636719 136.585938 216.695312 138.609375 214.59375 C 140.90625 212.253906 143.285156 209.796875 145.820312 207.574219 C 162.109375 193.425781 184.027344 187.476562 205.945312 191.242188 C 206.699219 191.363281 207.453125 191.480469 208.203125 191.601562 C 212.921875 192.355469 217.757812 193.148438 221.796875 195.800781 C 223.9375 197.230469 225.722656 198.933594 227.664062 200.917969 C 230.796875 204.085938 233.925781 207.378906 236.9375 210.707031 C 242.289062 216.535156 248.273438 223.550781 252.15625 231.125 C 255.765625 238.140625 257.429688 246.1875 256.4375 251.617188 C 255.804688 254.988281 254.695312 256.851562 253.503906 258.871094 C 252.515625 260.539062 251.523438 262.242188 250.613281 264.976562 C 253.070312 273.183594 250.851562 281.902344 244.351562 289.554688 C 238.285156 296.652344 228.851562 300.933594 219.144531 301.011719 C 219.0625 300.972656 218.984375 300.972656 218.90625 300.972656 Z M 179.035156 293.28125 C 184.941406 293.28125 190.726562 294.707031 196.550781 296.332031 C 197.382812 296.570312 198.175781 296.769531 199.007812 297.007812 C 205.46875 298.832031 212.167969 300.695312 218.867188 300.695312 C 218.945312 300.695312 219.023438 300.695312 219.105469 300.695312 C 228.734375 300.613281 238.046875 296.375 244.074219 289.355469 C 250.492188 281.785156 252.671875 273.144531 250.253906 265.015625 L 250.253906 264.9375 C 251.167969 262.121094 252.199219 260.417969 253.1875 258.714844 C 254.339844 256.730469 255.449219 254.867188 256.082031 251.578125 C 257.074219 246.226562 255.40625 238.257812 251.839844 231.28125 C 247.957031 223.75 242.011719 216.773438 236.660156 210.945312 C 233.609375 207.617188 230.476562 204.324219 227.386719 201.195312 C 225.484375 199.25 223.699219 197.507812 221.601562 196.121094 C 217.636719 193.503906 212.800781 192.710938 208.125 191.957031 C 207.371094 191.839844 206.617188 191.71875 205.867188 191.601562 C 184.027344 187.835938 162.230469 193.742188 145.980469 207.855469 C 143.441406 210.074219 141.066406 212.53125 138.765625 214.871094 C 136.824219 216.851562 134.804688 218.914062 132.78125 220.777344 C 128.898438 224.304688 124.695312 226.5625 120.613281 228.746094 C 114.511719 232.035156 108.722656 235.128906 104.917969 242.105469 C 102.738281 246.109375 100.480469 250.984375 100.082031 256.691406 C 99.726562 262.203125 101.195312 267.832031 104.640625 274.410156 C 107.417969 279.683594 110.785156 285.589844 115.9375 289.316406 C 126.519531 296.96875 138.726562 300.773438 149.429688 299.742188 C 153.867188 299.304688 158.1875 297.957031 162.386719 296.652344 C 166.789062 295.261719 171.34375 293.835938 176.101562 293.441406 C 177.132812 293.320312 178.082031 293.28125 179.035156 293.28125 Z M 213.554688 300.21875 C 207.09375 300.21875 200.632812 298.59375 194.371094 297.007812 C 193.660156 296.808594 192.945312 296.652344 192.230469 296.492188 C 185.257812 294.746094 178.953125 293.359375 172.375 293.835938 C 167.855469 294.152344 163.496094 295.382812 159.257812 296.570312 C 155.054688 297.761719 150.695312 298.949219 146.257812 299.265625 C 135.316406 299.980469 123.429688 295.976562 113.679688 288.246094 C 108.367188 284.042969 105.433594 277.582031 102.621094 271.320312 L 102.5 271.082031 C 100.125 265.929688 97.46875 258.992188 97.785156 251.460938 C 97.984375 246.304688 99.371094 241.269531 102.304688 235.167969 C 106.070312 227.316406 112.488281 224.621094 119.304688 221.769531 C 123.902344 219.824219 128.660156 217.84375 133.019531 214.15625 C 135.476562 212.09375 137.734375 209.757812 140.152344 207.339844 C 142.175781 205.277344 144.273438 203.175781 146.496094 201.195312 C 163.539062 186.050781 185.335938 179.113281 206.300781 182.085938 C 207.132812 182.207031 208.007812 182.324219 208.839844 182.445312 C 214.1875 183.117188 219.777344 183.871094 224.214844 187.042969 C 226.753906 188.824219 228.734375 191.125 230.519531 193.1875 C 233.808594 196.992188 237.136719 200.917969 240.347656 204.878906 C 246.015625 211.816406 252.394531 219.984375 256.121094 228.984375 C 259.6875 237.503906 260.363281 247.019531 257.824219 252.648438 C 256.242188 256.136719 254.179688 257.722656 251.960938 259.425781 C 250.019531 260.933594 247.957031 262.519531 246.171875 265.53125 C 247.996094 273.460938 245.5 281.824219 239.078125 289.039062 C 233.054688 295.816406 223.820312 300.019531 214.386719 300.257812 C 214.109375 300.21875 213.832031 300.21875 213.554688 300.21875 Z M 175.03125 293.441406 C 180.699219 293.441406 186.246094 294.707031 192.3125 296.175781 C 193.023438 296.332031 193.738281 296.53125 194.453125 296.730469 C 200.953125 298.355469 207.6875 300.058594 214.386719 299.902344 C 223.742188 299.664062 232.894531 295.5 238.878906 288.761719 C 245.222656 281.585938 247.71875 273.339844 245.894531 265.492188 L 246.054688 265.453125 L 245.894531 265.375 C 247.71875 262.28125 249.820312 260.65625 251.800781 259.109375 C 253.980469 257.445312 256.042969 255.859375 257.589844 252.449219 C 260.085938 246.902344 259.410156 237.503906 255.882812 229.0625 C 252.15625 220.101562 245.816406 211.9375 240.148438 205.039062 C 236.9375 201.074219 233.609375 197.152344 230.320312 193.34375 C 228.574219 191.324219 226.59375 189.023438 224.097656 187.28125 C 219.699219 184.148438 214.1875 183.433594 208.839844 182.761719 C 207.964844 182.640625 207.132812 182.523438 206.300781 182.402344 C 185.453125 179.429688 163.734375 186.367188 146.734375 201.433594 C 144.511719 203.414062 142.414062 205.515625 140.390625 207.574219 C 137.972656 210.035156 135.675781 212.332031 133.21875 214.433594 C 128.816406 218.160156 124.0625 220.140625 119.425781 222.085938 C 112.6875 224.898438 106.304688 227.59375 102.582031 235.324219 C 99.6875 241.390625 98.300781 246.34375 98.101562 251.460938 C 97.824219 258.953125 100.441406 265.808594 102.777344 270.964844 L 102.898438 271.199219 C 105.710938 277.425781 108.605469 283.847656 113.875 288.007812 C 123.585938 295.660156 135.398438 299.664062 146.257812 298.949219 C 150.65625 298.671875 155.015625 297.445312 159.21875 296.253906 C 163.457031 295.066406 167.855469 293.835938 172.375 293.519531 C 173.246094 293.441406 174.160156 293.441406 175.03125 293.441406 Z M 207.886719 299.425781 C 201.824219 299.425781 195.917969 298.117188 189.695312 296.730469 L 187.992188 296.332031 C 182.046875 295.023438 175.347656 293.519531 168.53125 293.953125 C 164.25 294.234375 160.050781 295.261719 156.046875 296.214844 C 151.804688 297.246094 147.40625 298.316406 143.007812 298.472656 C 132.1875 298.832031 120.457031 294.511719 111.539062 286.9375 C 106.347656 282.5 103.769531 275.839844 101.273438 269.417969 C 101.035156 268.824219 100.796875 268.226562 100.558594 267.632812 C 98.101562 261.449219 95.644531 254.074219 95.722656 246.265625 C 95.804688 240.519531 97.113281 234.847656 99.847656 228.425781 C 103.570312 219.785156 110.585938 217.527344 118.039062 215.109375 C 123.191406 213.441406 128.5 211.699219 133.375 207.855469 C 136.191406 205.59375 138.804688 202.976562 141.582031 200.242188 C 143.363281 198.457031 145.226562 196.59375 147.167969 194.851562 C 165.359375 178.359375 186.484375 170.589844 206.660156 172.929688 C 207.570312 173.046875 208.480469 173.128906 209.394531 173.207031 C 215.457031 173.839844 221.757812 174.476562 226.671875 178.203125 C 229.410156 180.261719 231.546875 182.957031 233.410156 185.335938 C 236.898438 189.777344 240.386719 194.335938 243.796875 198.933594 C 249.898438 207.101562 256.675781 216.652344 260.125 226.761719 C 263.574219 236.753906 263.214844 247.773438 259.253906 253.558594 C 256.753906 257.246094 253.664062 258.632812 250.414062 260.101562 C 247.480469 261.410156 244.46875 262.796875 241.734375 265.96875 C 242.921875 273.578125 240.148438 281.507812 233.847656 288.367188 C 227.785156 294.945312 218.984375 298.949219 209.671875 299.386719 C 209.078125 299.425781 208.480469 299.425781 207.886719 299.425781 Z M 170.949219 293.597656 C 176.933594 293.597656 182.800781 294.90625 188.03125 296.054688 L 189.734375 296.453125 C 196.550781 297.957031 202.972656 299.425781 209.632812 299.109375 C 218.867188 298.671875 227.585938 294.707031 233.609375 288.207031 C 239.871094 281.429688 242.644531 273.539062 241.417969 266.007812 L 241.417969 265.929688 L 241.457031 265.890625 C 244.230469 262.597656 247.28125 261.210938 250.296875 259.863281 C 253.503906 258.398438 256.558594 257.046875 259.015625 253.402344 C 262.898438 247.691406 263.253906 236.753906 259.847656 226.882812 C 256.398438 216.8125 249.621094 207.296875 243.558594 199.132812 C 240.148438 194.574219 236.660156 189.976562 233.171875 185.574219 C 231.3125 183.195312 229.210938 180.5 226.476562 178.480469 C 221.601562 174.832031 215.378906 174.199219 209.355469 173.5625 C 208.441406 173.484375 207.53125 173.367188 206.617188 173.285156 C 186.523438 170.949219 165.480469 178.71875 147.367188 195.128906 C 145.464844 196.871094 143.601562 198.734375 141.816406 200.519531 C 139.042969 203.292969 136.429688 205.910156 133.574219 208.171875 C 128.660156 212.054688 123.308594 213.800781 118.15625 215.464844 C 110.785156 217.84375 103.808594 220.101562 100.164062 228.625 C 97.429688 235.007812 96.121094 240.636719 96.042969 246.34375 C 95.960938 254.074219 98.417969 261.449219 100.835938 267.632812 C 101.074219 268.226562 101.3125 268.824219 101.550781 269.417969 C 104.046875 275.800781 106.582031 282.417969 111.734375 286.820312 C 120.574219 294.351562 132.265625 298.671875 142.96875 298.277344 C 147.367188 298.117188 151.726562 297.046875 155.96875 296.015625 C 160.011719 295.023438 164.210938 293.996094 168.53125 293.71875 C 169.324219 293.597656 170.15625 293.597656 170.949219 293.597656 Z M 202.179688 298.710938 C 196.472656 298.710938 190.84375 297.601562 184.941406 296.492188 L 183.433594 296.214844 C 177.328125 295.023438 171.027344 293.835938 164.648438 294.152344 C 160.605469 294.351562 156.640625 295.183594 152.835938 295.976562 C 148.554688 296.886719 144.117188 297.800781 139.636719 297.800781 C 128.859375 297.800781 117.523438 293.28125 109.320312 285.710938 C 104.125 280.914062 101.789062 273.9375 99.527344 267.195312 C 99.210938 266.207031 98.894531 265.253906 98.539062 264.261719 C 96.199219 257.445312 93.664062 249.476562 93.625 241.113281 C 93.582031 234.769531 94.8125 228.425781 97.390625 221.726562 C 101.074219 212.332031 108.683594 210.429688 116.769531 208.449219 C 122.476562 207.0625 128.382812 205.59375 133.734375 201.550781 C 136.941406 199.132812 139.914062 196.199219 143.046875 193.066406 C 144.59375 191.5625 146.179688 189.976562 147.804688 188.46875 C 172.335938 165.792969 193.5 162.503906 206.976562 163.734375 C 207.886719 163.8125 208.800781 163.890625 209.75 163.96875 C 216.566406 164.527344 223.621094 165.082031 229.050781 169.363281 C 232.023438 171.660156 234.242188 174.792969 236.226562 177.527344 C 239.871094 182.601562 243.558594 187.796875 247.164062 193.027344 C 253.941406 202.859375 260.878906 213.402344 264.046875 224.582031 C 267.378906 236.15625 265.949219 248.484375 260.640625 254.550781 C 257.152344 258.476562 253.109375 259.664062 248.789062 260.894531 C 244.90625 262.003906 240.902344 263.152344 237.296875 266.523438 C 237.890625 273.816406 234.757812 281.386719 228.574219 287.851562 C 222.550781 294.113281 213.910156 298.039062 204.875 298.632812 C 204.003906 298.671875 203.089844 298.710938 202.179688 298.710938 Z M 166.90625 293.757812 C 172.535156 293.757812 178.121094 294.828125 183.511719 295.859375 L 185.019531 296.136719 C 191.835938 297.445312 198.257812 298.710938 204.914062 298.277344 C 213.871094 297.679688 222.433594 293.796875 228.378906 287.574219 C 234.5625 281.152344 237.613281 273.660156 237.019531 266.445312 L 237.175781 266.445312 L 237.058594 266.324219 C 240.703125 262.875 244.785156 261.6875 248.75 260.578125 C 253.03125 259.347656 257.074219 258.199219 260.480469 254.3125 C 265.753906 248.328125 267.140625 236.117188 263.851562 224.660156 C 260.679688 213.523438 253.78125 203.015625 247.003906 193.226562 C 243.398438 187.992188 239.714844 182.800781 236.066406 177.726562 C 234.085938 174.992188 231.867188 171.898438 228.933594 169.597656 C 223.582031 165.398438 216.566406 164.84375 209.789062 164.289062 C 208.839844 164.207031 207.925781 164.128906 207.015625 164.050781 C 193.621094 162.820312 172.535156 166.109375 148.082031 188.707031 C 146.457031 190.214844 144.871094 191.800781 143.363281 193.304688 C 140.234375 196.4375 137.261719 199.371094 134.011719 201.789062 C 128.582031 205.871094 122.675781 207.339844 116.929688 208.726562 C 108.605469 210.789062 101.390625 212.53125 97.785156 221.808594 C 95.207031 228.46875 93.980469 234.769531 94.019531 241.074219 C 94.097656 249.359375 96.597656 257.285156 98.933594 264.105469 C 99.25 265.054688 99.609375 266.046875 99.925781 267.039062 C 102.183594 273.738281 104.484375 280.714844 109.636719 285.433594 C 117.800781 292.964844 129.054688 297.445312 139.757812 297.445312 C 144.195312 297.445312 148.398438 296.570312 152.875 295.621094 C 156.71875 294.828125 160.644531 293.996094 164.726562 293.796875 C 165.398438 293.796875 166.152344 293.757812 166.90625 293.757812 Z M 196.355469 298 C 191.042969 298 185.773438 297.125 180.261719 296.214844 L 178.597656 295.9375 C 172.851562 294.984375 166.867188 293.996094 160.882812 294.234375 C 157.117188 294.390625 153.390625 295.023438 149.824219 295.621094 C 145.265625 296.414062 140.945312 297.125 136.46875 296.96875 C 125.527344 296.453125 115.144531 291.972656 107.296875 284.363281 C 101.984375 279.167969 99.886719 271.714844 97.824219 264.539062 C 97.46875 263.3125 97.113281 262.042969 96.753906 260.816406 C 94.097656 252.132812 91.917969 244.246094 91.722656 235.917969 C 91.523438 228.746094 92.671875 221.726562 95.128906 214.988281 C 98.734375 204.800781 106.582031 203.375 115.660156 201.75 C 121.921875 200.597656 128.382812 199.449219 134.289062 195.246094 C 137.816406 192.710938 141.066406 189.539062 144.472656 186.128906 C 145.820312 184.820312 147.207031 183.433594 148.59375 182.125 C 169.363281 162.582031 189.140625 153.308594 207.453125 154.574219 C 208.324219 154.65625 209.234375 154.695312 210.144531 154.734375 C 217.796875 155.210938 225.683594 155.683594 231.628906 160.523438 C 234.839844 163.136719 237.175781 166.625 239.277344 169.71875 C 243.121094 175.425781 247.003906 181.292969 250.769531 187.121094 C 258.261719 198.617188 265.199219 209.996094 268.25 222.363281 C 271.460938 235.484375 269.003906 249.121094 262.265625 255.503906 C 257.824219 259.703125 252.753906 260.65625 247.363281 261.6875 C 242.527344 262.597656 237.535156 263.550781 233.015625 267.078125 C 232.976562 274.015625 229.605469 281.191406 223.464844 287.253906 C 217.480469 293.203125 209.035156 297.046875 200.277344 297.800781 C 198.929688 297.917969 197.621094 298 196.355469 298 Z M 162.824219 293.914062 C 168.175781 293.914062 173.484375 294.789062 178.636719 295.660156 L 180.300781 295.9375 C 187.121094 297.046875 193.578125 298.117188 200.160156 297.523438 C 208.839844 296.769531 217.203125 292.925781 223.144531 287.058594 C 229.25 281.03125 232.578125 273.894531 232.578125 267 L 232.738281 267 L 232.660156 266.878906 C 237.214844 263.273438 242.289062 262.320312 247.164062 261.410156 C 252.515625 260.417969 257.546875 259.425781 261.90625 255.304688 C 268.566406 249 270.984375 235.523438 267.8125 222.480469 C 264.800781 210.152344 257.867188 198.816406 250.375 187.359375 C 246.609375 181.53125 242.726562 175.703125 238.878906 169.957031 C 236.820312 166.902344 234.480469 163.414062 231.3125 160.839844 C 225.40625 156.042969 217.597656 155.566406 209.988281 155.089844 C 209.078125 155.050781 208.203125 154.972656 207.292969 154.933594 C 189.101562 153.664062 169.363281 162.898438 148.675781 182.402344 C 147.246094 183.75 145.898438 185.097656 144.554688 186.40625 C 141.105469 189.816406 137.855469 193.027344 134.328125 195.566406 C 128.382812 199.804688 121.882812 200.996094 115.582031 202.105469 C 106.625 203.730469 98.855469 205.117188 95.289062 215.148438 C 92.832031 221.847656 91.722656 228.863281 91.878906 235.960938 C 92.078125 244.246094 94.296875 252.09375 96.914062 260.734375 C 97.269531 261.964844 97.667969 263.234375 97.984375 264.460938 C 100.003906 271.597656 102.105469 279.011719 107.375 284.164062 C 115.183594 291.734375 125.488281 296.214844 136.347656 296.691406 C 140.828125 296.847656 145.109375 296.09375 149.664062 295.34375 C 153.234375 294.707031 156.957031 294.074219 160.761719 293.914062 C 161.515625 293.914062 162.148438 293.914062 162.824219 293.914062 Z M 190.25 297.324219 C 185.335938 297.324219 180.382812 296.652344 175.269531 295.976562 C 174.59375 295.898438 173.960938 295.777344 173.289062 295.699219 C 168.015625 294.984375 162.546875 294.234375 157.078125 294.390625 C 153.589844 294.511719 150.140625 294.945312 146.851562 295.382812 C 142.175781 296.015625 137.777344 296.609375 133.21875 296.253906 C 122.753906 295.5 112.25 290.546875 105.15625 283.09375 C 99.804688 277.464844 97.863281 269.574219 96 262.003906 C 95.605469 260.496094 95.25 258.910156 94.8125 257.367188 L 94.535156 256.375 C 92.316406 248.089844 90.015625 239.566406 89.621094 230.726562 C 89.265625 223.074219 90.292969 215.503906 92.671875 208.25 C 96.238281 197.269531 104.640625 196.238281 114.351562 195.007812 C 121.167969 194.136719 128.183594 193.265625 134.605469 188.90625 C 138.609375 186.210938 142.214844 182.601562 146.058594 178.796875 C 147.089844 177.804688 148.121094 176.734375 149.191406 175.742188 C 159.574219 165.792969 168.414062 158.855469 177.011719 153.902344 C 187.832031 147.679688 197.859375 144.902344 207.730469 145.417969 C 208.5625 145.457031 209.433594 145.496094 210.304688 145.539062 C 218.746094 145.894531 227.464844 146.289062 233.964844 151.722656 C 237.375 154.574219 239.871094 158.5 242.050781 161.949219 C 246.054688 168.292969 250.136719 174.792969 254.101562 181.253906 C 262.304688 194.613281 269.320312 206.742188 272.132812 220.222656 C 275.183594 234.890625 271.699219 249.792969 263.613281 256.492188 C 258.222656 260.933594 251.839844 261.726562 245.65625 262.480469 C 239.871094 263.191406 233.886719 263.90625 228.496094 267.59375 C 227.824219 274.253906 224.136719 281.03125 218.152344 286.699219 C 212.128906 292.410156 204.082031 296.09375 195.480469 297.046875 C 193.699219 297.246094 191.953125 297.324219 190.25 297.324219 Z M 158.621094 294.074219 C 163.578125 294.074219 168.53125 294.746094 173.289062 295.382812 C 173.960938 295.460938 174.59375 295.582031 175.269531 295.660156 C 182.203125 296.570312 188.746094 297.445312 195.402344 296.730469 C 203.925781 295.777344 211.890625 292.132812 217.875 286.460938 C 223.859375 280.792969 227.507812 274.054688 228.140625 267.472656 L 228.296875 267.472656 L 228.21875 267.355469 C 233.6875 263.589844 239.714844 262.875 245.578125 262.164062 C 252 261.371094 258.0625 260.617188 263.375 256.257812 C 271.378906 249.636719 274.828125 234.847656 271.816406 220.300781 C 269.003906 206.863281 262.027344 194.773438 253.824219 181.453125 C 249.859375 174.992188 245.816406 168.488281 241.773438 162.148438 C 239.59375 158.699219 237.136719 154.8125 233.769531 152 C 227.347656 146.609375 218.667969 146.25 210.265625 145.855469 C 209.394531 145.816406 208.5625 145.773438 207.6875 145.734375 C 197.898438 145.257812 187.910156 147.996094 177.171875 154.179688 C 168.570312 159.132812 159.773438 166.03125 149.386719 175.980469 C 148.316406 177.011719 147.289062 178.042969 146.257812 179.035156 C 142.414062 182.878906 138.765625 186.488281 134.722656 189.183594 C 128.261719 193.582031 120.851562 194.496094 114.3125 195.328125 C 104.722656 196.515625 96.398438 197.585938 92.871094 208.367188 C 90.492188 215.625 89.460938 223.15625 89.820312 230.765625 C 90.175781 239.527344 92.472656 248.089844 94.695312 256.335938 L 94.972656 257.328125 C 95.367188 258.871094 95.765625 260.417969 96.160156 261.964844 C 98.023438 269.535156 99.964844 277.34375 105.234375 282.933594 C 112.289062 290.347656 122.675781 295.222656 133.097656 296.015625 C 137.617188 296.332031 142.015625 295.738281 146.652344 295.144531 C 149.984375 294.707031 153.390625 294.234375 156.917969 294.152344 C 157.550781 294.074219 158.109375 294.074219 158.621094 294.074219 Z M 183.789062 296.691406 C 179.785156 296.691406 175.625 296.332031 170.988281 295.859375 C 169.917969 295.738281 168.847656 295.621094 167.777344 295.5 C 163.023438 294.984375 158.109375 294.46875 153.191406 294.550781 C 150.101562 294.589844 147.011719 294.90625 144.078125 295.183594 C 139.203125 295.660156 134.605469 296.09375 129.886719 295.539062 C 119.625 294.351562 109.554688 289.238281 102.976562 281.824219 C 97.546875 275.71875 95.765625 267.355469 94.019531 259.269531 C 93.664062 257.523438 93.265625 255.699219 92.832031 253.957031 C 92.59375 252.886719 92.316406 251.816406 92.039062 250.707031 C 90.054688 242.578125 88.035156 234.136719 87.519531 225.574219 C 86.964844 217.445312 87.875 209.320312 90.214844 201.511719 C 93.742188 189.738281 102.699219 189.0625 113.042969 188.230469 C 120.058594 187.675781 128.027344 187.042969 134.960938 182.5625 C 139.441406 179.707031 143.523438 175.625 147.84375 171.34375 C 148.515625 170.667969 149.191406 169.996094 149.863281 169.320312 C 166.628906 152.910156 186.328125 135.46875 208.085938 136.140625 C 208.839844 136.183594 209.589844 136.183594 210.382812 136.222656 C 219.699219 136.460938 229.328125 136.738281 236.421875 142.800781 C 240.070312 145.933594 242.644531 150.253906 244.945312 154.058594 C 249.144531 161.078125 253.386719 168.210938 257.546875 175.269531 C 266.148438 189.9375 273.480469 203.292969 276.136719 217.921875 C 279.070312 234.136719 274.472656 250.347656 265.039062 257.328125 C 258.699219 262.042969 251.246094 262.597656 244.03125 263.113281 C 237.296875 263.628906 230.320312 264.144531 224.058594 267.988281 C 222.75 274.332031 218.785156 280.714844 212.882812 286.027344 C 206.617188 291.535156 198.96875 295.023438 190.726562 296.136719 C 188.386719 296.570312 186.089844 296.691406 183.789062 296.691406 Z M 154.34375 294.234375 C 158.898438 294.234375 163.417969 294.707031 167.777344 295.183594 C 168.847656 295.304688 169.917969 295.421875 170.988281 295.539062 C 178.28125 296.292969 184.382812 296.769531 190.648438 295.9375 C 198.8125 294.828125 206.421875 291.378906 212.605469 285.90625 C 218.46875 280.636719 222.394531 274.292969 223.699219 267.988281 L 223.859375 268.03125 L 223.78125 267.871094 C 230.121094 263.984375 237.136719 263.429688 243.914062 262.957031 C 251.40625 262.398438 258.5 261.84375 264.761719 257.207031 C 274.113281 250.269531 278.632812 234.214844 275.738281 218.082031 C 273.125 203.492188 265.792969 190.171875 257.191406 175.507812 C 253.03125 168.410156 248.789062 161.273438 244.589844 154.296875 C 242.328125 150.53125 239.753906 146.25 236.144531 143.117188 C 229.132812 137.09375 219.578125 136.855469 210.304688 136.578125 C 209.550781 136.539062 208.757812 136.539062 208.007812 136.5 C 186.40625 135.824219 166.746094 153.226562 150.023438 169.558594 C 149.347656 170.234375 148.675781 170.90625 148 171.542969 C 143.679688 175.863281 139.597656 179.945312 135.082031 182.800781 C 128.066406 187.320312 120.058594 187.953125 113.042969 188.507812 C 102.820312 189.300781 93.941406 190.015625 90.492188 201.550781 C 88.195312 209.320312 87.28125 217.40625 87.796875 225.492188 C 88.273438 234.058594 90.332031 242.460938 92.277344 250.585938 C 92.554688 251.65625 92.792969 252.726562 93.070312 253.835938 C 93.503906 255.582031 93.863281 257.40625 94.257812 259.148438 C 96 267.195312 97.785156 275.523438 103.136719 281.546875 C 109.675781 288.882812 119.664062 293.996094 129.847656 295.144531 C 134.527344 295.660156 139.121094 295.222656 143.957031 294.789062 C 146.929688 294.511719 149.984375 294.191406 153.113281 294.152344 C 153.589844 294.234375 153.945312 294.234375 154.34375 294.234375 Z M 176.617188 296.136719 C 173.328125 296.136719 170.039062 295.9375 166.707031 295.699219 C 165.121094 295.582031 163.496094 295.460938 161.953125 295.34375 C 157.828125 295.023438 153.589844 294.667969 149.347656 294.667969 C 146.691406 294.667969 144.078125 294.828125 141.539062 294.984375 C 136.386719 295.261719 131.554688 295.582031 126.597656 294.789062 C 116.453125 293.203125 107.019531 288.007812 100.796875 280.554688 C 95.289062 273.9375 93.625 265.054688 92.039062 256.492188 C 91.679688 254.550781 91.285156 252.53125 90.890625 250.546875 C 90.492188 248.722656 90.097656 246.859375 89.660156 244.996094 C 87.875 237.03125 86.054688 228.746094 85.460938 220.421875 C 84.785156 211.222656 85.578125 202.859375 87.796875 194.8125 C 91.285156 182.246094 100.796875 181.929688 111.777344 181.492188 C 119.304688 181.214844 127.867188 180.898438 135.359375 176.300781 C 140.351562 173.285156 144.832031 168.726562 149.625 163.929688 L 150.539062 163.019531 C 167.460938 146.132812 186.644531 127.0625 207.964844 127.0625 C 208.125 127.0625 208.285156 127.0625 208.441406 127.0625 C 209.078125 127.0625 209.671875 127.0625 210.304688 127.105469 C 220.570312 127.222656 231.152344 127.339844 238.839844 134.082031 C 242.726562 137.488281 245.421875 142.167969 247.796875 146.328125 C 252.15625 153.941406 256.597656 161.75 260.957031 169.480469 C 269.953125 185.457031 277.601562 199.964844 280.101562 215.859375 C 281.40625 224.144531 280.851562 232.828125 278.59375 240.359375 C 276.175781 248.445312 271.976562 254.671875 266.425781 258.4375 C 259.132812 263.390625 250.574219 263.75 242.367188 264.066406 C 234.679688 264.382812 226.753906 264.699219 219.578125 268.664062 C 217.597656 274.6875 213.316406 280.675781 207.609375 285.589844 C 201.425781 290.785156 193.9375 294.191406 185.96875 295.5 C 182.878906 295.9375 179.746094 296.136719 176.617188 296.136719 Z M 149.824219 294.351562 C 153.90625 294.351562 158.027344 294.667969 161.992188 295.023438 C 163.539062 295.144531 165.164062 295.304688 166.746094 295.382812 C 173.246094 295.816406 179.589844 296.136719 185.929688 295.144531 C 193.855469 293.875 201.269531 290.464844 207.410156 285.3125 C 213.117188 280.4375 217.359375 274.453125 219.339844 268.464844 L 219.5 268.503906 L 219.421875 268.347656 C 226.632812 264.304688 234.640625 263.984375 242.367188 263.667969 C 250.929688 263.3125 259.054688 262.996094 266.269531 258.117188 C 271.738281 254.394531 275.898438 248.207031 278.316406 240.199219 C 280.535156 232.75 281.089844 224.105469 279.78125 215.859375 C 277.324219 200.042969 269.675781 185.535156 260.679688 169.597656 C 256.320312 161.871094 251.921875 154.101562 247.519531 146.488281 C 245.144531 142.367188 242.488281 137.6875 238.644531 134.320312 C 231.035156 127.621094 220.492188 127.5 210.304688 127.421875 C 209.671875 127.421875 209.078125 127.421875 208.441406 127.382812 C 187.078125 127.105469 167.777344 146.289062 150.773438 163.257812 L 149.863281 164.167969 C 145.066406 169.003906 140.550781 173.523438 135.554688 176.578125 C 127.984375 181.214844 119.425781 181.53125 111.816406 181.808594 C 100.957031 182.207031 91.5625 182.5625 88.113281 194.890625 C 85.894531 202.898438 85.140625 211.261719 85.777344 220.378906 C 86.371094 228.707031 88.195312 236.949219 89.9375 244.917969 C 90.335938 246.78125 90.769531 248.605469 91.167969 250.46875 C 91.601562 252.410156 91.957031 254.433594 92.316406 256.414062 C 93.902344 264.9375 95.566406 273.777344 101.035156 280.359375 C 107.21875 287.769531 116.53125 292.925781 126.636719 294.511719 C 131.554688 295.261719 136.386719 294.984375 141.5 294.707031 C 144.039062 294.550781 146.691406 294.390625 149.347656 294.390625 C 149.507812 294.351562 149.664062 294.351562 149.824219 294.351562 Z M 168.414062 295.660156 C 166.550781 295.660156 164.566406 295.621094 162.507812 295.539062 C 160.246094 295.460938 157.949219 295.34375 155.691406 295.183594 C 152.359375 294.984375 148.953125 294.789062 145.542969 294.789062 C 143.441406 294.789062 141.382812 294.828125 139.402344 294.867188 C 133.851562 294.984375 128.621094 295.105469 123.386719 294.035156 C 113.519531 292.011719 104.523438 286.660156 98.734375 279.246094 C 93.109375 272.074219 91.601562 262.679688 90.097656 253.558594 C 89.738281 251.460938 89.382812 249.238281 88.988281 247.097656 C 88.472656 244.402344 87.917969 241.667969 87.363281 239.011719 C 85.777344 231.28125 84.113281 223.234375 83.476562 215.265625 C 82.644531 205.316406 83.320312 196.4375 85.460938 188.113281 C 88.90625 174.792969 98.933594 174.792969 110.546875 174.753906 C 118.59375 174.753906 127.75 174.714844 135.792969 169.996094 C 141.34375 166.746094 146.574219 161.394531 151.210938 156.675781 C 152.636719 155.25 154.023438 153.78125 155.453125 152.355469 C 171.980469 135.46875 189.0625 117.984375 208.757812 117.90625 L 210.066406 117.90625 C 220.769531 117.867188 232.894531 117.789062 241.257812 125.28125 C 245.378906 128.96875 248.195312 134.082031 250.652344 138.558594 C 255.210938 146.804688 259.808594 155.25 264.367188 163.613281 C 272.054688 177.765625 281.605469 195.367188 284.0625 213.679688 C 285.292969 222.640625 284.460938 232.035156 281.804688 240.082031 C 278.910156 248.761719 274.113281 255.464844 267.851562 259.386719 C 259.570312 264.582031 249.976562 264.699219 240.703125 264.820312 C 232.101562 264.9375 223.1875 265.015625 215.179688 269.140625 C 212.484375 274.925781 208.046875 280.398438 202.378906 284.996094 C 196.273438 289.871094 188.941406 293.203125 181.292969 294.667969 C 177.132812 295.421875 172.96875 295.660156 168.414062 295.660156 Z M 144.671875 294.46875 C 144.949219 294.46875 145.265625 294.46875 145.542969 294.46875 C 148.953125 294.511719 152.398438 294.707031 155.730469 294.867188 C 157.949219 294.984375 160.289062 295.144531 162.507812 295.222656 C 169.523438 295.460938 175.386719 295.382812 181.175781 294.3125 C 188.824219 292.882812 196.078125 289.554688 202.140625 284.71875 C 207.808594 280.160156 212.207031 274.6875 214.902344 268.941406 L 214.980469 268.980469 L 214.941406 268.863281 C 223.027344 264.699219 232.023438 264.582031 240.703125 264.460938 C 249.9375 264.34375 259.492188 264.222656 267.695312 259.070312 C 273.878906 255.1875 278.671875 248.527344 281.527344 239.921875 C 284.183594 231.917969 284.976562 222.601562 283.785156 213.679688 C 281.328125 195.40625 271.777344 177.84375 264.128906 163.691406 C 259.570312 155.328125 254.972656 146.886719 250.414062 138.640625 C 247.839844 133.921875 245.144531 129.085938 241.0625 125.4375 C 232.816406 118.066406 220.730469 118.105469 210.066406 118.144531 L 208.757812 118.144531 C 189.179688 118.222656 172.136719 135.625 155.648438 152.472656 C 154.222656 153.941406 152.796875 155.367188 151.410156 156.796875 C 146.773438 161.550781 141.5 166.902344 135.914062 170.195312 C 127.828125 174.949219 118.632812 174.949219 110.546875 174.992188 C 99.054688 174.992188 89.144531 175.03125 85.738281 188.113281 C 83.597656 196.398438 82.960938 205.277344 83.753906 215.1875 C 84.390625 223.15625 86.054688 231.164062 87.640625 238.933594 C 88.195312 241.589844 88.75 244.363281 89.265625 247.019531 C 89.660156 249.160156 90.015625 251.378906 90.375 253.480469 C 91.839844 262.519531 93.386719 271.914062 98.933594 279.011719 C 104.679688 286.34375 113.597656 291.695312 123.386719 293.675781 C 128.621094 294.707031 133.8125 294.628906 139.359375 294.511719 C 141.105469 294.511719 142.886719 294.46875 144.671875 294.46875 Z M 157.195312 295.421875 C 154.261719 295.421875 151.210938 295.304688 148.277344 295.183594 C 146.136719 295.105469 143.917969 294.984375 141.699219 294.945312 C 140.429688 294.90625 139.203125 294.90625 137.933594 294.90625 C 131.710938 294.828125 125.847656 294.789062 120.058594 293.320312 C 110.507812 290.941406 101.945312 285.351562 96.554688 278.019531 C 90.847656 270.289062 89.460938 260.339844 88.074219 250.707031 C 87.757812 248.40625 87.402344 246.027344 87.003906 243.730469 C 86.410156 240.199219 85.695312 236.59375 85.023438 233.066406 C 83.554688 225.574219 82.089844 217.804688 81.375 210.113281 C 80.386719 199.449219 80.902344 190.054688 83 181.375 C 86.410156 167.261719 96.992188 167.578125 109.277344 167.933594 C 117.839844 168.210938 127.589844 168.488281 136.152344 163.691406 C 141.816406 160.523438 147.011719 155.328125 151.84375 150.292969 C 154.34375 147.71875 156.917969 144.980469 159.375 142.367188 C 174.753906 125.992188 190.648438 109.066406 209.117188 108.710938 L 209.710938 108.710938 C 221.402344 108.472656 234.640625 108.195312 243.675781 116.441406 C 248.035156 120.363281 250.929688 125.875 253.546875 130.75 C 258.300781 139.710938 263.097656 148.789062 267.773438 157.707031 C 276.175781 173.722656 285.726562 191.878906 288.027344 211.5 C 289.175781 221.132812 288.066406 231.203125 285.015625 239.804688 C 281.683594 249.121094 276.253906 256.214844 269.28125 260.339844 C 260.046875 265.769531 249.382812 265.691406 239.078125 265.570312 C 229.527344 265.492188 219.617188 265.375 210.703125 269.65625 C 207.09375 275.402344 202.535156 280.359375 197.105469 284.441406 C 190.964844 289.078125 184.027344 292.25 176.496094 293.875 C 170.910156 295.066406 165.359375 295.382812 158.226562 295.460938 C 157.910156 295.421875 157.550781 295.421875 157.195312 295.421875 Z M 103.730469 168.132812 C 94.058594 168.132812 86.171875 169.757812 83.359375 181.453125 C 81.296875 190.054688 80.742188 199.449219 81.734375 210.074219 C 82.445312 217.765625 83.914062 225.492188 85.378906 232.984375 C 86.054688 236.476562 86.765625 240.121094 87.363281 243.648438 C 87.757812 245.949219 88.074219 248.328125 88.429688 250.625 C 89.777344 260.21875 91.207031 270.128906 96.875 277.78125 C 102.222656 285.074219 110.746094 290.585938 120.21875 292.964844 C 125.964844 294.390625 131.832031 294.46875 138.011719 294.550781 C 139.242188 294.550781 140.511719 294.589844 141.777344 294.589844 C 143.957031 294.628906 146.179688 294.746094 148.359375 294.828125 C 151.648438 294.984375 155.054688 295.105469 158.304688 295.066406 C 165.441406 294.984375 170.949219 294.707031 176.496094 293.519531 C 183.988281 291.894531 190.84375 288.722656 196.988281 284.125 C 202.378906 280.082031 206.9375 275.125 210.542969 269.417969 L 210.582031 269.378906 L 210.621094 269.378906 C 219.617188 265.054688 229.566406 265.136719 239.160156 265.253906 C 249.421875 265.375 260.046875 265.453125 269.199219 260.0625 C 276.097656 255.976562 281.488281 248.921875 284.816406 239.6875 C 287.867188 231.125 288.9375 221.132812 287.828125 211.539062 C 285.53125 191.996094 276.015625 173.839844 267.613281 157.867188 C 262.9375 148.945312 258.144531 139.90625 253.386719 130.910156 C 250.8125 126.074219 247.917969 120.601562 243.597656 116.679688 C 234.640625 108.550781 221.480469 108.789062 209.828125 109.027344 L 209.234375 109.027344 C 190.882812 109.382812 175.070312 126.269531 159.734375 142.5625 C 157.273438 145.179688 154.699219 147.914062 152.203125 150.492188 C 147.328125 155.527344 142.136719 160.71875 136.429688 163.929688 C 127.789062 168.765625 118 168.488281 109.398438 168.210938 C 107.375 168.210938 105.511719 168.132812 103.730469 168.132812 Z M 149.585938 295.421875 C 146.019531 295.421875 142.371094 295.304688 138.84375 295.144531 L 137.816406 295.105469 C 130.441406 294.828125 123.507812 294.589844 116.808594 292.566406 C 107.457031 289.753906 99.527344 284.125 94.417969 276.710938 C 88.628906 268.308594 87.320312 257.761719 86.054688 247.535156 C 85.738281 245.15625 85.460938 242.660156 85.101562 240.28125 C 84.429688 235.917969 83.636719 231.480469 82.84375 227.199219 C 81.496094 219.90625 80.109375 212.371094 79.394531 204.921875 C 78.207031 193.34375 78.5625 183.75 80.625 174.632812 C 83.992188 159.730469 95.128906 160.363281 108.050781 161.117188 C 117.164062 161.632812 127.46875 162.265625 136.585938 157.351562 C 142.371094 154.257812 147.683594 149.066406 152.558594 143.910156 C 155.886719 140.421875 159.257812 136.65625 162.507812 133.011719 C 176.972656 116.835938 191.914062 100.148438 209.472656 99.511719 C 222.074219 99.078125 236.34375 98.5625 246.132812 107.5625 C 250.730469 111.800781 253.742188 117.707031 256.4375 122.863281 C 261.394531 132.457031 266.347656 142.167969 271.222656 151.722656 C 279.980469 168.886719 289.929688 188.351562 292.03125 209.242188 C 293.101562 219.585938 291.753906 230.332031 288.226562 239.449219 C 284.417969 249.398438 278.355469 256.929688 270.707031 261.210938 C 260.480469 266.917969 248.75 266.601562 237.414062 266.285156 C 226.910156 266.007812 216.050781 265.691406 206.300781 270.089844 C 202.140625 275.324219 197.304688 279.960938 191.875 283.808594 C 185.773438 288.128906 179.035156 291.21875 171.820312 293.042969 C 166.746094 294.273438 161.277344 294.984375 154.066406 295.261719 C 152.558594 295.382812 151.09375 295.421875 149.585938 295.421875 Z M 100.082031 161.15625 C 90.847656 161.15625 83.515625 163.21875 80.902344 174.714844 C 78.839844 183.75 78.445312 193.34375 79.671875 204.878906 C 80.425781 212.332031 81.8125 219.863281 83.121094 227.160156 C 83.914062 231.480469 84.707031 235.917969 85.378906 240.242188 C 85.738281 242.621094 86.054688 245.117188 86.332031 247.496094 C 87.597656 257.683594 88.90625 268.226562 94.652344 276.550781 C 99.726562 283.886719 107.613281 289.476562 116.886719 292.289062 C 123.546875 294.3125 130.484375 294.550781 137.816406 294.789062 L 138.84375 294.828125 C 143.878906 295.023438 149.070312 295.183594 154.023438 295.023438 C 161.238281 294.707031 166.707031 294.035156 171.742188 292.804688 C 178.914062 291.023438 185.652344 287.929688 191.71875 283.648438 C 197.148438 279.804688 201.980469 275.203125 206.105469 269.972656 L 206.222656 270.089844 L 206.144531 269.933594 C 216.011719 265.453125 226.910156 265.769531 237.453125 266.085938 C 248.75 266.402344 260.480469 266.722656 270.585938 261.050781 C 278.199219 256.769531 284.222656 249.320312 287.988281 239.449219 C 291.476562 230.332031 292.820312 219.667969 291.753906 209.359375 C 289.652344 188.546875 279.703125 169.125 270.984375 151.960938 C 266.109375 142.40625 261.117188 132.691406 256.199219 123.101562 C 253.546875 117.945312 250.53125 112.078125 245.976562 107.878906 C 236.304688 98.957031 222.078125 99.472656 209.550781 99.910156 C 192.113281 100.542969 177.210938 117.195312 162.824219 133.289062 C 159.574219 136.933594 156.164062 140.699219 152.835938 144.1875 C 147.921875 149.34375 142.570312 154.574219 136.785156 157.667969 C 127.589844 162.621094 117.246094 161.988281 108.089844 161.472656 C 105.277344 161.316406 102.621094 161.15625 100.082031 161.15625 Z M 141.460938 295.460938 C 139.003906 295.460938 136.507812 295.382812 134.050781 295.222656 C 127.75 294.90625 120.335938 294.234375 113.558594 291.8125 C 104.601562 288.601562 97.03125 282.777344 92.316406 275.402344 C 86.488281 266.363281 85.261719 255.226562 84.070312 244.402344 C 83.792969 241.90625 83.515625 239.328125 83.160156 236.832031 C 82.445312 231.519531 81.457031 226.050781 80.542969 220.777344 C 79.316406 213.878906 78.085938 206.742188 77.292969 199.726562 C 75.90625 187.359375 76.222656 177.25 78.207031 167.894531 C 81.535156 152.195312 93.226562 153.1875 106.78125 154.296875 C 116.414062 155.089844 127.3125 156.003906 136.984375 151.046875 C 143.207031 147.835938 148.953125 142.167969 153.234375 137.570312 C 157.195312 133.328125 161.199219 128.609375 165.082031 124.050781 C 178.796875 107.917969 192.984375 91.226562 209.828125 90.355469 C 221.71875 89.761719 238.007812 88.929688 248.550781 98.761719 C 253.347656 103.238281 256.359375 109.265625 259.292969 115.09375 C 264.324219 125.199219 269.519531 135.546875 274.628906 145.855469 C 283.746094 164.167969 294.050781 184.941406 295.992188 207.0625 C 296.945312 218.082031 295.359375 229.496094 291.433594 239.210938 C 287.195312 249.792969 280.496094 257.722656 272.132812 262.203125 C 260.957031 268.148438 248.15625 267.59375 235.75 267.078125 C 224.296875 266.601562 212.484375 266.085938 201.824219 270.605469 C 197.1875 275.324219 192.074219 279.566406 186.5625 283.210938 C 180.5 287.214844 173.921875 290.230469 166.945312 292.210938 C 161.316406 293.71875 155.492188 294.707031 149.664062 295.105469 C 147.011719 295.382812 144.234375 295.460938 141.460938 295.460938 Z M 97.03125 154.101562 C 88.035156 154.101562 80.941406 156.476562 78.523438 168.015625 C 76.542969 177.328125 76.265625 187.398438 77.613281 199.765625 C 78.402344 206.785156 79.632812 213.917969 80.863281 220.816406 C 81.773438 226.089844 82.765625 231.558594 83.476562 236.871094 C 83.835938 239.367188 84.113281 241.945312 84.390625 244.441406 C 85.578125 255.1875 86.804688 266.324219 92.59375 275.285156 C 97.308594 282.578125 104.800781 288.367188 113.679688 291.535156 C 120.414062 293.953125 127.789062 294.589844 134.089844 294.945312 C 139.28125 295.261719 144.554688 295.261719 149.746094 294.90625 C 155.53125 294.511719 161.359375 293.519531 166.945312 292.011719 C 173.882812 290.070312 180.460938 287.058594 186.484375 283.054688 C 191.953125 279.40625 197.066406 275.164062 201.703125 270.449219 L 201.785156 270.527344 L 201.742188 270.40625 C 212.484375 265.808594 224.335938 266.324219 235.828125 266.800781 C 248.195312 267.355469 260.957031 267.871094 272.054688 261.964844 C 280.378906 257.523438 286.996094 249.597656 291.238281 239.128906 C 295.121094 229.496094 296.746094 218.121094 295.753906 207.140625 C 293.8125 185.058594 283.507812 164.328125 274.390625 146.050781 C 269.28125 135.746094 264.085938 125.398438 259.054688 115.289062 C 256.160156 109.503906 253.148438 103.476562 248.394531 99.039062 C 237.96875 89.285156 221.757812 90.117188 209.910156 90.714844 C 193.183594 91.546875 179.035156 108.195312 165.359375 124.289062 C 161.476562 128.847656 157.472656 133.566406 153.511719 137.808594 C 149.191406 142.40625 143.441406 148.113281 137.140625 151.363281 C 127.390625 156.359375 116.453125 155.449219 106.78125 154.65625 C 103.375 154.378906 100.082031 154.101562 97.03125 154.101562 Z M 136.109375 295.582031 C 134.128906 295.582031 132.1875 295.5 130.246094 295.382812 C 122.515625 294.867188 115.976562 293.441406 110.308594 291.101562 C 101.628906 287.453125 94.652344 281.585938 90.214844 274.175781 C 84.390625 264.5 83.238281 252.726562 82.128906 241.3125 C 81.890625 238.734375 81.613281 236.039062 81.296875 233.460938 C 80.542969 227.160156 79.433594 220.699219 78.363281 214.472656 C 77.253906 207.972656 76.105469 201.234375 75.3125 194.613281 C 73.765625 181.453125 73.925781 170.867188 75.828125 161.234375 C 79.117188 144.746094 91.363281 146.050781 105.554688 147.558594 C 115.699219 148.628906 127.191406 149.859375 137.378906 144.824219 C 142.492188 142.285156 147.761719 138.003906 153.90625 131.265625 C 158.425781 126.390625 162.902344 120.800781 167.261719 115.410156 C 180.382812 99.15625 193.898438 82.347656 210.226562 81.277344 C 225.167969 80.289062 240.585938 80.167969 251.007812 90 C 256.042969 94.757812 259.292969 101.457031 262.183594 107.363281 C 267.496094 118.265625 272.847656 129.246094 278.117188 140.027344 C 287.550781 159.453125 298.292969 181.492188 300.074219 204.960938 C 300.945312 216.695312 299.085938 228.785156 294.765625 239.011719 C 290.046875 250.191406 282.753906 258.59375 273.679688 263.273438 C 261.550781 269.496094 247.640625 268.703125 234.203125 267.949219 C 221.796875 267.238281 208.996094 266.523438 197.464844 271.242188 C 192.390625 275.402344 187 279.289062 181.453125 282.738281 C 175.46875 286.421875 169.085938 289.355469 162.386719 291.496094 C 156.917969 293.164062 151.289062 294.390625 145.582031 295.023438 C 142.414062 295.382812 139.28125 295.582031 136.109375 295.582031 Z M 94.140625 147.003906 C 91.445312 147.003906 88.90625 147.242188 86.648438 147.914062 C 80.941406 149.582031 77.613281 153.820312 76.105469 161.273438 C 74.203125 170.867188 74.003906 181.453125 75.589844 194.574219 C 76.382812 201.195312 77.53125 207.894531 78.640625 214.394531 C 79.710938 220.617188 80.820312 227.078125 81.574219 233.421875 C 81.890625 236.039062 82.167969 238.695312 82.40625 241.269531 C 83.515625 252.609375 84.667969 264.34375 90.453125 273.976562 C 94.890625 281.347656 101.789062 287.175781 110.429688 290.785156 C 116.054688 293.121094 122.554688 294.550781 130.285156 295.066406 C 135.359375 295.421875 140.46875 295.304688 145.503906 294.746094 C 151.171875 294.074219 156.800781 292.882812 162.230469 291.21875 C 168.886719 289.078125 175.269531 286.144531 181.214844 282.5 C 186.761719 279.011719 192.191406 275.164062 197.226562 270.964844 L 197.34375 271.082031 L 197.304688 270.964844 C 208.917969 266.207031 221.757812 266.960938 234.203125 267.632812 C 247.601562 268.386719 261.433594 269.179688 273.519531 262.996094 C 282.558594 258.355469 289.769531 250.03125 294.488281 238.894531 C 298.765625 228.703125 300.667969 216.652344 299.796875 205 C 298.015625 181.609375 287.3125 159.609375 277.878906 140.183594 C 272.648438 129.402344 267.296875 118.421875 261.949219 107.519531 C 259.09375 101.652344 255.84375 94.996094 250.851562 90.238281 C 240.503906 80.484375 225.128906 80.605469 210.304688 81.59375 C 194.132812 82.664062 180.621094 99.433594 167.578125 115.609375 C 163.21875 121 158.742188 126.589844 154.222656 131.464844 C 148 138.203125 142.730469 142.523438 137.578125 145.0625 C 127.3125 150.136719 115.777344 148.90625 105.59375 147.835938 C 101.550781 147.398438 97.667969 147.003906 94.140625 147.003906 Z M 131.472656 295.738281 C 124.417969 295.738281 117.445312 294.511719 111.0625 292.09375 C 100.875 288.207031 92.910156 281.546875 88.035156 272.867188 C 82.210938 262.480469 81.140625 250.03125 80.070312 238.058594 C 79.832031 235.40625 79.59375 232.707031 79.316406 230.054688 C 78.523438 222.679688 77.253906 215.1875 76.066406 207.972656 C 73.132812 190.371094 70.082031 172.175781 73.410156 154.535156 C 76.699219 137.253906 89.5 138.878906 104.324219 140.742188 C 114.984375 142.089844 127.035156 143.59375 137.777344 138.519531 C 149.109375 133.128906 159.296875 119.808594 169.125 106.925781 C 181.730469 90.394531 194.730469 73.351562 210.582031 72.082031 C 225.484375 70.890625 242.289062 70.496094 253.464844 81.160156 C 258.777344 86.234375 262.144531 93.289062 265.078125 99.554688 L 281.527344 134.121094 C 291.316406 154.734375 302.414062 178.082031 304.039062 202.738281 C 304.832031 215.148438 302.691406 227.914062 297.972656 238.695312 C 292.78125 250.507812 284.894531 259.308594 275.105469 264.183594 C 261.988281 270.683594 247.003906 269.65625 232.539062 268.703125 C 219.222656 267.792969 205.429688 266.878906 193.023438 271.714844 C 176.894531 282.378906 161.871094 291.457031 141.304688 294.90625 C 138.054688 295.460938 134.761719 295.738281 131.472656 295.738281 Z M 91.484375 139.867188 C 88.988281 139.867188 86.648438 140.105469 84.546875 140.660156 C 78.601562 142.328125 75.15625 146.726562 73.6875 154.496094 C 70.359375 172.097656 73.410156 190.253906 76.34375 207.855469 C 77.570312 215.109375 78.800781 222.601562 79.59375 229.972656 C 79.871094 232.628906 80.109375 235.363281 80.347656 237.980469 C 81.375 249.953125 82.488281 262.320312 88.273438 272.667969 C 93.109375 281.308594 101.035156 287.890625 111.140625 291.734375 C 120.414062 295.261719 131.078125 296.253906 141.183594 294.550781 C 161.714844 291.101562 176.695312 282.023438 192.785156 271.398438 L 192.867188 271.558594 L 192.785156 271.398438 C 205.273438 266.523438 219.105469 267.433594 232.460938 268.347656 C 246.886719 269.335938 261.828125 270.328125 274.867188 263.867188 C 284.578125 259.03125 292.464844 250.308594 297.617188 238.535156 C 302.335938 227.792969 304.472656 215.066406 303.683594 202.699219 C 302.097656 178.121094 291 154.773438 281.210938 134.199219 L 264.761719 99.632812 C 261.828125 93.410156 258.460938 86.390625 253.1875 81.359375 C 242.171875 70.8125 225.445312 71.210938 210.621094 72.398438 C 194.886719 73.667969 181.925781 90.632812 169.402344 107.085938 C 159.535156 120.007812 149.347656 133.367188 137.933594 138.796875 C 127.113281 143.910156 114.984375 142.40625 104.285156 141.058594 C 99.765625 140.421875 95.40625 139.867188 91.484375 139.867188 Z M 91.484375 139.867188 " fill-opacity="1" fill-rule="nonzero"/></g><g fill="rgb(100%, 100%, 100%)" fill-opacity="1"><g transform="translate(174.925174, 236.325095)"><g><path d="M 4.3125 -4.703125 C 4.875 -5.816406 5.453125 -7.070312 6.046875 -8.46875 C 6.648438 -9.863281 7.210938 -11.378906 7.734375 -13.015625 L 9.46875 -17.265625 C 8.695312 -18.421875 7.910156 -19.675781 7.109375 -21.03125 C 6.316406 -22.382812 5.597656 -23.769531 4.953125 -25.1875 C 4.316406 -26.601562 3.789062 -28.019531 3.375 -29.4375 C 2.96875 -30.851562 2.765625 -32.226562 2.765625 -33.5625 C 2.765625 -33.644531 3.097656 -33.71875 3.765625 -33.78125 C 4.429688 -33.84375 5.269531 -33.894531 6.28125 -33.9375 C 7.289062 -33.988281 8.382812 -34.023438 9.5625 -34.046875 C 10.75 -34.066406 11.84375 -34.085938 12.84375 -34.109375 C 13.851562 -34.128906 14.691406 -34.148438 15.359375 -34.171875 C 16.023438 -34.191406 16.359375 -34.203125 16.359375 -34.203125 C 17.347656 -36.773438 18.3125 -39.222656 19.25 -41.546875 C 20.195312 -43.867188 21.144531 -46.207031 22.09375 -48.5625 C 23.039062 -50.925781 23.984375 -53.34375 24.921875 -55.8125 C 25.867188 -58.28125 26.816406 -60.929688 27.765625 -63.765625 C 29.566406 -69.097656 31.328125 -73.78125 33.046875 -77.8125 C 34.765625 -81.851562 36.375 -85.609375 37.875 -89.078125 C 38.050781 -89.515625 38.34375 -89.914062 38.75 -90.28125 C 39.15625 -90.644531 39.59375 -90.953125 40.0625 -91.203125 C 40.539062 -91.460938 41.003906 -91.675781 41.453125 -91.84375 C 41.898438 -92.019531 42.253906 -92.15625 42.515625 -92.25 C 42.679688 -92.289062 43.332031 -92.484375 44.46875 -92.828125 C 45.613281 -93.171875 46.914062 -93.535156 48.375 -93.921875 C 49.832031 -94.304688 51.28125 -94.648438 52.71875 -94.953125 C 54.15625 -95.253906 55.304688 -95.40625 56.171875 -95.40625 L 57.328125 -95.40625 C 58.015625 -95.40625 58.671875 -95.242188 59.296875 -94.921875 C 59.921875 -94.597656 60.335938 -93.960938 60.546875 -93.015625 C 62.609375 -87.734375 64.804688 -81.96875 67.140625 -75.71875 C 69.484375 -69.46875 71.773438 -62.585938 74.015625 -55.078125 C 75.210938 -51.035156 76.390625 -47.210938 77.546875 -43.609375 C 78.710938 -40.003906 79.875 -36.484375 81.03125 -33.046875 C 82.1875 -29.609375 83.351562 -26.171875 84.53125 -22.734375 C 85.71875 -19.296875 86.9375 -15.753906 88.1875 -12.109375 C 88.570312 -10.566406 88.96875 -9.34375 89.375 -8.4375 C 89.78125 -7.53125 90.15625 -6.820312 90.5 -6.3125 C 90.84375 -5.800781 91.117188 -5.425781 91.328125 -5.1875 C 91.546875 -4.945312 91.65625 -4.695312 91.65625 -4.4375 C 91.65625 -4.1875 91.25 -3.929688 90.4375 -3.671875 L 76.59375 0.84375 C 75.5625 1.226562 74.507812 1.613281 73.4375 2 C 72.363281 2.382812 71.351562 2.726562 70.40625 3.03125 C 69.457031 3.332031 68.628906 3.578125 67.921875 3.765625 C 67.210938 3.960938 66.707031 4.0625 66.40625 4.0625 L 66.03125 4.0625 C 65.425781 4.0625 64.992188 3.878906 64.734375 3.515625 C 64.472656 3.148438 64.300781 2.796875 64.21875 2.453125 C 63.789062 1.035156 63.363281 -0.238281 62.9375 -1.375 C 62.507812 -2.519531 62.085938 -3.660156 61.671875 -4.796875 C 61.265625 -5.929688 60.859375 -7.144531 60.453125 -8.4375 C 60.046875 -9.726562 59.648438 -11.253906 59.265625 -13.015625 C 59.179688 -13.222656 58.941406 -13.398438 58.546875 -13.546875 C 58.160156 -13.703125 57.695312 -13.820312 57.15625 -13.90625 C 56.625 -14 56.054688 -14.054688 55.453125 -14.078125 C 54.859375 -14.097656 54.300781 -14.109375 53.78125 -14.109375 C 52.15625 -14.109375 50.835938 -14.097656 49.828125 -14.078125 C 48.816406 -14.054688 47.925781 -14.035156 47.15625 -14.015625 C 46.382812 -13.992188 45.640625 -13.96875 44.921875 -13.9375 C 44.210938 -13.914062 43.347656 -13.90625 42.328125 -13.90625 C 41.078125 -13.90625 39.796875 -13.914062 38.484375 -13.9375 C 37.171875 -13.96875 35.976562 -14.003906 34.90625 -14.046875 L 31.234375 -14.171875 C 30.117188 -11.078125 29.003906 -8.175781 27.890625 -5.46875 C 26.773438 -2.769531 25.570312 0.0195312 24.28125 2.90625 C 24.195312 3.238281 23.992188 3.515625 23.671875 3.734375 C 23.347656 3.953125 23.015625 4.0625 22.671875 4.0625 C 22.410156 4.0625 22.257812 4.039062 22.21875 4 C 18.050781 2.488281 14.550781 1.003906 11.71875 -0.453125 C 8.882812 -1.910156 6.414062 -3.328125 4.3125 -4.703125 Z M 47.734375 -62.609375 C 46.703125 -58.785156 45.679688 -55.316406 44.671875 -52.203125 C 43.660156 -49.085938 42.734375 -46.328125 41.890625 -43.921875 C 41.054688 -41.523438 40.335938 -39.5 39.734375 -37.84375 C 39.140625 -36.1875 38.710938 -34.910156 38.453125 -34.015625 L 38.453125 -33.4375 C 38.453125 -33.175781 38.429688 -33.003906 38.390625 -32.921875 L 53.84375 -32.921875 C 53.375 -35.023438 52.867188 -37.148438 52.328125 -39.296875 C 51.796875 -41.441406 51.269531 -43.691406 50.75 -46.046875 C 50.238281 -48.410156 49.722656 -50.945312 49.203125 -53.65625 C 48.691406 -56.363281 48.203125 -59.347656 47.734375 -62.609375 Z M 47.734375 -62.609375 "/></g></g></g><g fill="rgb(100%, 100%, 100%)" fill-opacity="1"><g transform="translate(150.568331, 259.841599)"><g><path d="M 1.453125 0.15625 C 1.015625 0.15625 0.53125 0.0507812 0 -0.15625 L 0 -0.890625 L 1.453125 -0.890625 C 2.046875 -0.890625 2.488281 -1.101562 2.78125 -1.53125 C 3.070312 -1.96875 3.21875 -2.742188 3.21875 -3.859375 L 3.21875 -11.265625 L 4.671875 -11.265625 L 4.671875 -3.859375 C 4.671875 -2.835938 4.554688 -2.035156 4.328125 -1.453125 C 4.109375 -0.878906 3.765625 -0.46875 3.296875 -0.21875 C 2.835938 0.03125 2.222656 0.15625 1.453125 0.15625 Z M 1.453125 0.15625 "/></g></g></g><g fill="rgb(100%, 100%, 100%)" fill-opacity="1"><g transform="translate(156.201645, 259.841599)"><g><path d="M 3.703125 0.15625 C 2.691406 0.15625 1.941406 -0.160156 1.453125 -0.796875 C 0.960938 -1.429688 0.71875 -2.503906 0.71875 -4.015625 C 0.71875 -5.535156 0.960938 -6.613281 1.453125 -7.25 C 1.941406 -7.882812 2.691406 -8.203125 3.703125 -8.203125 C 4.710938 -8.203125 5.457031 -7.882812 5.9375 -7.25 C 6.425781 -6.613281 6.671875 -5.535156 6.671875 -4.015625 C 6.671875 -2.503906 6.425781 -1.429688 5.9375 -0.796875 C 5.457031 -0.160156 4.710938 0.15625 3.703125 0.15625 Z M 3.703125 -0.71875 C 4.148438 -0.71875 4.515625 -0.96875 4.796875 -1.46875 C 5.085938 -1.976562 5.234375 -2.828125 5.234375 -4.015625 C 5.234375 -5.210938 5.085938 -6.0625 4.796875 -6.5625 C 4.515625 -7.070312 4.148438 -7.328125 3.703125 -7.328125 C 3.253906 -7.328125 2.882812 -7.070312 2.59375 -6.5625 C 2.3125 -6.0625 2.171875 -5.210938 2.171875 -4.015625 C 2.171875 -2.828125 2.3125 -1.976562 2.59375 -1.46875 C 2.882812 -0.96875 3.253906 -0.71875 3.703125 -0.71875 Z M 3.703125 -0.71875 "/></g></g></g><g fill="rgb(100%, 100%, 100%)" fill-opacity="1"><g transform="translate(163.605426, 259.841599)"><g><path d="M 2.578125 0.15625 C 2.273438 0.15625 1.941406 0.125 1.578125 0.0625 C 1.210938 0 0.898438 -0.0703125 0.640625 -0.15625 L 0.640625 -0.796875 L 2.25 -0.796875 C 2.988281 -0.796875 3.519531 -0.894531 3.84375 -1.09375 C 4.175781 -1.289062 4.34375 -1.625 4.34375 -2.09375 C 4.34375 -2.476562 4.210938 -2.773438 3.953125 -2.984375 C 3.691406 -3.191406 3.285156 -3.40625 2.734375 -3.625 C 2.265625 -3.820312 1.882812 -4.003906 1.59375 -4.171875 C 1.3125 -4.335938 1.066406 -4.578125 0.859375 -4.890625 C 0.660156 -5.210938 0.5625 -5.617188 0.5625 -6.109375 C 0.5625 -6.898438 0.789062 -7.445312 1.25 -7.75 C 1.71875 -8.050781 2.453125 -8.203125 3.453125 -8.203125 C 3.753906 -8.203125 4.085938 -8.171875 4.453125 -8.109375 C 4.816406 -8.046875 5.128906 -7.972656 5.390625 -7.890625 L 5.390625 -7.234375 L 3.78125 -7.234375 C 3.195312 -7.234375 2.753906 -7.144531 2.453125 -6.96875 C 2.160156 -6.800781 2.015625 -6.515625 2.015625 -6.109375 C 2.015625 -5.722656 2.144531 -5.425781 2.40625 -5.21875 C 2.664062 -5.007812 3.070312 -4.800781 3.625 -4.59375 C 4.09375 -4.382812 4.46875 -4.195312 4.75 -4.03125 C 5.039062 -3.863281 5.285156 -3.617188 5.484375 -3.296875 C 5.691406 -2.984375 5.796875 -2.582031 5.796875 -2.09375 C 5.796875 -1.5 5.6875 -1.039062 5.46875 -0.71875 C 5.25 -0.394531 4.90625 -0.164062 4.4375 -0.03125 C 3.976562 0.09375 3.359375 0.15625 2.578125 0.15625 Z M 2.578125 0.15625 "/></g></g></g><g fill="rgb(100%, 100%, 100%)" fill-opacity="1"><g transform="translate(169.963023, 259.841599)"><g><path d="M 3.546875 0.15625 C 2.710938 0.15625 2.085938 -0.015625 1.671875 -0.359375 C 1.253906 -0.710938 1.046875 -1.34375 1.046875 -2.25 L 1.046875 -8.046875 L 2.5 -8.046875 L 2.5 -2.25 C 2.5 -1.726562 2.628906 -1.351562 2.890625 -1.125 C 3.160156 -0.90625 3.535156 -0.796875 4.015625 -0.796875 C 4.210938 -0.796875 4.414062 -0.828125 4.625 -0.890625 C 4.84375 -0.960938 5.019531 -1.039062 5.15625 -1.125 L 5.15625 -8.046875 L 6.59375 -8.046875 L 6.59375 0 L 5.390625 0 L 5.3125 -0.484375 L 5.234375 -0.484375 C 5.023438 -0.273438 4.769531 -0.113281 4.46875 0 C 4.164062 0.101562 3.859375 0.15625 3.546875 0.15625 Z M 3.546875 0.15625 "/></g></g></g><g fill="rgb(100%, 100%, 100%)" fill-opacity="1"><g transform="translate(177.608232, 259.841599)"><g><path d="M 4.109375 0.15625 C 3.273438 0.15625 2.613281 0.03125 2.125 -0.21875 C 1.644531 -0.46875 1.289062 -0.894531 1.0625 -1.5 C 0.832031 -2.101562 0.71875 -2.941406 0.71875 -4.015625 C 0.71875 -5.066406 0.820312 -5.898438 1.03125 -6.515625 C 1.25 -7.128906 1.5625 -7.5625 1.96875 -7.8125 C 2.375 -8.070312 2.898438 -8.203125 3.546875 -8.203125 C 4.179688 -8.203125 4.703125 -8.070312 5.109375 -7.8125 C 5.523438 -7.5625 5.835938 -7.128906 6.046875 -6.515625 C 6.253906 -5.898438 6.359375 -5.066406 6.359375 -4.015625 L 6.359375 -3.546875 L 2.171875 -3.546875 C 2.171875 -2.847656 2.242188 -2.296875 2.390625 -1.890625 C 2.546875 -1.492188 2.785156 -1.210938 3.109375 -1.046875 C 3.441406 -0.878906 3.878906 -0.796875 4.421875 -0.796875 L 6.03125 -0.796875 L 6.03125 -0.15625 C 5.78125 -0.0703125 5.46875 0 5.09375 0.0625 C 4.726562 0.125 4.398438 0.15625 4.109375 0.15625 Z M 4.90625 -4.5 C 4.90625 -5.507812 4.78125 -6.234375 4.53125 -6.671875 C 4.28125 -7.109375 3.953125 -7.328125 3.546875 -7.328125 C 3.128906 -7.328125 2.796875 -7.109375 2.546875 -6.671875 C 2.296875 -6.234375 2.171875 -5.507812 2.171875 -4.5 Z M 4.90625 -4.5 "/></g></g></g><g fill="rgb(100%, 100%, 100%)" fill-opacity="1"><g transform="translate(184.690113, 259.841599)"><g/></g></g><g fill="rgb(100%, 100%, 100%)" fill-opacity="1"><g transform="translate(188.713903, 259.841599)"><g><path d="M 0.328125 0 L 3.0625 -11.265625 L 5.15625 -11.265625 L 7.890625 0 L 6.4375 0 L 5.71875 -2.890625 L 2.5 -2.890625 L 1.765625 0 Z M 2.734375 -4.015625 L 5.46875 -4.015625 L 4.140625 -9.65625 L 4.078125 -9.65625 Z M 2.734375 -4.015625 "/></g></g></g><g fill="rgb(100%, 100%, 100%)" fill-opacity="1"><g transform="translate(196.922438, 259.841599)"><g><path d="M 1.046875 -8.046875 L 2.265625 -8.046875 L 2.34375 -7.40625 L 2.4375 -7.40625 C 2.945312 -7.832031 3.609375 -8.046875 4.421875 -8.046875 L 5.234375 -8.046875 L 5.234375 -6.84375 L 3.625 -6.84375 C 3.15625 -6.84375 2.78125 -6.734375 2.5 -6.515625 L 2.5 0 L 1.046875 0 Z M 1.046875 -8.046875 "/></g></g></g><g fill="rgb(100%, 100%, 100%)" fill-opacity="1"><g transform="translate(202.314324, 259.841599)"><g><path d="M 3.140625 0.15625 C 2.347656 0.15625 1.742188 -0.0234375 1.328125 -0.390625 C 0.921875 -0.765625 0.71875 -1.4375 0.71875 -2.40625 C 0.71875 -3.351562 0.921875 -4.003906 1.328125 -4.359375 C 1.742188 -4.722656 2.347656 -4.90625 3.140625 -4.90625 C 3.566406 -4.90625 4.101562 -4.851562 4.75 -4.75 L 4.75 -5.46875 C 4.75 -6.15625 4.601562 -6.617188 4.3125 -6.859375 C 4.03125 -7.109375 3.585938 -7.234375 2.984375 -7.234375 L 1.375 -7.234375 L 1.375 -7.890625 C 1.625 -7.972656 1.929688 -8.046875 2.296875 -8.109375 C 2.660156 -8.171875 2.992188 -8.203125 3.296875 -8.203125 C 3.984375 -8.203125 4.53125 -8.125 4.9375 -7.96875 C 5.351562 -7.820312 5.664062 -7.550781 5.875 -7.15625 C 6.09375 -6.769531 6.203125 -6.207031 6.203125 -5.46875 L 6.203125 0 L 4.984375 0 L 4.90625 -0.484375 L 4.828125 -0.484375 C 4.617188 -0.273438 4.363281 -0.113281 4.0625 0 C 3.769531 0.101562 3.460938 0.15625 3.140625 0.15625 Z M 3.625 -0.796875 C 3.8125 -0.796875 4.007812 -0.828125 4.21875 -0.890625 C 4.4375 -0.960938 4.613281 -1.039062 4.75 -1.125 L 4.75 -3.9375 L 3.625 -3.9375 C 3.164062 -3.9375 2.804688 -3.820312 2.546875 -3.59375 C 2.296875 -3.363281 2.171875 -2.96875 2.171875 -2.40625 C 2.171875 -1.8125 2.296875 -1.394531 2.546875 -1.15625 C 2.804688 -0.914062 3.164062 -0.796875 3.625 -0.796875 Z M 3.625 -0.796875 "/></g></g></g><g fill="rgb(100%, 100%, 100%)" fill-opacity="1"><g transform="translate(209.557162, 259.841599)"><g><path d="M 1.046875 -8.046875 L 2.25 -8.046875 L 2.328125 -7.5625 L 2.40625 -7.5625 C 2.613281 -7.769531 2.867188 -7.925781 3.171875 -8.03125 C 3.472656 -8.144531 3.785156 -8.203125 4.109375 -8.203125 C 4.929688 -8.203125 5.550781 -8.023438 5.96875 -7.671875 C 6.382812 -7.328125 6.59375 -6.703125 6.59375 -5.796875 L 6.59375 0 L 5.15625 0 L 5.15625 -5.796875 C 5.15625 -6.316406 5.019531 -6.6875 4.75 -6.90625 C 4.476562 -7.125 4.101562 -7.234375 3.625 -7.234375 C 3.425781 -7.234375 3.21875 -7.203125 3 -7.140625 C 2.789062 -7.078125 2.625 -7.003906 2.5 -6.921875 L 2.5 0 L 1.046875 0 Z M 1.046875 -8.046875 "/></g></g></g><g fill="rgb(100%, 100%, 100%)" fill-opacity="1"><g transform="translate(217.20237, 259.841599)"><g><path d="M 3.140625 0.15625 C 2.347656 0.15625 1.742188 -0.0234375 1.328125 -0.390625 C 0.921875 -0.765625 0.71875 -1.4375 0.71875 -2.40625 C 0.71875 -3.351562 0.921875 -4.003906 1.328125 -4.359375 C 1.742188 -4.722656 2.347656 -4.90625 3.140625 -4.90625 C 3.566406 -4.90625 4.101562 -4.851562 4.75 -4.75 L 4.75 -5.46875 C 4.75 -6.15625 4.601562 -6.617188 4.3125 -6.859375 C 4.03125 -7.109375 3.585938 -7.234375 2.984375 -7.234375 L 1.375 -7.234375 L 1.375 -7.890625 C 1.625 -7.972656 1.929688 -8.046875 2.296875 -8.109375 C 2.660156 -8.171875 2.992188 -8.203125 3.296875 -8.203125 C 3.984375 -8.203125 4.53125 -8.125 4.9375 -7.96875 C 5.351562 -7.820312 5.664062 -7.550781 5.875 -7.15625 C 6.09375 -6.769531 6.203125 -6.207031 6.203125 -5.46875 L 6.203125 0 L 4.984375 0 L 4.90625 -0.484375 L 4.828125 -0.484375 C 4.617188 -0.273438 4.363281 -0.113281 4.0625 0 C 3.769531 0.101562 3.460938 0.15625 3.140625 0.15625 Z M 3.625 -0.796875 C 3.8125 -0.796875 4.007812 -0.828125 4.21875 -0.890625 C 4.4375 -0.960938 4.613281 -1.039062 4.75 -1.125 L 4.75 -3.9375 L 3.625 -3.9375 C 3.164062 -3.9375 2.804688 -3.820312 2.546875 -3.59375 C 2.296875 -3.363281 2.171875 -2.96875 2.171875 -2.40625 C 2.171875 -1.8125 2.296875 -1.394531 2.546875 -1.15625 C 2.804688 -0.914062 3.164062 -0.796875 3.625 -0.796875 Z M 3.625 -0.796875 "/></g></g></g><g fill="rgb(100%, 100%, 100%)" fill-opacity="1"><g transform="translate(115.583529, 237.825131)"><g><path d="M 5.6875 1.421875 L 5.6875 -15.65625 L 22.765625 -15.65625 L 22.765625 1.421875 Z M 5.6875 1.421875 "/></g></g></g><g fill="rgb(100%, 100%, 100%)" fill-opacity="1"><g transform="translate(144.046025, 237.825131)"><g><path d="M 0 0 L 42.6875 -99.625 L 59.765625 -99.625 L 17.078125 0 Z M 0 0 "/></g></g></g></svg>