<svg xmlns="http://www.w3.org/2000/svg" xmlns:xlink="http://www.w3.org/1999/xlink" width="500" zoomAndPan="magnify" viewBox="0 0 375 374.999991" height="500" preserveAspectRatio="xMidYMid meet" version="1.0"><defs><g><g id="id1"/><g id="id2"/></g><clipPath id="id3"><path d="M 89 79 L 286.738281 79 L 286.738281 276 L 89 276 Z M 89 79 " clip-rule="nonzero"/></clipPath></defs><g clip-path="url(#id3)"><path fill="rgb(100%, 100%, 100%)" d="M 227.3125 275.429688 C 226.941406 275.429688 226.574219 275.429688 226.171875 275.394531 C 220.199219 275.125 214.324219 273.046875 208.621094 271.035156 C 201.777344 268.585938 194.695312 266.070312 187.515625 266.875 C 183.085938 267.34375 178.824219 269.089844 174.695312 270.765625 C 171.074219 272.242188 167.347656 273.75 163.488281 274.457031 C 152.886719 276.335938 142.113281 271.972656 132.082031 266.976562 C 129.128906 265.5 124.96875 263.050781 121.949219 259.730469 C 118.828125 256.273438 117.617188 252.652344 118.324219 248.964844 C 118.996094 245.542969 121.410156 242.722656 123.390625 240.441406 L 139.867188 221.324219 C 143.085938 217.566406 146.410156 213.707031 150.367188 210.523438 C 157.113281 205.019531 165.433594 201.765625 175.097656 200.792969 C 183.65625 199.921875 193.019531 200.996094 202.113281 203.847656 C 222.144531 210.121094 239.894531 223.503906 252.042969 241.582031 L 251.976562 241.652344 L 252.074219 241.617188 C 255.734375 249.398438 254.59375 257.785156 248.855469 265.230469 C 243.886719 271.539062 235.734375 275.429688 227.3125 275.429688 Z M 190.265625 266.472656 C 196.574219 266.472656 202.75 268.652344 208.753906 270.800781 C 214.425781 272.8125 220.265625 274.890625 226.203125 275.160156 C 234.929688 275.53125 243.554688 271.636719 248.621094 264.996094 C 254.257812 257.652344 255.398438 249.367188 251.808594 241.683594 C 239.695312 223.671875 222.011719 210.320312 202.042969 204.082031 C 192.984375 201.230469 183.691406 200.191406 175.167969 201.0625 C 165.570312 202.035156 157.28125 205.289062 150.570312 210.722656 C 146.644531 213.910156 143.324219 217.765625 140.101562 221.492188 L 123.625 240.609375 C 121.578125 242.957031 119.296875 245.640625 118.625 248.996094 C 117.886719 252.71875 118.691406 259.964844 132.214844 266.707031 C 142.214844 271.707031 152.953125 276.03125 163.457031 274.152344 C 167.28125 273.484375 171.003906 271.941406 174.628906 270.496094 C 178.757812 268.820312 183.050781 267.078125 187.515625 266.574219 C 188.421875 266.507812 189.328125 266.472656 190.265625 266.472656 Z M 244.390625 264.695312 C 250.027344 257.617188 251.4375 249.566406 248.285156 242.019531 L 248.050781 242.121094 C 251.136719 249.566406 249.761719 257.515625 244.191406 264.527344 C 239.023438 271 230.800781 274.722656 222.179688 274.488281 C 216.339844 274.320312 210.566406 272.410156 204.964844 270.566406 C 204.058594 270.261719 203.152344 269.960938 202.246094 269.691406 C 196.574219 267.847656 190.535156 266.136719 184.261719 266.742188 C 179.929688 267.175781 175.769531 268.753906 171.777344 270.261719 C 168.21875 271.605469 164.496094 273.011719 160.703125 273.582031 C 151.84375 274.925781 141.945312 272.34375 130.402344 265.667969 C 126.511719 263.351562 123.1875 260.335938 120.503906 256.679688 C 117.484375 252.585938 116.277344 248.660156 116.847656 244.667969 C 117.382812 240.980469 119.464844 237.859375 121.542969 234.976562 C 124.867188 230.378906 128.726562 226.957031 132.785156 223.371094 C 135.300781 221.15625 137.917969 218.839844 140.402344 216.222656 C 141.207031 215.351562 142.046875 214.480469 142.820312 213.609375 C 145.402344 210.789062 148.085938 207.871094 151.074219 205.390625 C 163.960938 194.6875 182.648438 191.402344 202.28125 196.398438 L 202.984375 196.566406 C 206.070312 197.339844 209.257812 198.144531 212.078125 199.652344 C 213.519531 200.425781 214.929688 201.296875 216.273438 202.238281 C 218.621094 203.8125 220.9375 205.523438 223.183594 207.269531 C 228.050781 211.058594 231.941406 214.613281 235.097656 218.203125 C 238.21875 221.828125 240.867188 225.816406 242.984375 230.078125 C 245.0625 234.269531 246.539062 237.355469 247.980469 242.152344 L 248.21875 242.085938 C 246.773438 237.289062 245.296875 234.171875 243.21875 229.976562 C 241.070312 225.683594 238.417969 221.660156 235.296875 218.035156 C 232.144531 214.445312 228.25 210.859375 223.351562 207.066406 C 221.105469 205.324219 218.753906 203.613281 216.40625 202.035156 C 215.0625 201.097656 213.65625 200.222656 212.210938 199.453125 C 209.328125 197.941406 206.136719 197.136719 203.050781 196.367188 L 202.347656 196.199219 C 182.617188 191.199219 163.859375 194.488281 150.90625 205.253906 C 147.917969 207.738281 145.203125 210.691406 142.617188 213.507812 C 141.8125 214.378906 141.007812 215.25 140.203125 216.125 C 137.71875 218.738281 135.132812 221.054688 132.617188 223.269531 C 128.523438 226.890625 124.664062 230.3125 121.34375 234.90625 C 119.230469 237.828125 117.148438 240.980469 116.613281 244.738281 C 116.007812 248.796875 117.214844 252.785156 120.304688 256.945312 C 122.988281 260.636719 126.34375 263.6875 130.269531 266.003906 C 141.847656 272.710938 151.8125 275.292969 160.738281 273.953125 C 164.5625 273.382812 168.253906 271.972656 171.84375 270.632812 C 175.835938 269.121094 179.964844 267.578125 184.261719 267.144531 C 190.5 266.507812 196.507812 268.25 202.144531 270.0625 C 203.050781 270.363281 203.957031 270.664062 204.863281 270.933594 C 210.46875 272.777344 216.273438 274.691406 222.144531 274.859375 C 222.414062 274.859375 222.648438 274.859375 222.917969 274.859375 C 231.371094 274.757812 239.359375 271.035156 244.390625 264.695312 Z M 218.488281 274.085938 C 218.386719 274.085938 218.320312 274.085938 218.21875 274.085938 C 212.414062 274.019531 206.707031 272.277344 201.171875 270.597656 C 200.332031 270.332031 199.496094 270.09375 198.65625 269.828125 C 193.085938 268.148438 187.179688 266.574219 181.105469 267.144531 C 176.945312 267.511719 172.953125 268.886719 169.09375 270.230469 C 165.535156 271.46875 161.8125 272.746094 158.054688 273.214844 C 151.675781 274.019531 141.375 273.179688 128.558594 264.828125 C 125.101562 262.546875 121.878906 258.992188 118.757812 253.925781 C 115.707031 249.03125 114.464844 244.570312 114.902344 240.207031 C 115.304688 236.285156 116.949219 232.929688 119.328125 229.070312 C 122.617188 223.773438 127.015625 220.753906 131.679688 217.566406 C 134.632812 215.519531 137.71875 213.40625 140.570312 210.621094 C 141.878906 209.347656 143.222656 207.9375 144.464844 206.632812 C 146.679688 204.28125 148.992188 201.867188 151.511719 199.722656 C 164.796875 188.449219 183.453125 184.289062 202.683594 188.28125 C 203.183594 188.382812 203.6875 188.484375 204.191406 188.585938 C 207.683594 189.289062 211.273438 189.992188 214.324219 191.839844 C 215.9375 192.84375 217.480469 194.019531 218.890625 195.292969 C 221.371094 197.441406 223.890625 199.652344 226.273438 201.933594 C 230.164062 205.589844 235.0625 210.523438 238.6875 216.058594 C 241.675781 220.652344 243.886719 226.253906 244.457031 230.679688 C 244.894531 234.101562 244.792969 236.082031 244.660156 238.867188 C 244.59375 239.871094 244.558594 241.011719 244.527344 242.386719 L 244.558594 242.386719 C 247.175781 249.632812 245.53125 257.347656 239.960938 264.15625 C 234.863281 270.398438 226.84375 274.085938 218.488281 274.085938 Z M 183.589844 266.742188 C 188.789062 266.742188 193.890625 268.117188 198.6875 269.558594 C 199.527344 269.792969 200.367188 270.0625 201.207031 270.332031 C 206.742188 272.007812 212.445312 273.75 218.183594 273.820312 C 218.285156 273.820312 218.351562 273.820312 218.453125 273.820312 C 226.742188 273.820312 234.695312 270.164062 239.761719 264.023438 C 245.265625 257.316406 246.875 249.667969 244.324219 242.523438 L 244.457031 242.457031 L 244.292969 242.457031 C 244.324219 241.082031 244.390625 239.941406 244.425781 238.898438 C 244.558594 236.148438 244.660156 234.136719 244.222656 230.75 C 243.652344 226.355469 241.472656 220.785156 238.484375 216.222656 C 234.894531 210.722656 229.996094 205.792969 226.105469 202.136719 C 223.6875 199.855469 221.203125 197.609375 218.722656 195.496094 C 217.3125 194.21875 215.800781 193.078125 214.191406 192.074219 C 211.171875 190.261719 207.582031 189.523438 204.160156 188.851562 C 203.65625 188.753906 203.152344 188.652344 202.648438 188.550781 C 183.488281 184.558594 164.933594 188.683594 151.710938 199.921875 C 149.195312 202.070312 146.914062 204.484375 144.664062 206.796875 C 143.390625 208.140625 142.082031 209.515625 140.738281 210.789062 C 137.851562 213.609375 134.765625 215.722656 131.8125 217.734375 C 127.183594 220.921875 122.785156 223.90625 119.53125 229.171875 C 117.183594 232.996094 115.539062 236.351562 115.136719 240.207031 C 114.699219 244.5 115.90625 248.929688 118.894531 253.726562 C 122.015625 258.757812 125.167969 262.28125 128.625 264.527344 C 141.375 272.878906 151.609375 273.683594 157.953125 272.878906 C 161.710938 272.410156 165.402344 271.136719 168.957031 269.894531 C 172.851562 268.550781 176.84375 267.175781 181.039062 266.773438 C 181.910156 266.773438 182.75 266.742188 183.589844 266.742188 Z M 213.992188 273.382812 C 208.285156 273.382812 202.582031 271.804688 197.113281 270.261719 C 196.40625 270.0625 195.734375 269.859375 195.03125 269.691406 C 189.292969 268.117188 183.65625 266.742188 177.851562 267.210938 C 173.859375 267.546875 170.03125 268.753906 166.308594 269.894531 C 162.75 271 159.058594 272.175781 155.269531 272.542969 C 146.140625 273.417969 135.738281 270.195312 126.710938 263.6875 C 122.316406 260.5 119.429688 255.46875 117.082031 250.976562 C 114.09375 245.375 112.886719 240.542969 113.1875 235.847656 C 113.523438 230.949219 115.472656 226.789062 117.316406 223.402344 C 120.570312 217.433594 125.46875 214.78125 130.707031 211.996094 C 134.128906 210.152344 137.683594 208.273438 140.941406 205.289062 C 142.652344 203.710938 144.296875 202.070312 146.007812 200.292969 C 147.953125 198.3125 149.964844 196.230469 152.113281 194.355469 C 165.90625 182.378906 184.460938 177.347656 203.019531 180.535156 C 203.65625 180.632812 204.292969 180.734375 204.929688 180.835938 C 208.921875 181.472656 213.015625 182.144531 216.441406 184.390625 C 218.253906 185.597656 219.761719 187.042969 221.40625 188.71875 C 224.058594 191.402344 226.707031 194.1875 229.257812 197.003906 C 233.789062 201.933594 238.855469 207.871094 242.144531 214.277344 C 245.195312 220.214844 246.605469 227.027344 245.769531 231.621094 C 245.230469 234.472656 244.292969 236.046875 243.285156 237.757812 C 242.445312 239.167969 241.605469 240.609375 240.835938 242.925781 C 242.914062 249.867188 241.035156 257.25 235.53125 263.722656 C 230.398438 269.726562 222.414062 273.347656 214.191406 273.417969 C 214.125 273.382812 214.058594 273.382812 213.992188 273.382812 Z M 180.234375 266.875 C 185.234375 266.875 190.132812 268.082031 195.066406 269.457031 C 195.769531 269.660156 196.441406 269.828125 197.144531 270.027344 C 202.613281 271.570312 208.285156 273.148438 213.957031 273.148438 C 214.023438 273.148438 214.089844 273.148438 214.160156 273.148438 C 222.3125 273.082031 230.199219 269.492188 235.296875 263.554688 C 240.734375 257.148438 242.578125 249.835938 240.53125 242.957031 L 240.53125 242.890625 C 241.304688 240.511719 242.175781 239.066406 243.015625 237.625 C 243.988281 235.949219 244.929688 234.371094 245.464844 231.585938 C 246.304688 227.058594 244.894531 220.316406 241.875 214.414062 C 238.585938 208.039062 233.554688 202.136719 229.023438 197.207031 C 226.441406 194.386719 223.789062 191.601562 221.171875 188.953125 C 219.5625 187.308594 218.050781 185.832031 216.273438 184.660156 C 212.917969 182.445312 208.824219 181.773438 204.863281 181.136719 C 204.226562 181.039062 203.589844 180.9375 202.949219 180.835938 C 184.460938 177.648438 166.007812 182.648438 152.25 194.589844 C 150.101562 196.46875 148.085938 198.546875 146.140625 200.527344 C 144.496094 202.203125 142.785156 203.949219 141.074219 205.523438 C 137.785156 208.507812 134.230469 210.421875 130.773438 212.265625 C 125.605469 215.050781 120.707031 217.667969 117.484375 223.570312 C 115.640625 226.957031 113.726562 231.085938 113.390625 235.914062 C 113.089844 240.578125 114.332031 245.339844 117.25 250.910156 C 119.597656 255.371094 122.449219 260.367188 126.8125 263.519531 C 135.773438 269.996094 146.105469 273.214844 155.167969 272.34375 C 158.925781 271.972656 162.582031 270.832031 166.140625 269.726562 C 169.863281 268.550781 173.722656 267.34375 177.75 267.007812 C 178.621094 266.910156 179.429688 266.875 180.234375 266.875 Z M 209.460938 272.746094 C 203.992188 272.746094 198.519531 271.371094 193.21875 270.027344 C 192.617188 269.859375 192.011719 269.726562 191.40625 269.59375 C 185.5 268.117188 180.167969 266.941406 174.597656 267.34375 C 170.769531 267.613281 167.078125 268.652344 163.488281 269.660156 C 159.933594 270.664062 156.242188 271.671875 152.484375 271.941406 C 143.222656 272.542969 133.15625 269.15625 124.898438 262.613281 C 120.402344 259.058594 117.921875 253.59375 115.539062 248.292969 L 115.4375 248.089844 C 113.425781 243.730469 111.175781 237.859375 111.445312 231.488281 C 111.613281 227.125 112.785156 222.867188 115.269531 217.699219 C 118.457031 211.058594 123.894531 208.777344 129.664062 206.363281 C 133.558594 204.71875 137.585938 203.042969 141.273438 199.921875 C 143.355469 198.179688 145.269531 196.199219 147.316406 194.152344 C 149.027344 192.410156 150.804688 190.628906 152.683594 188.953125 C 167.113281 176.140625 185.570312 170.269531 203.320312 172.785156 C 204.023438 172.886719 204.761719 172.988281 205.46875 173.085938 C 209.996094 173.65625 214.730469 174.292969 218.488281 176.976562 C 220.632812 178.488281 222.3125 180.433594 223.820312 182.175781 C 226.605469 185.398438 229.425781 188.71875 232.144531 192.074219 C 236.941406 197.941406 242.34375 204.851562 245.5 212.46875 C 248.519531 219.679688 249.089844 227.730469 246.941406 232.492188 C 245.601562 235.445312 243.855469 236.785156 241.976562 238.230469 C 240.332031 239.503906 238.585938 240.84375 237.078125 243.394531 C 238.621094 250.101562 236.507812 257.179688 231.070312 263.285156 C 225.96875 269.023438 218.152344 272.578125 210.164062 272.777344 C 209.929688 272.746094 209.695312 272.746094 209.460938 272.746094 Z M 176.84375 267.007812 C 181.644531 267.007812 186.339844 268.082031 191.476562 269.324219 C 192.078125 269.457031 192.683594 269.625 193.285156 269.792969 C 198.789062 271.167969 204.496094 272.609375 210.164062 272.476562 C 218.085938 272.277344 225.835938 268.753906 230.902344 263.050781 C 236.269531 256.980469 238.386719 250.003906 236.84375 243.359375 L 236.976562 243.328125 L 236.84375 243.261719 C 238.386719 240.644531 240.164062 239.269531 241.839844 237.960938 C 243.6875 236.550781 245.433594 235.210938 246.742188 232.324219 C 248.855469 227.628906 248.285156 219.679688 245.296875 212.535156 C 242.144531 204.953125 236.773438 198.042969 231.976562 192.207031 C 229.257812 188.851562 226.441406 185.53125 223.65625 182.3125 C 222.179688 180.601562 220.5 178.65625 218.386719 177.179688 C 214.660156 174.53125 209.996094 173.925781 205.46875 173.355469 C 204.730469 173.253906 204.023438 173.15625 203.320312 173.054688 C 185.667969 170.539062 167.28125 176.40625 152.886719 189.15625 C 151.007812 190.832031 149.226562 192.609375 147.515625 194.355469 C 145.46875 196.433594 143.523438 198.378906 141.441406 200.15625 C 137.71875 203.308594 133.691406 204.988281 129.765625 206.632812 C 124.0625 209.011719 118.660156 211.292969 115.503906 217.835938 C 113.054688 222.964844 111.878906 227.160156 111.710938 231.488281 C 111.476562 237.828125 113.691406 243.628906 115.671875 247.988281 L 115.773438 248.191406 C 118.15625 253.457031 120.605469 258.890625 125.066406 262.414062 C 133.289062 268.886719 143.289062 272.277344 152.484375 271.671875 C 156.207031 271.4375 159.898438 270.398438 163.457031 269.390625 C 167.046875 268.382812 170.769531 267.34375 174.597656 267.078125 C 175.335938 267.007812 176.105469 267.007812 176.84375 267.007812 Z M 204.660156 272.074219 C 199.527344 272.074219 194.527344 270.96875 189.261719 269.792969 L 187.816406 269.457031 C 182.785156 268.351562 177.113281 267.078125 171.339844 267.445312 C 167.71875 267.679688 164.160156 268.550781 160.769531 269.355469 C 157.179688 270.230469 153.457031 271.136719 149.730469 271.269531 C 140.570312 271.570312 130.636719 267.914062 123.089844 261.507812 C 118.691406 257.75 116.511719 252.117188 114.398438 246.683594 C 114.195312 246.179688 113.996094 245.675781 113.792969 245.171875 C 111.710938 239.941406 109.632812 233.699219 109.699219 227.09375 C 109.765625 222.230469 110.875 217.433594 113.1875 211.996094 C 116.34375 204.683594 122.28125 202.773438 128.589844 200.726562 C 132.953125 199.320312 137.449219 197.84375 141.578125 194.589844 C 143.960938 192.675781 146.175781 190.464844 148.523438 188.148438 C 150.035156 186.640625 151.609375 185.0625 153.253906 183.585938 C 168.65625 169.632812 186.542969 163.058594 203.621094 165.035156 C 204.394531 165.136719 205.164062 165.203125 205.9375 165.273438 C 211.070312 165.808594 216.40625 166.34375 220.566406 169.5 C 222.882812 171.242188 224.695312 173.523438 226.273438 175.535156 C 229.226562 179.292969 232.175781 183.152344 235.0625 187.042969 C 240.230469 193.953125 245.96875 202.035156 248.886719 210.589844 C 251.808594 219.042969 251.503906 228.367188 248.148438 233.265625 C 246.035156 236.382812 243.417969 237.558594 240.667969 238.800781 C 238.183594 239.90625 235.632812 241.082031 233.320312 243.761719 C 234.324219 250.203125 231.976562 256.914062 226.640625 262.714844 C 221.507812 268.285156 214.058594 271.671875 206.171875 272.039062 C 205.667969 272.074219 205.164062 272.074219 204.660156 272.074219 Z M 173.386719 267.144531 C 178.453125 267.144531 183.421875 268.25 187.851562 269.222656 L 189.292969 269.558594 C 195.066406 270.832031 200.5 272.074219 206.136719 271.804688 C 213.957031 271.4375 221.339844 268.082031 226.441406 262.582031 C 231.742188 256.84375 234.089844 250.171875 233.050781 243.796875 L 233.050781 243.730469 L 233.082031 243.695312 C 235.433594 240.914062 238.015625 239.738281 240.566406 238.597656 C 243.285156 237.355469 245.867188 236.214844 247.949219 233.128906 C 251.238281 228.300781 251.539062 219.042969 248.652344 210.691406 C 245.734375 202.167969 239.996094 194.121094 234.863281 187.210938 C 231.976562 183.351562 229.023438 179.460938 226.070312 175.738281 C 224.492188 173.726562 222.714844 171.445312 220.398438 169.734375 C 216.273438 166.648438 211.003906 166.109375 205.902344 165.574219 C 205.132812 165.507812 204.359375 165.40625 203.589844 165.339844 C 186.574219 163.359375 168.757812 169.933594 153.421875 183.820312 C 151.8125 185.296875 150.234375 186.875 148.726562 188.382812 C 146.375 190.730469 144.160156 192.945312 141.746094 194.855469 C 137.585938 198.144531 133.054688 199.621094 128.691406 201.027344 C 122.449219 203.042969 116.542969 204.953125 113.457031 212.164062 C 111.140625 217.566406 110.035156 222.328125 109.96875 227.160156 C 109.902344 233.699219 111.980469 239.941406 114.027344 245.171875 C 114.230469 245.675781 114.429688 246.179688 114.632812 246.683594 C 116.746094 252.082031 118.894531 257.683594 123.257812 261.40625 C 130.738281 267.78125 140.636719 271.4375 149.699219 271.101562 C 153.421875 270.96875 157.113281 270.0625 160.703125 269.191406 C 164.125 268.351562 167.683594 267.480469 171.339844 267.246094 C 172.011719 267.144531 172.71875 267.144531 173.386719 267.144531 Z M 199.828125 271.46875 C 194.996094 271.46875 190.234375 270.53125 185.234375 269.59375 L 183.957031 269.355469 C 178.789062 268.351562 173.457031 267.34375 168.054688 267.613281 C 164.628906 267.78125 161.273438 268.484375 158.054688 269.15625 C 154.429688 269.925781 150.671875 270.699219 146.878906 270.699219 C 137.753906 270.699219 128.15625 266.875 121.210938 260.46875 C 116.8125 256.410156 114.832031 250.507812 112.921875 244.804688 C 112.652344 243.964844 112.382812 243.160156 112.082031 242.320312 C 110.101562 236.550781 107.953125 229.808594 107.921875 222.730469 C 107.886719 217.363281 108.929688 211.996094 111.109375 206.328125 C 114.230469 198.378906 120.671875 196.769531 127.519531 195.09375 C 132.347656 193.917969 137.347656 192.675781 141.878906 189.253906 C 144.597656 187.210938 147.113281 184.726562 149.765625 182.078125 C 151.074219 180.800781 152.414062 179.460938 153.792969 178.1875 C 174.5625 159 192.480469 156.214844 203.890625 157.253906 C 204.660156 157.320312 205.433594 157.390625 206.238281 157.457031 C 212.011719 157.925781 217.984375 158.394531 222.582031 162.019531 C 225.097656 163.964844 226.976562 166.613281 228.652344 168.929688 C 231.742188 173.222656 234.863281 177.617188 237.914062 182.042969 C 243.652344 190.363281 249.527344 199.285156 252.210938 208.746094 C 255.027344 218.539062 253.820312 228.972656 249.324219 234.101562 C 246.371094 237.425781 242.949219 238.429688 239.292969 239.46875 C 236.003906 240.410156 232.613281 241.382812 229.558594 244.234375 C 230.0625 250.40625 227.414062 256.8125 222.179688 262.28125 C 217.078125 267.578125 209.761719 270.902344 202.113281 271.402344 C 201.375 271.4375 200.601562 271.46875 199.828125 271.46875 Z M 169.964844 267.277344 C 174.730469 267.277344 179.460938 268.183594 184.023438 269.054688 L 185.300781 269.289062 C 191.070312 270.398438 196.507812 271.46875 202.144531 271.101562 C 209.730469 270.597656 216.976562 267.3125 222.011719 262.042969 C 227.246094 256.609375 229.828125 250.269531 229.324219 244.167969 L 229.460938 244.167969 L 229.359375 244.066406 C 232.445312 241.148438 235.902344 240.140625 239.257812 239.203125 C 242.882812 238.160156 246.304688 237.1875 249.191406 233.902344 C 253.652344 228.835938 254.828125 218.503906 252.042969 208.8125 C 249.359375 199.386719 243.519531 190.496094 237.78125 182.210938 C 234.726562 177.785156 231.605469 173.390625 228.519531 169.09375 C 226.84375 166.78125 224.964844 164.164062 222.480469 162.21875 C 217.949219 158.664062 212.011719 158.195312 206.273438 157.722656 C 205.46875 157.65625 204.695312 157.589844 203.921875 157.523438 C 192.582031 156.484375 174.730469 159.265625 154.027344 178.386719 C 152.652344 179.660156 151.308594 181.003906 150.035156 182.277344 C 147.382812 184.929688 144.867188 187.410156 142.113281 189.457031 C 137.515625 192.910156 132.515625 194.152344 127.652344 195.328125 C 120.605469 197.070312 114.496094 198.546875 111.445312 206.394531 C 109.261719 212.03125 108.222656 217.363281 108.257812 222.699219 C 108.324219 229.707031 110.4375 236.417969 112.417969 242.1875 C 112.6875 242.992188 112.988281 243.832031 113.257812 244.667969 C 115.167969 250.339844 117.117188 256.242188 121.476562 260.234375 C 128.390625 266.605469 137.917969 270.398438 146.980469 270.398438 C 150.738281 270.398438 154.296875 269.660156 158.085938 268.855469 C 161.339844 268.183594 164.664062 267.480469 168.121094 267.3125 C 168.691406 267.3125 169.328125 267.277344 169.964844 267.277344 Z M 194.898438 270.867188 C 190.402344 270.867188 185.9375 270.128906 181.273438 269.355469 L 179.863281 269.121094 C 175 268.316406 169.933594 267.480469 164.863281 267.679688 C 161.675781 267.8125 158.523438 268.351562 155.503906 268.855469 C 151.644531 269.523438 147.988281 270.128906 144.195312 269.996094 C 134.933594 269.558594 126.140625 265.769531 119.496094 259.328125 C 115 254.933594 113.222656 248.628906 111.476562 242.554688 C 111.175781 241.515625 110.875 240.441406 110.570312 239.402344 C 108.324219 232.058594 106.476562 225.382812 106.308594 218.335938 C 106.144531 212.265625 107.117188 206.328125 109.195312 200.625 C 112.25 192.007812 118.894531 190.796875 126.578125 189.421875 C 131.878906 188.449219 137.347656 187.476562 142.347656 183.921875 C 145.335938 181.773438 148.085938 179.089844 150.972656 176.207031 C 152.113281 175.101562 153.289062 173.925781 154.460938 172.820312 C 172.046875 156.28125 188.789062 148.433594 204.292969 149.507812 C 205.03125 149.574219 205.804688 149.605469 206.574219 149.640625 C 213.050781 150.042969 219.726562 150.445312 224.761719 154.539062 C 227.480469 156.75 229.460938 159.703125 231.238281 162.320312 C 234.492188 167.148438 237.78125 172.113281 240.96875 177.046875 C 247.3125 186.773438 253.183594 196.398438 255.765625 206.867188 C 258.484375 217.96875 256.40625 229.507812 250.699219 234.90625 C 246.941406 238.464844 242.648438 239.269531 238.082031 240.140625 C 233.988281 240.914062 229.761719 241.71875 225.9375 244.703125 C 225.902344 250.574219 223.050781 256.644531 217.847656 261.777344 C 212.78125 266.808594 205.636719 270.0625 198.21875 270.699219 C 197.078125 270.800781 195.972656 270.867188 194.898438 270.867188 Z M 166.507812 267.410156 C 171.039062 267.410156 175.535156 268.148438 179.898438 268.886719 L 181.308594 269.121094 C 187.078125 270.0625 192.546875 270.96875 198.117188 270.464844 C 205.46875 269.828125 212.546875 266.574219 217.582031 261.609375 C 222.75 256.511719 225.566406 250.472656 225.566406 244.636719 L 225.703125 244.636719 L 225.632812 244.535156 C 229.492188 241.484375 233.789062 240.675781 237.914062 239.90625 C 242.445312 239.066406 246.707031 238.230469 250.398438 234.742188 C 256.035156 229.40625 258.082031 218.003906 255.398438 206.964844 C 252.847656 196.535156 246.976562 186.941406 240.632812 177.246094 C 237.445312 172.316406 234.15625 167.386719 230.902344 162.519531 C 229.15625 159.9375 227.179688 156.988281 224.492188 154.804688 C 219.492188 150.746094 212.882812 150.34375 206.441406 149.941406 C 205.667969 149.910156 204.929688 149.839844 204.160156 149.808594 C 188.757812 148.734375 172.046875 156.550781 154.53125 173.054688 C 153.320312 174.195312 152.179688 175.335938 151.039062 176.441406 C 148.121094 179.328125 145.371094 182.042969 142.382812 184.191406 C 137.347656 187.78125 131.847656 188.785156 126.511719 189.726562 C 118.925781 191.101562 112.351562 192.273438 109.332031 200.761719 C 107.25 206.429688 106.308594 212.367188 106.445312 218.371094 C 106.613281 225.382812 108.492188 232.023438 110.707031 239.335938 C 111.007812 240.375 111.34375 241.449219 111.613281 242.488281 C 113.324219 248.527344 115.101562 254.800781 119.566406 259.160156 C 126.175781 265.566406 134.898438 269.355469 144.09375 269.761719 C 147.886719 269.894531 151.511719 269.257812 155.367188 268.621094 C 158.390625 268.082031 161.542969 267.546875 164.765625 267.410156 C 165.402344 267.410156 165.9375 267.410156 166.507812 267.410156 Z M 189.730469 270.296875 C 185.570312 270.296875 181.375 269.726562 177.046875 269.15625 C 176.476562 269.089844 175.9375 268.988281 175.367188 268.921875 C 170.90625 268.316406 166.273438 267.679688 161.644531 267.8125 C 158.691406 267.914062 155.769531 268.285156 152.984375 268.652344 C 149.027344 269.191406 145.300781 269.691406 141.441406 269.390625 C 132.585938 268.753906 123.691406 264.5625 117.6875 258.253906 C 113.15625 253.492188 111.511719 246.816406 109.933594 240.410156 C 109.597656 239.132812 109.296875 237.792969 108.929688 236.484375 L 108.691406 235.644531 C 106.8125 228.636719 104.867188 221.421875 104.53125 213.945312 C 104.230469 207.46875 105.101562 201.0625 107.117188 194.925781 C 110.136719 185.632812 117.25 184.761719 125.46875 183.71875 C 131.242188 182.984375 137.179688 182.246094 142.617188 178.554688 C 146.007812 176.273438 149.058594 173.222656 152.316406 170 C 153.1875 169.164062 154.058594 168.257812 154.964844 167.417969 C 163.757812 159 171.242188 153.128906 178.523438 148.9375 C 187.683594 143.667969 196.171875 141.320312 204.527344 141.757812 C 205.230469 141.792969 205.96875 141.824219 206.707031 141.859375 C 213.855469 142.160156 221.238281 142.496094 226.742188 147.089844 C 229.628906 149.507812 231.742188 152.828125 233.585938 155.746094 C 236.976562 161.113281 240.433594 166.613281 243.789062 172.082031 C 250.734375 183.386719 256.671875 193.648438 259.054688 205.054688 C 261.640625 217.464844 258.6875 230.078125 251.839844 235.746094 C 247.277344 239.503906 241.875 240.175781 236.640625 240.8125 C 231.742188 241.414062 226.675781 242.019531 222.109375 245.140625 C 221.539062 250.773438 218.417969 256.511719 213.351562 261.308594 C 208.253906 266.136719 201.441406 269.257812 194.160156 270.0625 C 192.648438 270.230469 191.171875 270.296875 189.730469 270.296875 Z M 162.953125 267.546875 C 167.148438 267.546875 171.339844 268.117188 175.367188 268.652344 C 175.9375 268.71875 176.476562 268.820312 177.046875 268.886719 C 182.917969 269.660156 188.453125 270.398438 194.09375 269.792969 C 201.304688 268.988281 208.050781 265.902344 213.117188 261.105469 C 218.183594 256.308594 221.273438 250.605469 221.808594 245.039062 L 221.941406 245.039062 L 221.875 244.9375 C 226.507812 241.75 231.605469 241.148438 236.574219 240.542969 C 242.007812 239.871094 247.144531 239.234375 251.640625 235.546875 C 258.417969 229.945312 261.335938 217.433594 258.789062 205.121094 C 256.40625 193.75 250.5 183.519531 243.554688 172.25 C 240.199219 166.78125 236.773438 161.28125 233.351562 155.914062 C 231.507812 152.996094 229.425781 149.707031 226.574219 147.324219 C 221.136719 142.765625 213.789062 142.460938 206.675781 142.125 C 205.9375 142.09375 205.230469 142.058594 204.496094 142.027344 C 196.207031 141.625 187.75 143.9375 178.65625 149.171875 C 171.375 153.363281 163.925781 159.199219 155.132812 167.621094 C 154.226562 168.492188 153.355469 169.363281 152.484375 170.203125 C 149.226562 173.457031 146.140625 176.507812 142.71875 178.789062 C 137.25 182.511719 130.972656 183.285156 125.4375 183.988281 C 117.316406 184.996094 110.269531 185.902344 107.285156 195.023438 C 105.269531 201.164062 104.398438 207.535156 104.699219 213.976562 C 105 221.390625 106.949219 228.636719 108.828125 235.613281 L 109.0625 236.449219 C 109.398438 237.757812 109.734375 239.066406 110.070312 240.375 C 111.644531 246.78125 113.289062 253.390625 117.753906 258.121094 C 123.726562 264.394531 132.515625 268.519531 141.34375 269.191406 C 145.167969 269.457031 148.890625 268.953125 152.820312 268.453125 C 155.636719 268.082031 158.523438 267.679688 161.507812 267.613281 C 162.046875 267.546875 162.515625 267.546875 162.953125 267.546875 Z M 184.261719 269.761719 C 180.871094 269.761719 177.347656 269.457031 173.421875 269.054688 C 172.515625 268.953125 171.609375 268.855469 170.703125 268.753906 C 166.675781 268.316406 162.515625 267.882812 158.355469 267.949219 C 155.738281 267.980469 153.121094 268.25 150.636719 268.484375 C 146.511719 268.886719 142.617188 269.257812 138.625 268.789062 C 129.933594 267.78125 121.410156 263.453125 115.839844 257.179688 C 111.242188 252.015625 109.734375 244.9375 108.257812 238.09375 C 107.953125 236.617188 107.617188 235.074219 107.25 233.601562 C 107.046875 232.695312 106.8125 231.789062 106.578125 230.847656 C 104.902344 223.972656 103.191406 216.828125 102.753906 209.582031 C 102.285156 202.707031 103.054688 195.828125 105.035156 189.222656 C 108.023438 179.257812 115.605469 178.6875 124.363281 177.984375 C 130.300781 177.515625 137.046875 176.976562 142.917969 173.1875 C 146.710938 170.773438 150.167969 167.316406 153.824219 163.695312 C 154.394531 163.125 154.964844 162.554688 155.535156 161.984375 C 169.730469 148.097656 186.40625 133.339844 204.828125 133.910156 C 205.46875 133.941406 206.105469 133.941406 206.777344 133.976562 C 214.660156 134.175781 222.816406 134.410156 228.820312 139.542969 C 231.910156 142.195312 234.089844 145.851562 236.035156 149.070312 C 239.59375 155.007812 243.183594 161.046875 246.707031 167.015625 C 253.988281 179.425781 260.195312 190.730469 262.445312 203.109375 C 264.929688 216.828125 261.035156 230.546875 253.050781 236.449219 C 247.679688 240.441406 241.371094 240.914062 235.265625 241.347656 C 229.558594 241.785156 223.65625 242.21875 218.351562 245.472656 C 217.246094 250.839844 213.890625 256.242188 208.890625 260.738281 C 203.589844 265.398438 197.113281 268.351562 190.132812 269.289062 C 188.152344 269.660156 186.207031 269.761719 184.261719 269.761719 Z M 159.328125 267.679688 C 163.1875 267.679688 167.011719 268.082031 170.703125 268.484375 C 171.609375 268.585938 172.515625 268.6875 173.421875 268.789062 C 179.597656 269.425781 184.761719 269.828125 190.066406 269.121094 C 196.976562 268.183594 203.421875 265.265625 208.65625 260.636719 C 213.621094 256.175781 216.941406 250.808594 218.050781 245.472656 L 218.183594 245.507812 L 218.117188 245.375 C 223.488281 242.085938 229.425781 241.617188 235.164062 241.214844 C 241.507812 240.746094 247.511719 240.273438 252.8125 236.351562 C 260.734375 230.480469 264.558594 216.894531 262.109375 203.242188 C 259.894531 190.898438 253.6875 179.628906 246.40625 167.21875 C 242.882812 161.214844 239.292969 155.175781 235.734375 149.269531 C 233.820312 146.085938 231.640625 142.460938 228.585938 139.8125 C 222.648438 134.714844 214.5625 134.511719 206.707031 134.277344 C 206.070312 134.242188 205.398438 134.242188 204.761719 134.210938 C 186.476562 133.640625 169.832031 148.367188 155.671875 162.1875 C 155.101562 162.757812 154.53125 163.328125 153.960938 163.863281 C 150.300781 167.519531 146.84375 170.972656 143.019531 173.390625 C 137.082031 177.214844 130.300781 177.75 124.363281 178.21875 C 115.707031 178.890625 108.191406 179.496094 105.269531 189.253906 C 103.324219 195.828125 102.550781 202.671875 102.988281 209.515625 C 103.390625 216.761719 105.136719 223.871094 106.78125 230.75 C 107.015625 231.65625 107.214844 232.558594 107.453125 233.5 C 107.820312 234.976562 108.121094 236.519531 108.457031 237.996094 C 109.933594 244.804688 111.445312 251.847656 115.972656 256.945312 C 121.511719 263.152344 129.96875 267.480469 138.589844 268.453125 C 142.550781 268.886719 146.441406 268.519531 150.535156 268.148438 C 153.054688 267.914062 155.636719 267.648438 158.289062 267.613281 C 158.691406 267.679688 158.992188 267.679688 159.328125 267.679688 Z M 178.1875 269.289062 C 175.402344 269.289062 172.617188 269.121094 169.796875 268.921875 C 168.457031 268.820312 167.078125 268.71875 165.769531 268.621094 C 162.28125 268.351562 158.691406 268.050781 155.101562 268.050781 C 152.851562 268.050781 150.636719 268.183594 148.488281 268.316406 C 144.128906 268.550781 140.035156 268.820312 135.839844 268.148438 C 127.25 266.808594 119.261719 262.414062 113.996094 256.109375 C 109.332031 250.507812 107.921875 242.992188 106.578125 235.746094 C 106.277344 234.101562 105.941406 232.390625 105.605469 230.714844 C 105.269531 229.171875 104.933594 227.59375 104.566406 226.019531 C 103.054688 219.277344 101.511719 212.265625 101.007812 205.222656 C 100.4375 197.441406 101.109375 190.363281 102.988281 183.554688 C 105.941406 172.917969 113.996094 172.652344 123.289062 172.28125 C 129.664062 172.046875 136.914062 171.777344 143.253906 167.886719 C 147.484375 165.339844 151.273438 161.480469 155.335938 157.421875 L 156.105469 156.652344 C 170.433594 142.363281 186.675781 126.226562 204.730469 126.226562 C 204.863281 126.226562 204.996094 126.226562 205.132812 126.226562 C 205.667969 126.226562 206.171875 126.226562 206.707031 126.261719 C 215.398438 126.359375 224.359375 126.460938 230.867188 132.164062 C 234.15625 135.050781 236.4375 139.007812 238.453125 142.527344 C 242.144531 148.96875 245.902344 155.578125 249.59375 162.117188 C 257.210938 175.636719 263.6875 187.914062 265.800781 201.363281 C 266.90625 208.375 266.4375 215.722656 264.523438 222.09375 C 262.476562 228.9375 258.921875 234.203125 254.222656 237.390625 C 248.050781 241.582031 240.800781 241.886719 233.855469 242.152344 C 227.34375 242.421875 220.632812 242.691406 214.5625 246.042969 C 212.882812 251.144531 209.257812 256.207031 204.425781 260.367188 C 199.191406 264.761719 192.851562 267.648438 186.105469 268.753906 C 183.488281 269.121094 180.835938 269.289062 178.1875 269.289062 Z M 155.503906 267.78125 C 158.960938 267.78125 162.449219 268.050781 165.804688 268.351562 C 167.113281 268.453125 168.488281 268.585938 169.832031 268.652344 C 175.335938 269.023438 180.703125 269.289062 186.070312 268.453125 C 192.785156 267.378906 199.058594 264.492188 204.257812 260.132812 C 209.089844 256.007812 212.683594 250.941406 214.359375 245.875 L 214.492188 245.910156 L 214.425781 245.777344 C 220.535156 242.355469 227.3125 242.085938 233.855469 241.816406 C 241.101562 241.515625 247.980469 241.246094 254.089844 237.121094 C 258.71875 233.96875 262.242188 228.734375 264.289062 221.960938 C 266.167969 215.652344 266.640625 208.339844 265.53125 201.363281 C 263.453125 187.980469 256.976562 175.703125 249.359375 162.21875 C 245.667969 155.679688 241.941406 149.105469 238.21875 142.664062 C 236.203125 139.175781 233.957031 135.214844 230.699219 132.367188 C 224.257812 126.695312 215.332031 126.597656 206.707031 126.527344 C 206.171875 126.527344 205.667969 126.527344 205.132812 126.496094 C 187.046875 126.261719 170.703125 142.496094 156.308594 156.851562 L 155.535156 157.625 C 151.476562 161.714844 147.652344 165.539062 143.421875 168.121094 C 137.015625 172.046875 129.765625 172.316406 123.324219 172.550781 C 114.128906 172.886719 106.175781 173.1875 103.257812 183.621094 C 101.378906 190.394531 100.738281 197.472656 101.277344 205.1875 C 101.78125 212.234375 103.324219 219.210938 104.800781 225.953125 C 105.136719 227.527344 105.503906 229.070312 105.839844 230.648438 C 106.210938 232.292969 106.511719 234.003906 106.8125 235.679688 C 108.15625 242.890625 109.566406 250.371094 114.195312 255.941406 C 119.429688 262.210938 127.316406 266.574219 135.871094 267.914062 C 140.035156 268.550781 144.128906 268.316406 148.457031 268.082031 C 150.605469 267.949219 152.851562 267.8125 155.101562 267.8125 C 155.234375 267.78125 155.367188 267.78125 155.503906 267.78125 Z M 171.242188 268.886719 C 169.664062 268.886719 167.984375 268.855469 166.242188 268.789062 C 164.328125 268.71875 162.382812 268.621094 160.46875 268.484375 C 157.652344 268.316406 154.765625 268.148438 151.878906 268.148438 C 150.101562 268.148438 148.355469 268.183594 146.679688 268.21875 C 141.980469 268.316406 137.550781 268.417969 133.121094 267.511719 C 124.765625 265.800781 117.148438 261.273438 112.25 255 C 107.484375 248.929688 106.210938 240.980469 104.933594 233.265625 C 104.632812 231.488281 104.332031 229.609375 103.996094 227.796875 C 103.558594 225.515625 103.089844 223.203125 102.621094 220.953125 C 101.277344 214.414062 99.867188 207.605469 99.332031 200.863281 C 98.625 192.441406 99.195312 184.929688 101.007812 177.882812 C 103.929688 166.613281 112.417969 166.613281 122.25 166.578125 C 129.0625 166.578125 136.8125 166.546875 143.625 162.554688 C 148.320312 159.804688 152.75 155.277344 156.675781 151.285156 C 157.886719 150.078125 159.058594 148.835938 160.269531 147.628906 C 174.261719 133.339844 188.722656 118.546875 205.398438 118.476562 L 206.507812 118.476562 C 215.566406 118.445312 225.835938 118.378906 232.914062 124.71875 C 236.40625 127.835938 238.789062 132.164062 240.867188 135.953125 C 244.726562 142.933594 248.621094 150.078125 252.480469 157.152344 C 258.988281 169.128906 267.074219 184.023438 269.15625 199.519531 C 270.195312 207.101562 269.492188 215.050781 267.242188 221.859375 C 264.792969 229.207031 260.734375 234.875 255.429688 238.195312 C 248.417969 242.589844 240.296875 242.691406 232.445312 242.789062 C 225.164062 242.890625 217.613281 242.957031 210.835938 246.445312 C 208.554688 251.34375 204.796875 255.972656 199.996094 259.863281 C 194.832031 263.992188 188.621094 266.808594 182.144531 268.050781 C 178.621094 268.6875 175.097656 268.886719 171.242188 268.886719 Z M 151.140625 267.882812 C 151.375 267.882812 151.644531 267.882812 151.878906 267.882812 C 154.765625 267.914062 157.683594 268.082031 160.503906 268.21875 C 162.382812 268.316406 164.363281 268.453125 166.242188 268.519531 C 172.179688 268.71875 177.144531 268.652344 182.046875 267.746094 C 188.523438 266.539062 194.664062 263.722656 199.796875 259.628906 C 204.59375 255.773438 208.320312 251.144531 210.601562 246.28125 L 210.667969 246.3125 L 210.636719 246.210938 C 217.480469 242.691406 225.097656 242.589844 232.445312 242.488281 C 240.265625 242.386719 248.351562 242.289062 255.296875 237.925781 C 260.53125 234.640625 264.59375 229.003906 267.007812 221.726562 C 269.257812 214.949219 269.925781 207.066406 268.921875 199.519531 C 266.839844 184.054688 258.753906 169.195312 252.277344 157.222656 C 248.417969 150.144531 244.527344 143 240.667969 136.023438 C 238.484375 132.03125 236.203125 127.9375 232.75 124.851562 C 225.769531 118.613281 215.535156 118.644531 206.507812 118.679688 L 205.398438 118.679688 C 188.824219 118.746094 174.394531 133.472656 160.4375 147.726562 C 159.226562 148.96875 158.019531 150.175781 156.84375 151.382812 C 152.917969 155.410156 148.457031 159.9375 143.726562 162.722656 C 136.878906 166.746094 129.09375 166.746094 122.25 166.78125 C 112.519531 166.78125 104.128906 166.816406 101.242188 177.882812 C 99.429688 184.894531 98.894531 192.410156 99.566406 200.792969 C 100.101562 207.535156 101.511719 214.3125 102.855469 220.886719 C 103.324219 223.132812 103.792969 225.480469 104.230469 227.730469 C 104.566406 229.542969 104.867188 231.417969 105.167969 233.199219 C 106.410156 240.84375 107.71875 248.796875 112.417969 254.800781 C 117.28125 261.003906 124.832031 265.535156 133.121094 267.210938 C 137.550781 268.082031 141.945312 268.015625 146.644531 267.914062 C 148.121094 267.914062 149.628906 267.882812 151.140625 267.882812 Z M 161.746094 268.6875 C 159.261719 268.6875 156.675781 268.585938 154.195312 268.484375 C 152.382812 268.417969 150.503906 268.316406 148.625 268.285156 C 147.550781 268.25 146.511719 268.25 145.4375 268.25 C 140.167969 268.183594 135.203125 268.148438 130.300781 266.910156 C 122.214844 264.894531 114.96875 260.167969 110.402344 253.960938 C 105.570312 247.421875 104.398438 239 103.222656 230.847656 C 102.953125 228.902344 102.652344 226.890625 102.316406 224.945312 C 101.8125 221.960938 101.210938 218.90625 100.640625 215.921875 C 99.398438 209.582031 98.15625 203.007812 97.550781 196.5 C 96.714844 187.476562 97.148438 179.527344 98.929688 172.183594 C 101.8125 160.238281 110.773438 160.507812 121.175781 160.808594 C 128.421875 161.046875 136.679688 161.28125 143.925781 157.222656 C 148.726562 154.539062 153.121094 150.144531 157.214844 145.882812 C 159.328125 143.703125 161.507812 141.390625 163.589844 139.175781 C 176.609375 125.320312 190.066406 111 205.703125 110.695312 L 206.207031 110.695312 C 216.105469 110.496094 227.3125 110.261719 234.960938 117.238281 C 238.652344 120.558594 241.101562 125.222656 243.316406 129.347656 C 247.34375 136.925781 251.40625 144.609375 255.363281 152.15625 C 262.476562 165.707031 270.566406 181.070312 272.511719 197.675781 C 273.484375 205.824219 272.546875 214.347656 269.960938 221.625 C 267.140625 229.507812 262.546875 235.511719 256.640625 239 C 248.820312 243.597656 239.792969 243.527344 231.070312 243.429688 C 222.984375 243.359375 214.59375 243.261719 207.042969 246.882812 C 203.992188 251.746094 200.132812 255.941406 195.535156 259.394531 C 190.332031 263.320312 184.460938 266.003906 178.085938 267.378906 C 173.355469 268.382812 168.65625 268.652344 162.617188 268.71875 C 162.347656 268.6875 162.046875 268.6875 161.746094 268.6875 Z M 116.476562 160.976562 C 108.289062 160.976562 101.613281 162.351562 99.230469 172.25 C 97.484375 179.527344 97.015625 187.476562 97.855469 196.46875 C 98.457031 202.976562 99.699219 209.515625 100.941406 215.855469 C 101.511719 218.808594 102.117188 221.894531 102.621094 224.878906 C 102.953125 226.824219 103.222656 228.835938 103.523438 230.78125 C 104.667969 238.898438 105.875 247.285156 110.671875 253.757812 C 115.203125 259.929688 122.417969 264.59375 130.4375 266.605469 C 135.300781 267.8125 140.269531 267.882812 145.503906 267.949219 C 146.542969 267.949219 147.617188 267.980469 148.691406 267.980469 C 150.535156 268.015625 152.414062 268.117188 154.261719 268.183594 C 157.046875 268.316406 159.933594 268.417969 162.683594 268.382812 C 168.722656 268.316406 173.386719 268.082031 178.085938 267.078125 C 184.429688 265.699219 190.234375 263.019531 195.433594 259.125 C 199.996094 255.707031 203.855469 251.511719 206.910156 246.683594 L 206.945312 246.648438 L 206.976562 246.648438 C 214.59375 242.992188 223.015625 243.058594 231.136719 243.160156 C 239.828125 243.261719 248.820312 243.328125 256.574219 238.765625 C 262.410156 235.3125 266.976562 229.339844 269.792969 221.523438 C 272.378906 214.277344 273.285156 205.824219 272.34375 197.707031 C 270.398438 181.171875 262.34375 165.808594 255.230469 152.289062 C 251.269531 144.742188 247.210938 137.09375 243.183594 129.480469 C 241.003906 125.386719 238.554688 120.757812 234.894531 117.4375 C 227.3125 110.5625 216.171875 110.761719 206.304688 110.964844 L 205.804688 110.964844 C 190.265625 111.265625 176.878906 125.554688 163.890625 139.34375 C 161.8125 141.554688 159.628906 143.871094 157.515625 146.050781 C 153.390625 150.3125 148.992188 154.707031 144.160156 157.421875 C 136.847656 161.515625 128.558594 161.28125 121.277344 161.046875 C 119.566406 161.046875 117.988281 160.976562 116.476562 160.976562 Z M 155.300781 268.6875 C 152.28125 268.6875 149.195312 268.585938 146.207031 268.453125 L 145.335938 268.417969 C 139.09375 268.183594 133.222656 267.980469 127.550781 266.269531 C 119.632812 263.890625 112.921875 259.125 108.59375 252.855469 C 103.691406 245.742188 102.585938 236.820312 101.511719 228.164062 C 101.242188 226.152344 101.007812 224.039062 100.707031 222.027344 C 100.136719 218.335938 99.464844 214.582031 98.792969 210.957031 C 97.652344 204.785156 96.480469 198.414062 95.875 192.105469 C 94.867188 182.3125 95.171875 174.195312 96.914062 166.480469 C 99.765625 153.867188 109.195312 154.402344 120.136719 155.039062 C 127.851562 155.476562 136.578125 156.015625 144.296875 151.855469 C 149.195312 149.238281 153.691406 144.84375 157.816406 140.484375 C 160.636719 137.53125 163.488281 134.34375 166.242188 131.257812 C 178.488281 117.574219 191.140625 103.449219 206.003906 102.914062 C 216.675781 102.546875 228.753906 102.109375 237.042969 109.722656 C 240.9375 113.3125 243.484375 118.3125 245.769531 122.671875 C 249.960938 130.789062 254.15625 139.007812 258.285156 147.089844 C 265.699219 161.617188 274.121094 178.085938 275.902344 195.761719 C 276.804688 204.519531 275.664062 213.609375 272.679688 221.324219 C 269.457031 229.742188 264.324219 236.117188 257.847656 239.738281 C 249.191406 244.570312 239.257812 244.300781 229.660156 244.03125 C 220.769531 243.796875 211.574219 243.527344 203.320312 247.253906 C 199.796875 251.679688 195.703125 255.605469 191.105469 258.859375 C 185.9375 262.515625 180.234375 265.132812 174.125 266.675781 C 169.832031 267.714844 165.199219 268.316406 159.09375 268.550781 C 157.816406 268.652344 156.578125 268.6875 155.300781 268.6875 Z M 113.390625 155.074219 C 105.570312 155.074219 99.363281 156.820312 97.148438 166.546875 C 95.40625 174.195312 95.070312 182.3125 96.109375 192.074219 C 96.746094 198.378906 97.921875 204.753906 99.027344 210.925781 C 99.699219 214.582031 100.371094 218.335938 100.941406 221.992188 C 101.242188 224.007812 101.511719 226.121094 101.746094 228.132812 C 102.820312 236.753906 103.929688 245.675781 108.792969 252.71875 C 113.089844 258.925781 119.765625 263.65625 127.617188 266.035156 C 133.253906 267.746094 139.128906 267.949219 145.335938 268.148438 L 146.207031 268.183594 C 150.46875 268.351562 154.867188 268.484375 159.058594 268.351562 C 165.167969 268.082031 169.796875 267.511719 174.058594 266.472656 C 180.132812 264.964844 185.835938 262.347656 190.972656 258.722656 C 195.570312 255.46875 199.664062 251.578125 203.152344 247.152344 L 203.253906 247.253906 L 203.183594 247.117188 C 211.539062 243.328125 220.769531 243.597656 229.695312 243.863281 C 239.257812 244.132812 249.191406 244.402344 257.746094 239.605469 C 264.191406 235.980469 269.289062 229.675781 272.476562 221.324219 C 275.429688 213.609375 276.570312 204.585938 275.664062 195.863281 C 273.886719 178.253906 265.464844 161.816406 258.082031 147.292969 C 253.957031 139.207031 249.726562 130.988281 245.566406 122.871094 C 243.316406 118.511719 240.769531 113.546875 236.910156 109.992188 C 228.722656 102.445312 216.675781 102.878906 206.070312 103.25 C 191.308594 103.785156 178.691406 117.875 166.507812 131.492188 C 163.757812 134.578125 160.871094 137.765625 158.054688 140.71875 C 153.890625 145.078125 149.363281 149.507812 144.464844 152.121094 C 136.679688 156.316406 127.921875 155.777344 120.167969 155.34375 C 117.785156 155.207031 115.539062 155.074219 113.390625 155.074219 Z M 148.421875 268.71875 C 146.34375 268.71875 144.226562 268.652344 142.148438 268.519531 C 136.8125 268.25 130.539062 267.679688 124.800781 265.632812 C 117.214844 262.917969 110.808594 257.984375 106.8125 251.746094 C 101.882812 244.097656 100.839844 234.671875 99.835938 225.515625 C 99.597656 223.402344 99.363281 221.222656 99.0625 219.109375 C 98.457031 214.613281 97.621094 209.984375 96.847656 205.523438 C 95.808594 199.6875 94.765625 193.648438 94.097656 187.710938 C 92.921875 177.246094 93.191406 168.691406 94.867188 160.777344 C 97.6875 147.492188 107.585938 148.332031 119.0625 149.269531 C 127.214844 149.941406 136.445312 150.714844 144.632812 146.519531 C 149.898438 143.804688 154.765625 139.007812 158.390625 135.117188 C 161.746094 131.527344 165.132812 127.535156 168.421875 123.675781 C 180.03125 110.027344 192.046875 95.902344 206.304688 95.164062 C 216.371094 94.664062 230.164062 93.957031 239.089844 102.277344 C 243.148438 106.066406 245.699219 111.164062 248.183594 116.097656 C 252.445312 124.652344 256.839844 133.40625 261.167969 142.125 C 268.886719 157.625 277.613281 175.199219 279.257812 193.917969 C 280.0625 203.242188 278.71875 212.902344 275.398438 221.121094 C 271.808594 230.078125 266.136719 236.785156 259.054688 240.578125 C 249.59375 245.609375 238.753906 245.140625 228.25 244.703125 C 218.554688 244.300781 208.554688 243.863281 199.527344 247.6875 C 195.601562 251.679688 191.273438 255.269531 186.609375 258.355469 C 181.476562 261.742188 175.90625 264.292969 170 265.96875 C 165.234375 267.242188 160.300781 268.082031 155.367188 268.417969 C 153.121094 268.652344 150.773438 268.71875 148.421875 268.71875 Z M 110.808594 149.105469 C 103.191406 149.105469 97.183594 151.117188 95.136719 160.878906 C 93.457031 168.761719 93.222656 177.28125 94.363281 187.746094 C 95.035156 193.683594 96.074219 199.722656 97.117188 205.558594 C 97.886719 210.019531 98.726562 214.648438 99.332031 219.144531 C 99.632812 221.257812 99.867188 223.4375 100.101562 225.550781 C 101.109375 234.640625 102.148438 244.066406 107.046875 251.644531 C 111.042969 257.820312 117.382812 262.714844 124.898438 265.398438 C 130.605469 267.445312 136.847656 267.980469 142.179688 268.285156 C 146.578125 268.550781 151.039062 268.550781 155.4375 268.25 C 160.335938 267.914062 165.269531 267.078125 170 265.800781 C 175.871094 264.15625 181.441406 261.609375 186.542969 258.222656 C 191.171875 255.136719 195.5 251.546875 199.425781 247.554688 L 199.496094 247.621094 L 199.460938 247.519531 C 208.554688 243.628906 218.585938 244.066406 228.320312 244.46875 C 238.789062 244.9375 249.59375 245.375 258.988281 240.375 C 266.035156 236.617188 271.640625 229.910156 275.230469 221.054688 C 278.519531 212.902344 279.894531 203.277344 279.054688 193.984375 C 277.410156 175.300781 268.6875 157.757812 260.96875 142.292969 C 256.640625 133.574219 252.242188 124.816406 247.980469 116.265625 C 245.53125 111.367188 242.984375 106.269531 238.957031 102.511719 C 230.128906 94.261719 216.40625 94.964844 206.375 95.46875 C 192.210938 96.171875 180.234375 110.261719 168.65625 123.878906 C 165.367188 127.738281 161.980469 131.726562 158.625 135.316406 C 154.964844 139.207031 150.101562 144.039062 144.765625 146.789062 C 136.511719 151.015625 127.25 150.246094 119.0625 149.574219 C 116.175781 149.339844 113.390625 149.105469 110.808594 149.105469 Z M 143.894531 268.820312 C 142.214844 268.820312 140.570312 268.753906 138.925781 268.652344 C 132.382812 268.21875 126.847656 267.007812 122.046875 265.03125 C 114.699219 261.945312 108.792969 256.980469 105.035156 250.707031 C 100.101562 242.523438 99.128906 232.558594 98.191406 222.898438 C 97.988281 220.71875 97.753906 218.4375 97.484375 216.257812 C 96.847656 210.925781 95.90625 205.457031 95.003906 200.191406 C 94.0625 194.6875 93.089844 188.988281 92.417969 183.386719 C 91.109375 172.25 91.242188 163.292969 92.855469 155.140625 C 95.640625 141.1875 106.007812 142.292969 118.019531 143.570312 C 126.613281 144.476562 136.34375 145.515625 144.964844 141.253906 C 149.296875 139.109375 153.757812 135.484375 158.960938 129.78125 C 162.785156 125.65625 166.578125 120.925781 170.265625 116.363281 C 181.375 102.613281 192.816406 88.390625 206.640625 87.484375 C 219.292969 86.644531 232.34375 86.546875 241.171875 94.863281 C 245.433594 98.890625 248.183594 104.558594 250.632812 109.554688 C 255.128906 118.78125 259.660156 128.070312 264.121094 137.195312 C 272.109375 153.632812 281.203125 172.28125 282.710938 192.140625 C 283.449219 202.070312 281.875 212.300781 278.214844 220.953125 C 274.222656 230.414062 268.046875 237.523438 260.363281 241.484375 C 250.097656 246.75 238.316406 246.078125 226.941406 245.441406 C 216.441406 244.835938 205.601562 244.234375 195.835938 248.226562 C 191.542969 251.746094 186.976562 255.035156 182.28125 257.953125 C 177.214844 261.070312 171.8125 263.554688 166.140625 265.367188 C 161.507812 266.773438 156.746094 267.8125 151.914062 268.351562 C 149.226562 268.652344 146.578125 268.820312 143.894531 268.820312 Z M 108.355469 143.097656 C 106.074219 143.097656 103.929688 143.300781 102.015625 143.871094 C 97.183594 145.28125 94.363281 148.867188 93.089844 155.175781 C 91.480469 163.292969 91.3125 172.25 92.652344 183.351562 C 93.324219 188.953125 94.296875 194.621094 95.238281 200.125 C 96.144531 205.390625 97.082031 210.855469 97.71875 216.222656 C 97.988281 218.4375 98.222656 220.6875 98.425781 222.867188 C 99.363281 232.460938 100.335938 242.386719 105.238281 250.539062 C 108.996094 256.777344 114.832031 261.710938 122.148438 264.761719 C 126.914062 266.742188 132.417969 267.949219 138.960938 268.382812 C 143.253906 268.6875 147.582031 268.585938 151.84375 268.117188 C 156.644531 267.546875 161.410156 266.539062 166.007812 265.132812 C 171.644531 263.320312 177.046875 260.835938 182.078125 257.75 C 186.777344 254.800781 191.375 251.546875 195.636719 247.988281 L 195.734375 248.089844 L 195.703125 247.988281 C 205.535156 243.964844 216.40625 244.601562 226.941406 245.171875 C 238.285156 245.808594 249.996094 246.480469 260.230469 241.246094 C 267.878906 237.324219 273.988281 230.277344 277.980469 220.851562 C 281.605469 212.234375 283.214844 202.035156 282.476562 192.171875 C 280.96875 172.382812 271.90625 153.765625 263.921875 137.328125 C 259.492188 128.207031 254.960938 118.914062 250.433594 109.691406 C 248.015625 104.726562 245.265625 99.089844 241.035156 95.066406 C 232.277344 86.8125 219.257812 86.914062 206.707031 87.753906 C 193.019531 88.660156 181.574219 102.847656 170.535156 116.53125 C 166.84375 121.09375 163.054688 125.824219 159.226562 129.949219 C 153.960938 135.652344 149.496094 139.308594 145.132812 141.457031 C 136.445312 145.75 126.679688 144.710938 118.054688 143.804688 C 114.632812 143.433594 111.34375 143.097656 108.355469 143.097656 Z M 139.964844 268.953125 C 133.992188 268.953125 128.089844 267.914062 122.6875 265.867188 C 114.0625 262.582031 107.316406 256.945312 103.191406 249.601562 C 98.257812 240.8125 97.351562 230.277344 96.445312 220.148438 C 96.242188 217.902344 96.042969 215.621094 95.808594 213.375 C 95.136719 207.132812 94.0625 200.792969 93.054688 194.6875 C 90.574219 179.796875 87.988281 164.398438 90.808594 149.472656 C 93.59375 134.847656 104.429688 136.222656 116.980469 137.800781 C 126.007812 138.941406 136.207031 140.214844 145.300781 135.921875 C 154.898438 131.359375 163.523438 120.089844 171.84375 109.1875 C 182.515625 95.199219 193.523438 80.777344 206.945312 79.703125 C 219.5625 78.695312 233.789062 78.359375 243.25 87.382812 C 247.746094 91.675781 250.601562 97.648438 253.082031 102.949219 L 267.007812 132.199219 C 275.296875 149.640625 284.691406 169.398438 286.066406 190.261719 C 286.738281 200.761719 284.925781 211.5625 280.933594 220.6875 C 276.539062 230.679688 269.859375 238.128906 261.574219 242.253906 C 250.464844 247.753906 237.78125 246.882812 225.535156 246.078125 C 214.257812 245.304688 202.582031 244.535156 192.078125 248.628906 C 178.421875 257.652344 165.703125 265.332031 148.289062 268.25 C 145.535156 268.71875 142.75 268.953125 139.964844 268.953125 Z M 106.109375 137.0625 C 103.996094 137.0625 102.015625 137.261719 100.238281 137.734375 C 95.203125 139.140625 92.285156 142.863281 91.042969 149.4375 C 88.222656 164.332031 90.808594 179.695312 93.289062 194.589844 C 94.332031 200.726562 95.371094 207.066406 96.042969 213.304688 C 96.277344 215.554688 96.480469 217.867188 96.679688 220.082031 C 97.550781 230.210938 98.492188 240.675781 103.390625 249.433594 C 107.484375 256.746094 114.195312 262.3125 122.753906 265.566406 C 130.605469 268.550781 139.632812 269.390625 148.1875 267.949219 C 165.570312 265.03125 178.253906 257.347656 191.878906 248.359375 L 191.945312 248.492188 L 191.878906 248.359375 C 202.449219 244.234375 214.160156 245.003906 225.464844 245.777344 C 237.679688 246.613281 250.332031 247.453125 261.371094 241.984375 C 269.59375 237.894531 276.269531 230.515625 280.632812 220.550781 C 284.625 211.460938 286.4375 200.695312 285.765625 190.226562 C 284.421875 169.429688 275.027344 149.675781 266.738281 132.265625 L 252.8125 103.015625 C 250.332031 97.75 247.480469 91.8125 243.015625 87.550781 C 233.6875 78.628906 219.527344 78.964844 206.976562 79.96875 C 193.65625 81.042969 182.683594 95.402344 172.078125 109.320312 C 163.722656 120.257812 155.101562 131.558594 145.4375 136.15625 C 136.277344 140.484375 126.007812 139.207031 116.949219 138.066406 C 113.121094 137.53125 109.429688 137.0625 106.109375 137.0625 Z M 106.109375 137.0625 " fill-opacity="1" fill-rule="nonzero"/></g><g fill="rgb(100%, 100%, 100%)" fill-opacity="1"><g transform="translate(167.483857, 230.541628)"><g><path d="M 3.65625 -3.984375 C 4.125 -4.929688 4.613281 -5.992188 5.125 -7.171875 C 5.632812 -8.359375 6.109375 -9.644531 6.546875 -11.03125 L 8.03125 -14.625 C 7.375 -15.613281 6.707031 -16.679688 6.03125 -17.828125 C 5.351562 -18.972656 4.742188 -20.144531 4.203125 -21.34375 C 3.660156 -22.539062 3.210938 -23.738281 2.859375 -24.9375 C 2.515625 -26.144531 2.34375 -27.3125 2.34375 -28.4375 C 2.34375 -28.507812 2.625 -28.570312 3.1875 -28.625 C 3.757812 -28.6875 4.472656 -28.734375 5.328125 -28.765625 C 6.179688 -28.804688 7.109375 -28.832031 8.109375 -28.84375 C 9.109375 -28.863281 10.035156 -28.882812 10.890625 -28.90625 C 11.742188 -28.925781 12.453125 -28.941406 13.015625 -28.953125 C 13.578125 -28.972656 13.859375 -28.984375 13.859375 -28.984375 C 14.703125 -31.171875 15.519531 -33.242188 16.3125 -35.203125 C 17.113281 -37.171875 17.914062 -39.15625 18.71875 -41.15625 C 19.519531 -43.15625 20.320312 -45.203125 21.125 -47.296875 C 21.925781 -49.390625 22.726562 -51.640625 23.53125 -54.046875 C 25.050781 -58.554688 26.539062 -62.519531 28 -65.9375 C 29.457031 -69.363281 30.820312 -72.550781 32.09375 -75.5 C 32.238281 -75.863281 32.484375 -76.195312 32.828125 -76.5 C 33.179688 -76.8125 33.554688 -77.078125 33.953125 -77.296875 C 34.347656 -77.515625 34.738281 -77.695312 35.125 -77.84375 C 35.507812 -77.988281 35.8125 -78.097656 36.03125 -78.171875 C 36.175781 -78.203125 36.726562 -78.363281 37.6875 -78.65625 C 38.65625 -78.945312 39.757812 -79.253906 41 -79.578125 C 42.238281 -79.910156 43.46875 -80.203125 44.6875 -80.453125 C 45.90625 -80.710938 46.875 -80.84375 47.59375 -80.84375 L 48.578125 -80.84375 C 49.160156 -80.84375 49.71875 -80.707031 50.25 -80.4375 C 50.78125 -80.164062 51.132812 -79.628906 51.3125 -78.828125 C 53.0625 -74.347656 54.925781 -69.457031 56.90625 -64.15625 C 58.894531 -58.863281 60.832031 -53.035156 62.71875 -46.671875 C 63.738281 -43.253906 64.738281 -40.015625 65.71875 -36.953125 C 66.707031 -33.898438 67.691406 -30.914062 68.671875 -28 C 69.648438 -25.09375 70.640625 -22.179688 71.640625 -19.265625 C 72.640625 -16.359375 73.671875 -13.359375 74.734375 -10.265625 C 75.054688 -8.953125 75.390625 -7.910156 75.734375 -7.140625 C 76.085938 -6.378906 76.410156 -5.78125 76.703125 -5.34375 C 76.992188 -4.90625 77.226562 -4.585938 77.40625 -4.390625 C 77.582031 -4.191406 77.671875 -3.984375 77.671875 -3.765625 C 77.671875 -3.546875 77.328125 -3.328125 76.640625 -3.109375 L 64.90625 0.703125 C 64.03125 1.035156 63.132812 1.363281 62.21875 1.6875 C 61.3125 2.019531 60.457031 2.3125 59.65625 2.5625 C 58.863281 2.820312 58.164062 3.03125 57.5625 3.1875 C 56.957031 3.351562 56.53125 3.4375 56.28125 3.4375 L 55.953125 3.4375 C 55.441406 3.4375 55.078125 3.28125 54.859375 2.96875 C 54.640625 2.664062 54.492188 2.367188 54.421875 2.078125 C 54.054688 0.867188 53.691406 -0.210938 53.328125 -1.171875 C 52.960938 -2.140625 52.609375 -3.101562 52.265625 -4.0625 C 51.921875 -5.03125 51.578125 -6.054688 51.234375 -7.140625 C 50.890625 -8.234375 50.550781 -9.53125 50.21875 -11.03125 C 50.144531 -11.207031 49.941406 -11.359375 49.609375 -11.484375 C 49.285156 -11.617188 48.894531 -11.722656 48.4375 -11.796875 C 47.988281 -11.867188 47.507812 -11.910156 47 -11.921875 C 46.488281 -11.941406 46.015625 -11.953125 45.578125 -11.953125 C 44.191406 -11.953125 43.070312 -11.941406 42.21875 -11.921875 C 41.363281 -11.910156 40.609375 -11.894531 39.953125 -11.875 C 39.296875 -11.851562 38.664062 -11.832031 38.0625 -11.8125 C 37.46875 -11.800781 36.734375 -11.796875 35.859375 -11.796875 C 34.804688 -11.796875 33.722656 -11.800781 32.609375 -11.8125 C 31.503906 -11.832031 30.5 -11.863281 29.59375 -11.90625 L 26.46875 -12.015625 C 25.53125 -9.390625 24.585938 -6.929688 23.640625 -4.640625 C 22.691406 -2.347656 21.671875 0.015625 20.578125 2.453125 C 20.503906 2.742188 20.332031 2.976562 20.0625 3.15625 C 19.789062 3.34375 19.507812 3.4375 19.21875 3.4375 C 19 3.4375 18.867188 3.421875 18.828125 3.390625 C 15.296875 2.109375 12.328125 0.851562 9.921875 -0.375 C 7.523438 -1.613281 5.4375 -2.816406 3.65625 -3.984375 Z M 40.453125 -53.0625 C 39.578125 -49.820312 38.710938 -46.878906 37.859375 -44.234375 C 37.003906 -41.597656 36.21875 -39.257812 35.5 -37.21875 C 34.789062 -35.1875 34.179688 -33.46875 33.671875 -32.0625 C 33.171875 -30.664062 32.8125 -29.585938 32.59375 -28.828125 L 32.59375 -28.328125 C 32.59375 -28.109375 32.570312 -27.960938 32.53125 -27.890625 L 45.640625 -27.890625 C 45.234375 -29.671875 44.800781 -31.472656 44.34375 -33.296875 C 43.894531 -35.117188 43.453125 -37.03125 43.015625 -39.03125 C 42.578125 -41.03125 42.140625 -43.175781 41.703125 -45.46875 C 41.265625 -47.757812 40.847656 -50.289062 40.453125 -53.0625 Z M 40.453125 -53.0625 "/></g></g></g><g fill="rgb(100%, 100%, 100%)" fill-opacity="1"><g transform="translate(112.720821, 231.49505)"><g><path d="M 4.828125 1.203125 L 4.828125 -13.265625 L 19.296875 -13.265625 L 19.296875 1.203125 Z M 4.828125 1.203125 "/></g></g></g><g fill="rgb(100%, 100%, 100%)" fill-opacity="1"><g transform="translate(136.84243, 231.49505)"><g><path d="M 0 0 L 36.1875 -84.421875 L 50.65625 -84.421875 L 14.46875 0 Z M 0 0 "/></g></g></g></svg>