<svg xmlns="http://www.w3.org/2000/svg" xmlns:xlink="http://www.w3.org/1999/xlink" width="500" zoomAndPan="magnify" viewBox="0 0 375 374.999991" height="500" preserveAspectRatio="xMidYMid meet" version="1.0"><defs><g><g id="id1"/><g id="id2"/></g></defs><path fill="rgb(100%, 100%, 100%)" d="M 235.167969 292.722656 C 234.726562 292.722656 234.285156 292.722656 233.808594 292.683594 C 226.683594 292.363281 219.683594 289.882812 212.878906 287.480469 C 204.71875 284.558594 196.273438 281.558594 187.710938 282.519531 C 182.429688 283.078125 177.347656 285.160156 172.425781 287.160156 C 168.105469 288.921875 163.664062 290.722656 159.0625 291.5625 C 146.417969 293.804688 133.574219 288.601562 121.609375 282.636719 C 118.085938 280.878906 113.125 277.957031 109.523438 273.992188 C 105.804688 269.871094 104.363281 265.550781 105.203125 261.148438 C 106.003906 257.0625 108.882812 253.703125 111.246094 250.980469 L 130.890625 228.167969 C 134.734375 223.6875 138.695312 219.085938 143.417969 215.28125 C 151.460938 208.71875 161.382812 204.835938 172.90625 203.675781 C 183.109375 202.636719 194.273438 203.914062 205.117188 207.316406 C 229.003906 214.800781 250.171875 230.769531 264.65625 252.34375 L 264.578125 252.421875 L 264.699219 252.382812 C 269.058594 261.667969 267.699219 271.671875 260.855469 280.558594 C 254.933594 288.082031 245.210938 292.722656 235.167969 292.722656 Z M 190.992188 282.039062 C 198.515625 282.039062 205.878906 284.640625 213.039062 287.199219 C 219.800781 289.601562 226.765625 292.082031 233.847656 292.402344 C 244.25 292.84375 254.535156 288.199219 260.574219 280.277344 C 267.296875 271.511719 268.660156 261.625 264.378906 252.460938 C 249.933594 230.96875 228.84375 215.042969 205.039062 207.597656 C 194.234375 204.195312 183.148438 202.957031 172.988281 203.996094 C 161.542969 205.15625 151.660156 209.039062 143.65625 215.523438 C 138.976562 219.324219 135.011719 223.925781 131.171875 228.367188 L 111.527344 251.179688 C 109.085938 253.984375 106.363281 257.183594 105.5625 261.1875 C 104.683594 265.628906 105.644531 274.273438 121.769531 282.316406 C 133.691406 288.28125 146.496094 293.445312 159.023438 291.203125 C 163.582031 290.402344 168.023438 288.5625 172.347656 286.839844 C 177.269531 284.839844 182.390625 282.757812 187.710938 282.15625 C 188.792969 282.078125 189.871094 282.039062 190.992188 282.039062 Z M 255.535156 279.917969 C 262.257812 271.472656 263.9375 261.867188 260.175781 252.863281 L 259.894531 252.980469 C 263.578125 261.867188 261.9375 271.351562 255.292969 279.714844 C 249.132812 287.441406 239.328125 291.882812 229.046875 291.601562 C 222.082031 291.402344 215.199219 289.121094 208.519531 286.921875 C 207.4375 286.558594 206.359375 286.199219 205.277344 285.878906 C 198.515625 283.679688 191.3125 281.636719 183.828125 282.359375 C 178.667969 282.878906 173.707031 284.757812 168.945312 286.558594 C 164.703125 288.160156 160.261719 289.84375 155.742188 290.523438 C 145.175781 292.125 133.371094 289.042969 119.609375 281.078125 C 114.964844 278.316406 111.003906 274.714844 107.804688 270.351562 C 104.203125 265.46875 102.761719 260.785156 103.441406 256.023438 C 104.082031 251.621094 106.5625 247.898438 109.042969 244.457031 C 113.007812 238.976562 117.609375 234.890625 122.449219 230.609375 C 125.449219 227.96875 128.570312 225.207031 131.53125 222.085938 C 132.492188 221.046875 133.492188 220.003906 134.414062 218.964844 C 137.496094 215.601562 140.695312 212.121094 144.257812 209.160156 C 159.621094 196.390625 181.910156 192.46875 205.316406 198.433594 L 206.15625 198.632812 C 209.839844 199.554688 213.640625 200.515625 217 202.316406 C 218.722656 203.234375 220.402344 204.277344 222.003906 205.398438 C 224.804688 207.277344 227.566406 209.320312 230.246094 211.398438 C 236.046875 215.921875 240.6875 220.164062 244.449219 224.445312 C 248.171875 228.769531 251.332031 233.53125 253.855469 238.613281 C 256.335938 243.617188 258.09375 247.300781 259.816406 253.023438 L 260.097656 252.941406 C 258.375 247.21875 256.613281 243.496094 254.132812 238.496094 C 251.574219 233.371094 248.410156 228.570312 244.691406 224.246094 C 240.929688 219.964844 236.289062 215.683594 230.445312 211.160156 C 227.765625 209.078125 224.964844 207.039062 222.164062 205.15625 C 220.5625 204.035156 218.882812 202.996094 217.160156 202.074219 C 213.71875 200.273438 209.917969 199.3125 206.238281 198.394531 L 205.398438 198.191406 C 181.871094 192.230469 159.5 196.152344 144.054688 209 C 140.496094 211.960938 137.253906 215.480469 134.171875 218.84375 C 133.214844 219.882812 132.253906 220.925781 131.292969 221.964844 C 128.332031 225.085938 125.25 227.847656 122.25 230.488281 C 117.367188 234.8125 112.765625 238.894531 108.804688 244.378906 C 106.285156 247.859375 103.804688 251.621094 103.164062 256.105469 C 102.441406 260.945312 103.882812 265.710938 107.5625 270.671875 C 110.765625 275.074219 114.765625 278.714844 119.449219 281.476562 C 133.253906 289.480469 145.136719 292.5625 155.78125 290.960938 C 160.34375 290.28125 164.742188 288.601562 169.023438 287 C 173.785156 285.199219 178.707031 283.359375 183.828125 282.839844 C 191.273438 282.078125 198.433594 284.160156 205.15625 286.320312 C 206.238281 286.679688 207.316406 287.039062 208.398438 287.359375 C 215.082031 289.5625 222.003906 291.84375 229.003906 292.042969 C 229.324219 292.042969 229.605469 292.042969 229.925781 292.042969 C 240.007812 291.921875 249.53125 287.480469 255.535156 279.917969 Z M 224.644531 291.121094 C 224.523438 291.121094 224.445312 291.121094 224.324219 291.121094 C 217.402344 291.042969 210.597656 288.960938 203.996094 286.960938 C 202.996094 286.640625 201.996094 286.359375 200.996094 286.039062 C 194.355469 284.039062 187.3125 282.15625 180.070312 282.839844 C 175.105469 283.277344 170.34375 284.917969 165.742188 286.519531 C 161.503906 288 157.0625 289.523438 152.578125 290.082031 C 144.976562 291.042969 132.691406 290.042969 117.40625 280.078125 C 113.285156 277.355469 109.445312 273.113281 105.722656 267.070312 C 102.082031 261.226562 100.601562 255.902344 101.121094 250.699219 C 101.601562 246.019531 103.5625 242.015625 106.402344 237.414062 C 110.324219 231.089844 115.566406 227.488281 121.128906 223.6875 C 124.648438 221.246094 128.332031 218.722656 131.734375 215.402344 C 133.292969 213.882812 134.894531 212.199219 136.375 210.640625 C 139.015625 207.839844 141.777344 204.957031 144.777344 202.394531 C 160.621094 188.949219 182.871094 183.984375 205.796875 188.746094 C 206.398438 188.867188 206.996094 188.988281 207.597656 189.109375 C 211.757812 189.949219 216.039062 190.789062 219.683594 192.988281 C 221.601562 194.191406 223.445312 195.589844 225.125 197.113281 C 228.085938 199.671875 231.085938 202.316406 233.925781 205.035156 C 238.570312 209.398438 244.410156 215.28125 248.730469 221.886719 C 252.292969 227.367188 254.933594 234.050781 255.613281 239.335938 C 256.132812 243.417969 256.015625 245.777344 255.855469 249.101562 C 255.773438 250.300781 255.734375 251.660156 255.695312 253.300781 L 255.734375 253.300781 C 258.855469 261.945312 256.894531 271.152344 250.253906 279.277344 C 244.171875 286.71875 234.605469 291.121094 224.644531 291.121094 Z M 183.03125 282.359375 C 189.230469 282.359375 195.3125 284 201.035156 285.71875 C 202.035156 286 203.035156 286.320312 204.035156 286.640625 C 210.640625 288.640625 217.441406 290.722656 224.285156 290.800781 C 224.402344 290.800781 224.484375 290.800781 224.605469 290.800781 C 234.488281 290.800781 243.96875 286.441406 250.011719 279.117188 C 256.574219 271.113281 258.496094 261.988281 255.453125 253.460938 L 255.613281 253.382812 L 255.414062 253.382812 C 255.453125 251.742188 255.535156 250.378906 255.574219 249.140625 C 255.734375 245.859375 255.855469 243.457031 255.335938 239.414062 C 254.652344 234.171875 252.054688 227.527344 248.492188 222.085938 C 244.210938 215.523438 238.367188 209.640625 233.726562 205.277344 C 230.847656 202.554688 227.886719 199.875 224.925781 197.351562 C 223.242188 195.832031 221.441406 194.472656 219.523438 193.269531 C 215.921875 191.109375 211.640625 190.230469 207.558594 189.429688 C 206.957031 189.308594 206.359375 189.1875 205.757812 189.066406 C 182.910156 184.304688 160.78125 189.226562 145.015625 202.636719 C 142.015625 205.195312 139.296875 208.078125 136.613281 210.839844 C 135.09375 212.441406 133.53125 214.082031 131.933594 215.601562 C 128.492188 218.964844 124.808594 221.484375 121.289062 223.886719 C 115.765625 227.6875 110.523438 231.25 106.644531 237.535156 C 103.84375 242.097656 101.882812 246.097656 101.402344 250.699219 C 100.882812 255.824219 102.324219 261.105469 105.882812 266.828125 C 109.605469 272.832031 113.367188 277.035156 117.488281 279.714844 C 132.691406 289.683594 144.898438 290.640625 152.460938 289.683594 C 156.941406 289.121094 161.34375 287.601562 165.582031 286.121094 C 170.226562 284.519531 174.988281 282.878906 179.988281 282.398438 C 181.027344 282.398438 182.03125 282.359375 183.03125 282.359375 Z M 219.28125 290.28125 C 212.480469 290.28125 205.675781 288.402344 199.15625 286.558594 C 198.316406 286.320312 197.515625 286.078125 196.675781 285.878906 C 189.832031 284 183.109375 282.359375 176.1875 282.917969 C 171.425781 283.320312 166.863281 284.757812 162.421875 286.121094 C 158.179688 287.441406 153.78125 288.839844 149.257812 289.28125 C 138.375 290.324219 125.96875 286.480469 115.207031 278.714844 C 109.964844 274.914062 106.523438 268.910156 103.722656 263.546875 C 100.160156 256.863281 98.722656 251.101562 99.082031 245.5 C 99.480469 239.65625 101.800781 234.691406 104.003906 230.648438 C 107.882812 223.527344 113.726562 220.363281 119.96875 217.042969 C 124.050781 214.839844 128.292969 212.601562 132.171875 209.039062 C 134.214844 207.15625 136.175781 205.195312 138.214844 203.074219 C 140.535156 200.714844 142.9375 198.234375 145.496094 195.992188 C 161.941406 181.703125 184.070312 175.699219 206.199219 179.503906 C 206.957031 179.621094 207.71875 179.742188 208.476562 179.863281 C 213.238281 180.625 218.121094 181.421875 222.203125 184.105469 C 224.363281 185.546875 226.164062 187.265625 228.125 189.269531 C 231.285156 192.46875 234.445312 195.792969 237.488281 199.152344 C 242.890625 205.035156 248.933594 212.121094 252.851562 219.765625 C 256.496094 226.847656 258.175781 234.972656 257.175781 240.457031 C 256.535156 243.855469 255.414062 245.738281 254.214844 247.78125 C 253.214844 249.460938 252.214844 251.179688 251.292969 253.941406 C 253.773438 262.226562 251.53125 271.03125 244.96875 278.757812 C 238.847656 285.917969 229.324219 290.242188 219.523438 290.324219 C 219.441406 290.28125 219.363281 290.28125 219.28125 290.28125 Z M 179.027344 282.519531 C 184.992188 282.519531 190.832031 283.957031 196.714844 285.601562 C 197.554688 285.839844 198.355469 286.039062 199.195312 286.28125 C 205.71875 288.121094 212.480469 290.003906 219.242188 290.003906 C 219.320312 290.003906 219.402344 290.003906 219.480469 290.003906 C 229.207031 289.921875 238.609375 285.640625 244.691406 278.554688 C 251.171875 270.910156 253.375 262.1875 250.933594 253.984375 L 250.933594 253.902344 C 251.851562 251.0625 252.894531 249.339844 253.894531 247.621094 C 255.054688 245.617188 256.175781 243.738281 256.816406 240.414062 C 257.816406 235.011719 256.132812 226.96875 252.535156 219.925781 C 248.613281 212.320312 242.609375 205.277344 237.207031 199.394531 C 234.128906 196.03125 230.964844 192.710938 227.84375 189.546875 C 225.925781 187.585938 224.125 185.828125 222.003906 184.425781 C 218 181.785156 213.121094 180.984375 208.398438 180.222656 C 207.636719 180.101562 206.878906 179.984375 206.117188 179.863281 C 184.070312 176.0625 162.0625 182.023438 145.65625 196.273438 C 143.097656 198.511719 140.695312 200.996094 138.375 203.355469 C 136.414062 205.355469 134.375 207.4375 132.332031 209.320312 C 128.410156 212.878906 124.167969 215.160156 120.046875 217.363281 C 113.886719 220.683594 108.042969 223.804688 104.203125 230.851562 C 102.003906 234.890625 99.722656 239.816406 99.320312 245.578125 C 98.960938 251.140625 100.441406 256.824219 103.921875 263.46875 C 106.722656 268.789062 110.125 274.753906 115.328125 278.515625 C 126.011719 286.238281 138.335938 290.082031 149.136719 289.042969 C 153.621094 288.601562 157.980469 287.242188 162.222656 285.917969 C 166.664062 284.519531 171.265625 283.078125 176.066406 282.679688 C 177.109375 282.558594 178.066406 282.519531 179.027344 282.519531 Z M 213.878906 289.523438 C 207.359375 289.523438 200.835938 287.882812 194.511719 286.28125 C 193.792969 286.078125 193.074219 285.917969 192.351562 285.761719 C 185.308594 284 178.949219 282.597656 172.304688 283.078125 C 167.746094 283.398438 163.34375 284.640625 159.0625 285.839844 C 154.820312 287.039062 150.417969 288.242188 145.9375 288.5625 C 134.894531 289.28125 122.890625 285.238281 113.046875 277.433594 C 107.683594 273.191406 104.722656 266.667969 101.882812 260.347656 L 101.761719 260.105469 C 99.363281 254.902344 96.679688 247.898438 97 240.296875 C 97.199219 235.09375 98.601562 230.011719 101.5625 223.847656 C 105.363281 215.921875 111.847656 213.199219 118.726562 210.320312 C 123.371094 208.359375 128.171875 206.355469 132.574219 202.636719 C 135.054688 200.554688 137.335938 198.191406 139.773438 195.75 C 141.816406 193.671875 143.9375 191.550781 146.175781 189.546875 C 163.382812 174.261719 185.390625 167.257812 206.558594 170.257812 C 207.398438 170.378906 208.277344 170.496094 209.117188 170.617188 C 214.519531 171.296875 220.164062 172.058594 224.644531 175.261719 C 227.203125 177.0625 229.207031 179.382812 231.007812 181.464844 C 234.328125 185.304688 237.6875 189.269531 240.929688 193.269531 C 246.652344 200.273438 253.09375 208.519531 256.855469 217.601562 C 260.457031 226.207031 261.136719 235.8125 258.574219 241.496094 C 256.976562 245.019531 254.894531 246.617188 252.652344 248.339844 C 250.691406 249.859375 248.613281 251.460938 246.8125 254.503906 C 248.652344 262.507812 246.132812 270.953125 239.648438 278.234375 C 233.566406 285.078125 224.242188 289.320312 214.71875 289.5625 C 214.441406 289.523438 214.160156 289.523438 213.878906 289.523438 Z M 174.988281 282.679688 C 180.707031 282.679688 186.3125 283.957031 192.433594 285.441406 C 193.152344 285.601562 193.875 285.800781 194.59375 286 C 201.15625 287.640625 207.957031 289.363281 214.71875 289.203125 C 224.164062 288.960938 233.40625 284.757812 239.449219 277.957031 C 245.851562 270.710938 248.371094 262.386719 246.53125 254.464844 L 246.691406 254.421875 L 246.53125 254.34375 C 248.371094 251.222656 250.492188 249.582031 252.492188 248.019531 C 254.695312 246.339844 256.773438 244.738281 258.335938 241.296875 C 260.855469 235.691406 260.175781 226.207031 256.613281 217.683594 C 252.851562 208.636719 246.449219 200.394531 240.730469 193.429688 C 237.488281 189.429688 234.128906 185.464844 230.804688 181.625 C 229.046875 179.582031 227.042969 177.261719 224.523438 175.5 C 220.082031 172.339844 214.519531 171.617188 209.117188 170.9375 C 208.238281 170.816406 207.398438 170.699219 206.558594 170.578125 C 185.511719 167.578125 163.582031 174.582031 146.417969 189.789062 C 144.175781 191.789062 142.054688 193.910156 140.015625 195.992188 C 137.574219 198.472656 135.253906 200.792969 132.773438 202.914062 C 128.332031 206.675781 123.53125 208.679688 118.847656 210.640625 C 112.046875 213.480469 105.605469 216.203125 101.84375 224.007812 C 98.921875 230.128906 97.519531 235.132812 97.320312 240.296875 C 97.039062 247.859375 99.679688 254.785156 102.042969 259.984375 L 102.164062 260.226562 C 105.003906 266.507812 107.925781 272.992188 113.246094 277.195312 C 123.050781 284.917969 134.972656 288.960938 145.9375 288.242188 C 150.378906 287.960938 154.78125 286.71875 159.023438 285.519531 C 163.304688 284.320312 167.746094 283.078125 172.304688 282.757812 C 173.1875 282.679688 174.105469 282.679688 174.988281 282.679688 Z M 208.160156 288.722656 C 202.035156 288.722656 196.074219 287.402344 189.792969 286 L 188.070312 285.601562 C 182.070312 284.277344 175.308594 282.757812 168.425781 283.199219 C 164.101562 283.480469 159.863281 284.519531 155.820312 285.480469 C 151.539062 286.519531 147.097656 287.601562 142.65625 287.761719 C 131.734375 288.121094 119.886719 283.757812 110.886719 276.113281 C 105.644531 271.632812 103.042969 264.910156 100.523438 258.425781 C 100.28125 257.824219 100.042969 257.222656 99.800781 256.625 C 97.320312 250.378906 94.839844 242.9375 94.921875 235.050781 C 95 229.25 96.320312 223.527344 99.082031 217.042969 C 102.84375 208.316406 109.925781 206.035156 117.449219 203.597656 C 122.648438 201.914062 128.011719 200.152344 132.933594 196.273438 C 135.773438 193.992188 138.414062 191.347656 141.214844 188.585938 C 143.015625 186.785156 144.898438 184.90625 146.859375 183.144531 C 165.222656 166.496094 186.550781 158.652344 206.917969 161.011719 C 207.839844 161.132812 208.757812 161.214844 209.679688 161.292969 C 215.800781 161.933594 222.164062 162.574219 227.125 166.335938 C 229.886719 168.417969 232.046875 171.136719 233.925781 173.539062 C 237.449219 178.023438 240.96875 182.625 244.410156 187.265625 C 250.574219 195.511719 257.414062 205.15625 260.894531 215.363281 C 264.378906 225.449219 264.015625 236.574219 260.015625 242.417969 C 257.496094 246.136719 254.375 247.539062 251.09375 249.019531 C 248.132812 250.339844 245.089844 251.742188 242.328125 254.941406 C 243.53125 262.628906 240.730469 270.632812 234.367188 277.554688 C 228.246094 284.199219 219.363281 288.242188 209.957031 288.679688 C 209.359375 288.722656 208.757812 288.722656 208.160156 288.722656 Z M 170.867188 282.839844 C 176.90625 282.839844 182.828125 284.160156 188.113281 285.320312 L 189.832031 285.71875 C 196.714844 287.242188 203.195312 288.722656 209.917969 288.402344 C 219.242188 287.960938 228.046875 283.957031 234.128906 277.394531 C 240.449219 270.550781 243.25 262.585938 242.007812 254.984375 L 242.007812 254.902344 L 242.050781 254.863281 C 244.851562 251.542969 247.933594 250.140625 250.972656 248.78125 C 254.214844 247.300781 257.292969 245.9375 259.777344 242.257812 C 263.695312 236.492188 264.058594 225.449219 260.617188 215.480469 C 257.132812 205.316406 250.292969 195.710938 244.171875 187.46875 C 240.730469 182.863281 237.207031 178.222656 233.6875 173.78125 C 231.804688 171.378906 229.683594 168.65625 226.925781 166.617188 C 222.003906 162.933594 215.722656 162.292969 209.640625 161.652344 C 208.71875 161.574219 207.796875 161.453125 206.878906 161.375 C 186.589844 159.011719 165.34375 166.855469 147.058594 183.425781 C 145.136719 185.1875 143.257812 187.066406 141.457031 188.867188 C 138.65625 191.667969 136.015625 194.3125 133.132812 196.59375 C 128.171875 200.515625 122.769531 202.273438 117.566406 203.957031 C 110.125 206.355469 103.082031 208.636719 99.402344 217.242188 C 96.640625 223.6875 95.320312 229.371094 95.238281 235.132812 C 95.160156 242.9375 97.640625 250.378906 100.082031 256.625 C 100.320312 257.222656 100.5625 257.824219 100.800781 258.425781 C 103.324219 264.867188 105.882812 271.550781 111.085938 275.996094 C 120.007812 283.597656 131.8125 287.960938 142.617188 287.5625 C 147.058594 287.402344 151.460938 286.320312 155.742188 285.28125 C 159.820312 284.277344 164.0625 283.238281 168.425781 282.957031 C 169.226562 282.839844 170.066406 282.839844 170.867188 282.839844 Z M 202.394531 288 C 196.632812 288 190.953125 286.878906 184.992188 285.761719 L 183.46875 285.480469 C 177.308594 284.277344 170.945312 283.078125 164.503906 283.398438 C 160.421875 283.597656 156.421875 284.4375 152.578125 285.238281 C 148.257812 286.160156 143.777344 287.082031 139.253906 287.082031 C 128.371094 287.082031 116.925781 282.519531 108.644531 274.875 C 103.402344 270.03125 101.042969 262.988281 98.761719 256.183594 C 98.441406 255.183594 98.121094 254.222656 97.761719 253.222656 C 95.398438 246.339844 92.839844 238.292969 92.800781 229.851562 C 92.757812 223.445312 94 217.042969 96.601562 210.277344 C 100.320312 200.792969 108.003906 198.875 116.167969 196.871094 C 121.929688 195.472656 127.890625 193.992188 133.292969 189.910156 C 136.535156 187.46875 139.535156 184.503906 142.695312 181.34375 C 144.257812 179.824219 145.855469 178.222656 147.496094 176.703125 C 172.265625 153.808594 193.632812 150.488281 207.238281 151.726562 C 208.160156 151.808594 209.078125 151.886719 210.039062 151.96875 C 216.921875 152.527344 224.042969 153.089844 229.527344 157.410156 C 232.527344 159.730469 234.765625 162.894531 236.769531 165.65625 C 240.449219 170.777344 244.171875 176.019531 247.8125 181.304688 C 254.652344 191.230469 261.65625 201.875 264.855469 213.160156 C 268.21875 224.847656 266.777344 237.292969 261.417969 243.417969 C 257.894531 247.378906 253.8125 248.578125 249.453125 249.820312 C 245.53125 250.941406 241.488281 252.101562 237.847656 255.503906 C 238.449219 262.867188 235.289062 270.511719 229.046875 277.035156 C 222.964844 283.359375 214.242188 287.320312 205.117188 287.921875 C 204.238281 287.960938 203.316406 288 202.394531 288 Z M 166.785156 283 C 172.464844 283 178.109375 284.078125 183.550781 285.121094 L 185.070312 285.398438 C 191.953125 286.71875 198.433594 288 205.15625 287.5625 C 214.199219 286.960938 222.84375 283.039062 228.84375 276.753906 C 235.085938 270.273438 238.167969 262.707031 237.566406 255.421875 L 237.726562 255.421875 L 237.609375 255.304688 C 241.289062 251.820312 245.410156 250.621094 249.414062 249.5 C 253.734375 248.257812 257.816406 247.097656 261.257812 243.175781 C 266.578125 237.132812 267.976562 224.808594 264.65625 213.242188 C 261.457031 201.996094 254.492188 191.390625 247.652344 181.503906 C 244.011719 176.222656 240.289062 170.976562 236.609375 165.855469 C 234.605469 163.09375 232.367188 159.972656 229.40625 157.652344 C 224.003906 153.410156 216.921875 152.847656 210.078125 152.289062 C 209.117188 152.207031 208.199219 152.128906 207.277344 152.046875 C 193.753906 150.808594 172.464844 154.128906 147.777344 176.941406 C 146.136719 178.460938 144.535156 180.0625 143.015625 181.582031 C 139.855469 184.746094 136.855469 187.707031 133.574219 190.148438 C 128.089844 194.269531 122.128906 195.75 116.328125 197.152344 C 107.925781 199.234375 100.640625 200.996094 97 210.359375 C 94.398438 217.082031 93.160156 223.445312 93.199219 229.808594 C 93.28125 238.175781 95.800781 246.179688 98.160156 253.0625 C 98.480469 254.023438 98.839844 255.023438 99.160156 256.023438 C 101.441406 262.789062 103.761719 269.832031 108.964844 274.59375 C 117.207031 282.199219 128.570312 286.71875 139.375 286.71875 C 143.855469 286.71875 148.097656 285.839844 152.621094 284.878906 C 156.5 284.078125 160.460938 283.238281 164.582031 283.039062 C 165.265625 283.039062 166.023438 283 166.785156 283 Z M 196.515625 287.28125 C 191.152344 287.28125 185.832031 286.398438 180.269531 285.480469 L 178.589844 285.199219 C 172.785156 284.238281 166.746094 283.238281 160.703125 283.480469 C 156.902344 283.640625 153.140625 284.277344 149.539062 284.878906 C 144.9375 285.679688 140.574219 286.398438 136.054688 286.238281 C 125.011719 285.71875 114.527344 281.199219 106.605469 273.511719 C 101.242188 268.269531 99.121094 260.746094 97.039062 253.503906 C 96.679688 252.261719 96.320312 250.980469 95.960938 249.742188 C 93.28125 240.976562 91.078125 233.011719 90.878906 224.605469 C 90.679688 217.363281 91.839844 210.28125 94.320312 203.476562 C 97.960938 193.191406 105.882812 191.75 115.046875 190.109375 C 121.367188 188.949219 127.890625 187.789062 133.851562 183.546875 C 137.414062 180.984375 140.695312 177.78125 144.136719 174.339844 C 145.496094 173.019531 146.898438 171.617188 148.296875 170.296875 C 169.265625 150.566406 189.230469 141.203125 207.71875 142.484375 C 208.597656 142.5625 209.519531 142.601562 210.4375 142.644531 C 218.160156 143.125 226.125 143.605469 232.125 148.484375 C 235.367188 151.128906 237.726562 154.648438 239.847656 157.769531 C 243.730469 163.535156 247.652344 169.457031 251.453125 175.339844 C 259.015625 186.945312 266.019531 198.433594 269.097656 210.917969 C 272.339844 224.167969 269.859375 237.933594 263.058594 244.378906 C 258.574219 248.621094 253.453125 249.582031 248.011719 250.621094 C 243.128906 251.542969 238.089844 252.503906 233.527344 256.0625 C 233.488281 263.066406 230.085938 270.3125 223.882812 276.433594 C 217.839844 282.4375 209.320312 286.320312 200.476562 287.082031 C 199.113281 287.199219 197.792969 287.28125 196.515625 287.28125 Z M 162.664062 283.160156 C 168.066406 283.160156 173.425781 284.039062 178.628906 284.917969 L 180.308594 285.199219 C 187.191406 286.320312 193.714844 287.402344 200.355469 286.800781 C 209.117188 286.039062 217.5625 282.15625 223.5625 276.234375 C 229.726562 270.152344 233.085938 262.949219 233.085938 255.984375 L 233.246094 255.984375 L 233.167969 255.863281 C 237.769531 252.222656 242.890625 251.261719 247.8125 250.339844 C 253.214844 249.339844 258.296875 248.339844 262.695312 244.175781 C 269.417969 237.8125 271.859375 224.207031 268.660156 211.039062 C 265.617188 198.59375 258.617188 187.148438 251.050781 175.582031 C 247.25 169.699219 243.332031 163.8125 239.449219 158.011719 C 237.367188 154.929688 235.007812 151.40625 231.804688 148.804688 C 225.84375 143.964844 217.960938 143.484375 210.277344 143.003906 C 209.359375 142.964844 208.476562 142.882812 207.558594 142.84375 C 189.191406 141.5625 169.265625 150.886719 148.378906 170.578125 C 146.9375 171.9375 145.578125 173.300781 144.214844 174.621094 C 140.734375 178.0625 137.453125 181.304688 133.894531 183.863281 C 127.890625 188.148438 121.328125 189.347656 114.96875 190.46875 C 105.921875 192.109375 98.082031 193.511719 94.480469 203.636719 C 92 210.398438 90.878906 217.484375 91.039062 224.648438 C 91.238281 233.011719 93.480469 240.9375 96.121094 249.660156 C 96.480469 250.902344 96.878906 252.183594 97.199219 253.421875 C 99.242188 260.625 101.363281 268.109375 106.683594 273.3125 C 114.566406 280.957031 124.96875 285.480469 135.933594 285.960938 C 140.457031 286.121094 144.777344 285.359375 149.378906 284.597656 C 152.980469 283.957031 156.742188 283.320312 160.582031 283.160156 C 161.34375 283.160156 161.984375 283.160156 162.664062 283.160156 Z M 190.351562 286.601562 C 185.390625 286.601562 180.390625 285.917969 175.226562 285.238281 C 174.546875 285.160156 173.90625 285.039062 173.226562 284.960938 C 167.90625 284.238281 162.382812 283.480469 156.859375 283.640625 C 153.339844 283.757812 149.859375 284.199219 146.539062 284.640625 C 141.816406 285.28125 137.375 285.878906 132.773438 285.519531 C 122.210938 284.757812 111.605469 279.757812 104.441406 272.234375 C 99.042969 266.550781 97.082031 258.585938 95.199219 250.941406 C 94.800781 249.421875 94.441406 247.820312 94 246.257812 L 93.71875 245.257812 C 91.480469 236.894531 89.15625 228.289062 88.757812 219.363281 C 88.398438 211.640625 89.4375 203.996094 91.839844 196.671875 C 95.441406 185.585938 103.921875 184.546875 113.726562 183.304688 C 120.609375 182.425781 127.691406 181.542969 134.171875 177.140625 C 138.214844 174.421875 141.855469 170.777344 145.738281 166.9375 C 146.777344 165.933594 147.816406 164.855469 148.898438 163.855469 C 159.382812 153.808594 168.304688 146.804688 176.988281 141.800781 C 187.910156 135.519531 198.035156 132.71875 208 133.238281 C 208.839844 133.277344 209.71875 133.316406 210.597656 133.359375 C 219.121094 133.71875 227.925781 134.117188 234.488281 139.601562 C 237.929688 142.484375 240.449219 146.445312 242.648438 149.925781 C 246.691406 156.332031 250.8125 162.894531 254.8125 169.417969 C 263.097656 182.90625 270.179688 195.152344 273.019531 208.757812 C 276.101562 223.566406 272.578125 238.613281 264.417969 245.378906 C 258.976562 249.859375 252.53125 250.660156 246.292969 251.421875 C 240.449219 252.140625 234.40625 252.863281 228.964844 256.585938 C 228.285156 263.308594 224.5625 270.152344 218.523438 275.875 C 212.441406 281.636719 204.316406 285.359375 195.632812 286.320312 C 193.832031 286.519531 192.074219 286.601562 190.351562 286.601562 Z M 158.421875 283.320312 C 163.421875 283.320312 168.425781 284 173.226562 284.640625 C 173.90625 284.71875 174.546875 284.839844 175.226562 284.917969 C 182.230469 285.839844 188.832031 286.71875 195.554688 286 C 204.15625 285.039062 212.199219 281.359375 218.242188 275.632812 C 224.285156 269.910156 227.964844 263.109375 228.605469 256.464844 L 228.765625 256.464844 L 228.683594 256.34375 C 234.207031 252.542969 240.289062 251.820312 246.210938 251.101562 C 252.691406 250.300781 258.816406 249.539062 264.175781 245.136719 C 272.261719 238.453125 275.742188 223.527344 272.699219 208.839844 C 269.859375 195.269531 262.816406 183.066406 254.535156 169.617188 C 250.53125 163.09375 246.449219 156.53125 242.371094 150.128906 C 240.167969 146.644531 237.6875 142.722656 234.285156 139.882812 C 227.804688 134.4375 219.042969 134.078125 210.558594 133.679688 C 209.679688 133.636719 208.839844 133.597656 207.957031 133.558594 C 198.074219 133.078125 187.992188 135.839844 177.148438 142.082031 C 168.464844 147.085938 159.582031 154.050781 149.097656 164.09375 C 148.019531 165.136719 146.976562 166.175781 145.9375 167.175781 C 142.054688 171.058594 138.375 174.699219 134.292969 177.421875 C 127.769531 181.863281 120.289062 182.785156 113.6875 183.625 C 104.003906 184.824219 95.601562 185.90625 92.039062 196.792969 C 89.636719 204.117188 88.597656 211.71875 88.957031 219.402344 C 89.316406 228.25 91.640625 236.894531 93.878906 245.21875 L 94.160156 246.21875 C 94.558594 247.78125 94.960938 249.339844 95.359375 250.902344 C 97.242188 258.546875 99.203125 266.429688 104.523438 272.074219 C 111.644531 279.554688 122.128906 284.480469 132.652344 285.28125 C 137.214844 285.601562 141.65625 285 146.335938 284.398438 C 149.699219 283.957031 153.140625 283.480469 156.699219 283.398438 C 157.339844 283.320312 157.902344 283.320312 158.421875 283.320312 Z M 183.828125 285.960938 C 179.789062 285.960938 175.585938 285.601562 170.90625 285.121094 C 169.824219 285 168.746094 284.878906 167.664062 284.757812 C 162.863281 284.238281 157.902344 283.71875 152.941406 283.796875 C 149.820312 283.839844 146.699219 284.160156 143.738281 284.4375 C 138.816406 284.917969 134.171875 285.359375 129.410156 284.800781 C 119.046875 283.597656 108.882812 278.4375 102.242188 270.953125 C 96.761719 264.789062 94.960938 256.34375 93.199219 248.179688 C 92.839844 246.417969 92.4375 244.578125 92 242.816406 C 91.757812 241.734375 91.480469 240.65625 91.199219 239.535156 C 89.199219 231.332031 87.15625 222.804688 86.636719 214.160156 C 86.078125 205.957031 86.996094 197.753906 89.359375 189.867188 C 92.917969 177.980469 101.960938 177.300781 112.40625 176.460938 C 119.488281 175.902344 127.53125 175.261719 134.535156 170.738281 C 139.054688 167.855469 143.175781 163.734375 147.539062 159.410156 C 148.21875 158.730469 148.898438 158.050781 149.578125 157.371094 C 166.503906 140.800781 186.390625 123.191406 208.359375 123.871094 C 209.117188 123.914062 209.878906 123.914062 210.679688 123.953125 C 220.082031 124.191406 229.804688 124.472656 236.96875 130.597656 C 240.648438 133.757812 243.25 138.121094 245.570312 141.960938 C 249.8125 149.046875 254.09375 156.25 258.296875 163.375 C 266.976562 178.183594 274.378906 191.667969 277.0625 206.4375 C 280.023438 222.804688 275.382812 239.175781 265.859375 246.21875 C 259.457031 250.980469 251.933594 251.542969 244.652344 252.0625 C 237.847656 252.582031 230.804688 253.101562 224.484375 256.984375 C 223.164062 263.386719 219.160156 269.832031 213.199219 275.195312 C 206.878906 280.757812 199.15625 284.277344 190.832031 285.398438 C 188.472656 285.839844 186.152344 285.960938 183.828125 285.960938 Z M 154.101562 283.480469 C 158.703125 283.480469 163.261719 283.957031 167.664062 284.4375 C 168.746094 284.558594 169.824219 284.679688 170.90625 284.800781 C 178.269531 285.558594 184.429688 286.039062 190.753906 285.199219 C 198.996094 284.078125 206.675781 280.597656 212.917969 275.074219 C 218.84375 269.75 222.804688 263.347656 224.125 256.984375 L 224.285156 257.023438 L 224.203125 256.863281 C 230.605469 252.941406 237.6875 252.382812 244.53125 251.902344 C 252.09375 251.339844 259.253906 250.78125 265.578125 246.097656 C 275.019531 239.09375 279.582031 222.886719 276.660156 206.597656 C 274.019531 191.871094 266.617188 178.421875 257.933594 163.613281 C 253.734375 156.449219 249.453125 149.246094 245.210938 142.203125 C 242.929688 138.402344 240.328125 134.078125 236.6875 130.917969 C 229.605469 124.832031 219.960938 124.59375 210.597656 124.3125 C 209.839844 124.273438 209.039062 124.273438 208.277344 124.234375 C 186.472656 123.554688 166.625 141.121094 149.738281 157.609375 C 149.058594 158.292969 148.378906 158.972656 147.699219 159.613281 C 143.335938 163.972656 139.214844 168.097656 134.652344 170.976562 C 127.570312 175.539062 119.488281 176.179688 112.40625 176.742188 C 102.082031 177.542969 93.121094 178.261719 89.636719 189.910156 C 87.316406 197.753906 86.398438 205.917969 86.917969 214.082031 C 87.398438 222.726562 89.476562 231.210938 91.4375 239.414062 C 91.71875 240.496094 91.960938 241.574219 92.238281 242.695312 C 92.679688 244.457031 93.039062 246.296875 93.441406 248.058594 C 95.199219 256.183594 97 264.589844 102.402344 270.671875 C 109.003906 278.074219 119.089844 283.238281 129.371094 284.398438 C 134.09375 284.917969 138.734375 284.480469 143.617188 284.039062 C 146.617188 283.757812 149.699219 283.4375 152.859375 283.398438 C 153.339844 283.480469 153.699219 283.480469 154.101562 283.480469 Z M 176.585938 285.398438 C 173.265625 285.398438 169.945312 285.199219 166.585938 284.960938 C 164.984375 284.839844 163.34375 284.71875 161.78125 284.597656 C 157.621094 284.277344 153.339844 283.917969 149.058594 283.917969 C 146.378906 283.917969 143.738281 284.078125 141.175781 284.238281 C 135.972656 284.519531 131.09375 284.839844 126.089844 284.039062 C 115.847656 282.4375 106.324219 277.195312 100.042969 269.671875 C 94.480469 262.988281 92.800781 254.023438 91.199219 245.378906 C 90.839844 243.417969 90.4375 241.375 90.039062 239.375 C 89.636719 237.535156 89.238281 235.652344 88.796875 233.773438 C 86.996094 225.726562 85.15625 217.363281 84.554688 208.957031 C 83.875 199.671875 84.675781 191.230469 86.917969 183.105469 C 90.4375 170.417969 100.042969 170.097656 111.125 169.65625 C 118.726562 169.378906 127.371094 169.058594 134.933594 164.414062 C 139.976562 161.371094 144.496094 156.769531 149.339844 151.929688 L 150.257812 151.007812 C 167.34375 133.957031 186.710938 114.707031 208.238281 114.707031 C 208.398438 114.707031 208.558594 114.707031 208.71875 114.707031 C 209.359375 114.707031 209.957031 114.707031 210.597656 114.746094 C 220.960938 114.867188 231.644531 114.988281 239.410156 121.792969 C 243.332031 125.234375 246.050781 129.957031 248.453125 134.160156 C 252.851562 141.84375 257.335938 149.726562 261.738281 157.53125 C 270.820312 173.660156 278.542969 188.308594 281.0625 204.355469 C 282.382812 212.71875 281.824219 221.484375 279.542969 229.089844 C 277.101562 237.253906 272.859375 243.539062 267.257812 247.339844 C 259.894531 252.34375 251.253906 252.703125 242.96875 253.023438 C 235.207031 253.34375 227.203125 253.664062 219.960938 257.664062 C 217.960938 263.746094 213.640625 269.792969 207.878906 274.753906 C 201.636719 279.996094 194.074219 283.4375 186.03125 284.757812 C 182.910156 285.199219 179.75 285.398438 176.585938 285.398438 Z M 149.539062 283.597656 C 153.660156 283.597656 157.820312 283.917969 161.824219 284.277344 C 163.382812 284.398438 165.023438 284.558594 166.625 284.640625 C 173.1875 285.078125 179.589844 285.398438 185.992188 284.398438 C 193.992188 283.117188 201.476562 279.675781 207.679688 274.472656 C 213.441406 269.550781 217.722656 263.507812 219.722656 257.464844 L 219.882812 257.503906 L 219.800781 257.34375 C 227.085938 253.261719 235.167969 252.941406 242.96875 252.621094 C 251.613281 252.261719 259.816406 251.941406 267.097656 247.019531 C 272.621094 243.257812 276.820312 237.015625 279.261719 228.929688 C 281.503906 221.40625 282.0625 212.679688 280.742188 204.355469 C 278.261719 188.386719 270.539062 173.738281 261.457031 157.652344 C 257.054688 149.847656 252.613281 142.003906 248.171875 134.320312 C 245.769531 130.15625 243.089844 125.433594 239.207031 122.03125 C 231.527344 115.269531 220.882812 115.148438 210.597656 115.066406 C 209.957031 115.066406 209.359375 115.066406 208.71875 115.027344 C 187.152344 114.75 167.664062 134.117188 150.5 151.246094 L 149.578125 152.167969 C 144.738281 157.050781 140.175781 161.613281 135.132812 164.695312 C 127.492188 169.378906 118.847656 169.699219 111.164062 169.976562 C 100.203125 170.378906 90.71875 170.738281 87.238281 183.183594 C 84.996094 191.269531 84.238281 199.714844 84.875 208.917969 C 85.476562 217.324219 87.316406 225.648438 89.078125 233.691406 C 89.476562 235.574219 89.917969 237.414062 90.320312 239.292969 C 90.757812 241.257812 91.117188 243.296875 91.480469 245.296875 C 93.078125 253.902344 94.761719 262.828125 100.28125 269.472656 C 106.523438 276.957031 115.925781 282.15625 126.128906 283.757812 C 131.09375 284.519531 135.972656 284.238281 141.136719 283.957031 C 143.695312 283.796875 146.378906 283.640625 149.058594 283.640625 C 149.21875 283.597656 149.378906 283.597656 149.539062 283.597656 Z M 168.304688 284.917969 C 166.425781 284.917969 164.421875 284.878906 162.34375 284.800781 C 160.0625 284.71875 157.742188 284.597656 155.460938 284.4375 C 152.097656 284.238281 148.65625 284.039062 145.21875 284.039062 C 143.097656 284.039062 141.015625 284.078125 139.015625 284.117188 C 133.414062 284.238281 128.132812 284.359375 122.847656 283.277344 C 112.886719 281.238281 103.804688 275.835938 97.960938 268.351562 C 92.277344 261.105469 90.757812 251.621094 89.238281 242.417969 C 88.878906 240.296875 88.519531 238.054688 88.117188 235.894531 C 87.597656 233.171875 87.039062 230.410156 86.476562 227.730469 C 84.875 219.925781 83.195312 211.800781 82.554688 203.753906 C 81.714844 193.710938 82.394531 184.746094 84.554688 176.339844 C 88.039062 162.894531 98.160156 162.894531 109.886719 162.855469 C 118.007812 162.855469 127.25 162.8125 135.375 158.050781 C 140.976562 154.769531 146.257812 149.367188 150.9375 144.605469 C 152.378906 143.164062 153.78125 141.683594 155.21875 140.242188 C 171.90625 123.191406 189.152344 105.542969 209.039062 105.464844 L 210.359375 105.464844 C 221.164062 105.421875 233.40625 105.34375 241.847656 112.90625 C 246.011719 116.628906 248.851562 121.792969 251.332031 126.3125 C 255.933594 134.640625 260.574219 143.164062 265.175781 151.609375 C 272.941406 165.894531 282.582031 183.664062 285.0625 202.15625 C 286.304688 211.199219 285.464844 220.683594 282.785156 228.808594 C 279.863281 237.574219 275.019531 244.335938 268.699219 248.300781 C 260.335938 253.542969 250.652344 253.664062 241.289062 253.78125 C 232.605469 253.902344 223.601562 253.984375 215.519531 258.144531 C 212.800781 263.988281 208.316406 269.511719 202.597656 274.152344 C 196.433594 279.078125 189.03125 282.4375 181.308594 283.917969 C 177.109375 284.679688 172.90625 284.917969 168.304688 284.917969 Z M 144.335938 283.71875 C 144.617188 283.71875 144.9375 283.71875 145.21875 283.71875 C 148.65625 283.757812 152.140625 283.957031 155.5 284.117188 C 157.742188 284.238281 160.101562 284.398438 162.34375 284.480469 C 169.425781 284.71875 175.347656 284.640625 181.1875 283.558594 C 188.910156 282.117188 196.234375 278.757812 202.355469 273.875 C 208.078125 269.269531 212.519531 263.746094 215.242188 257.945312 L 215.320312 257.984375 L 215.28125 257.863281 C 223.445312 253.664062 232.527344 253.542969 241.289062 253.421875 C 250.613281 253.300781 260.253906 253.183594 268.539062 247.980469 C 274.78125 244.058594 279.621094 237.332031 282.503906 228.648438 C 285.183594 220.566406 285.984375 211.160156 284.785156 202.15625 C 282.304688 183.703125 272.660156 165.976562 264.9375 151.6875 C 260.335938 143.242188 255.695312 134.71875 251.09375 126.394531 C 248.492188 121.632812 245.769531 116.75 241.648438 113.066406 C 233.328125 105.625 221.121094 105.664062 210.359375 105.703125 L 209.039062 105.703125 C 189.273438 105.785156 172.066406 123.351562 155.421875 140.363281 C 153.980469 141.84375 152.539062 143.285156 151.140625 144.722656 C 146.457031 149.527344 141.136719 154.929688 135.492188 158.25 C 127.332031 163.054688 118.046875 163.054688 109.886719 163.09375 C 98.28125 163.09375 88.277344 163.132812 84.835938 176.339844 C 82.675781 184.707031 82.035156 193.671875 82.835938 203.675781 C 83.476562 211.71875 85.15625 219.804688 86.757812 227.648438 C 87.316406 230.332031 87.878906 233.132812 88.398438 235.8125 C 88.796875 237.972656 89.15625 240.214844 89.519531 242.335938 C 91 251.460938 92.558594 260.945312 98.160156 268.109375 C 103.964844 275.515625 112.964844 280.917969 122.847656 282.917969 C 128.132812 283.957031 133.371094 283.878906 138.976562 283.757812 C 140.734375 283.757812 142.535156 283.71875 144.335938 283.71875 Z M 156.980469 284.679688 C 154.019531 284.679688 150.9375 284.558594 147.976562 284.4375 C 145.816406 284.359375 143.578125 284.238281 141.335938 284.199219 C 140.054688 284.160156 138.816406 284.160156 137.535156 284.160156 C 131.253906 284.078125 125.332031 284.039062 119.488281 282.558594 C 109.84375 280.15625 101.203125 274.515625 95.761719 267.109375 C 90 259.304688 88.597656 249.261719 87.199219 239.535156 C 86.878906 237.214844 86.515625 234.8125 86.117188 232.492188 C 85.515625 228.929688 84.796875 225.289062 84.117188 221.726562 C 82.636719 214.160156 81.15625 206.316406 80.433594 198.554688 C 79.433594 187.789062 79.953125 178.300781 82.074219 169.539062 C 85.515625 155.289062 96.199219 155.609375 108.605469 155.96875 C 117.246094 156.25 127.089844 156.53125 135.734375 151.6875 C 141.457031 148.484375 146.699219 143.242188 151.578125 138.160156 C 154.101562 135.558594 156.699219 132.796875 159.183594 130.15625 C 174.707031 113.628906 190.753906 96.539062 209.398438 96.179688 L 210 96.179688 C 221.804688 95.9375 235.167969 95.65625 244.289062 103.980469 C 248.691406 107.945312 251.613281 113.507812 254.253906 118.429688 C 259.054688 127.476562 263.898438 136.640625 268.617188 145.644531 C 277.101562 161.8125 286.746094 180.144531 289.066406 199.953125 C 290.226562 209.679688 289.105469 219.84375 286.023438 228.527344 C 282.664062 237.933594 277.179688 245.097656 270.140625 249.261719 C 260.816406 254.742188 250.050781 254.664062 239.648438 254.542969 C 230.003906 254.464844 220.003906 254.34375 211 258.664062 C 207.359375 264.46875 202.757812 269.472656 197.273438 273.59375 C 191.074219 278.277344 184.070312 281.476562 176.46875 283.117188 C 170.824219 284.320312 165.222656 284.640625 158.019531 284.71875 C 157.703125 284.679688 157.339844 284.679688 156.980469 284.679688 Z M 103.003906 156.171875 C 93.238281 156.171875 85.277344 157.8125 82.4375 169.617188 C 80.355469 178.300781 79.792969 187.789062 80.796875 198.511719 C 81.515625 206.277344 82.996094 214.082031 84.476562 221.644531 C 85.15625 225.167969 85.878906 228.847656 86.476562 232.410156 C 86.878906 234.730469 87.199219 237.132812 87.558594 239.453125 C 88.917969 249.140625 90.359375 259.144531 96.082031 266.871094 C 101.480469 274.234375 110.085938 279.796875 119.648438 282.199219 C 125.449219 283.636719 131.371094 283.71875 137.613281 283.796875 C 138.855469 283.796875 140.136719 283.839844 141.414062 283.839844 C 143.617188 283.878906 145.855469 284 148.058594 284.078125 C 151.378906 284.238281 154.820312 284.359375 158.101562 284.320312 C 165.304688 284.238281 170.867188 283.957031 176.46875 282.757812 C 184.03125 281.117188 190.953125 277.914062 197.15625 273.273438 C 202.597656 269.191406 207.199219 264.1875 210.839844 258.425781 L 210.878906 258.386719 L 210.917969 258.386719 C 220.003906 254.023438 230.046875 254.101562 239.730469 254.222656 C 250.09375 254.34375 260.816406 254.421875 270.058594 248.980469 C 277.023438 244.859375 282.464844 237.734375 285.824219 228.410156 C 288.90625 219.765625 289.984375 209.679688 288.867188 199.992188 C 286.542969 180.261719 276.941406 161.933594 268.457031 145.804688 C 263.738281 136.800781 258.894531 127.675781 254.09375 118.589844 C 251.492188 113.707031 248.570312 108.183594 244.210938 104.222656 C 235.167969 96.019531 221.882812 96.257812 210.117188 96.5 L 209.519531 96.5 C 190.992188 96.859375 175.027344 113.90625 159.542969 130.355469 C 157.0625 132.996094 154.460938 135.757812 151.9375 138.359375 C 147.019531 143.445312 141.777344 148.6875 136.015625 151.929688 C 127.289062 156.808594 117.40625 156.53125 108.726562 156.25 C 106.683594 156.25 104.804688 156.171875 103.003906 156.171875 Z M 149.296875 284.679688 C 145.695312 284.679688 142.015625 284.558594 138.453125 284.398438 L 137.414062 284.359375 C 129.972656 284.078125 122.96875 283.839844 116.207031 281.796875 C 106.765625 278.957031 98.761719 273.273438 93.597656 265.789062 C 87.757812 257.304688 86.4375 246.660156 85.15625 236.332031 C 84.835938 233.933594 84.554688 231.410156 84.195312 229.007812 C 83.515625 224.605469 82.714844 220.125 81.914062 215.800781 C 80.554688 208.4375 79.15625 200.835938 78.433594 193.308594 C 77.234375 181.625 77.59375 171.9375 79.675781 162.734375 C 83.074219 147.6875 94.320312 148.324219 107.363281 149.085938 C 116.566406 149.605469 126.972656 150.246094 136.175781 145.285156 C 142.015625 142.164062 147.378906 136.921875 152.300781 131.71875 C 155.660156 128.195312 159.0625 124.394531 162.34375 120.710938 C 176.949219 104.382812 192.03125 87.535156 209.757812 86.894531 C 222.484375 86.453125 236.886719 85.933594 246.769531 95.015625 C 251.414062 99.300781 254.453125 105.261719 257.175781 110.464844 C 262.175781 120.152344 267.179688 129.957031 272.101562 139.601562 C 280.941406 156.929688 290.984375 176.582031 293.105469 197.671875 C 294.1875 208.117188 292.828125 218.964844 289.265625 228.167969 C 285.425781 238.214844 279.300781 245.820312 271.578125 250.140625 C 261.257812 255.902344 249.414062 255.582031 237.96875 255.261719 C 227.363281 254.984375 216.402344 254.664062 206.558594 259.105469 C 202.355469 264.386719 197.476562 269.070312 191.992188 272.953125 C 185.832031 277.316406 179.027344 280.4375 171.746094 282.277344 C 166.625 283.519531 161.101562 284.238281 153.820312 284.519531 C 152.300781 284.640625 150.820312 284.679688 149.296875 284.679688 Z M 99.320312 149.125 C 90 149.125 82.597656 151.207031 79.953125 162.8125 C 77.875 171.9375 77.472656 181.625 78.714844 193.269531 C 79.476562 200.792969 80.875 208.398438 82.195312 215.761719 C 82.996094 220.125 83.796875 224.605469 84.476562 228.96875 C 84.835938 231.371094 85.15625 233.890625 85.4375 236.292969 C 86.71875 246.578125 88.039062 257.222656 93.839844 265.628906 C 98.960938 273.03125 106.925781 278.675781 116.289062 281.515625 C 123.007812 283.558594 130.011719 283.796875 137.414062 284.039062 L 138.453125 284.078125 C 143.535156 284.277344 148.777344 284.4375 153.78125 284.277344 C 161.0625 283.957031 166.585938 283.277344 171.664062 282.039062 C 178.910156 280.238281 185.710938 277.113281 191.832031 272.792969 C 197.316406 268.910156 202.195312 264.269531 206.359375 258.984375 L 206.476562 259.105469 L 206.398438 258.945312 C 216.359375 254.421875 227.363281 254.742188 238.007812 255.0625 C 249.414062 255.382812 261.257812 255.703125 271.460938 249.980469 C 279.140625 245.660156 285.222656 238.132812 289.027344 228.167969 C 292.546875 218.964844 293.90625 208.199219 292.828125 197.792969 C 290.707031 176.78125 280.664062 157.171875 271.859375 139.839844 C 266.9375 130.195312 261.894531 120.390625 256.933594 110.707031 C 254.253906 105.503906 251.210938 99.578125 246.609375 95.335938 C 236.847656 86.332031 222.484375 86.851562 209.839844 87.292969 C 192.234375 87.933594 177.1875 104.742188 162.664062 120.992188 C 159.382812 124.671875 155.941406 128.476562 152.578125 131.996094 C 147.617188 137.199219 142.214844 142.484375 136.375 145.605469 C 127.089844 150.605469 116.648438 149.96875 107.402344 149.445312 C 104.5625 149.285156 101.882812 149.125 99.320312 149.125 Z M 141.09375 284.71875 C 138.613281 284.71875 136.09375 284.640625 133.613281 284.480469 C 127.25 284.160156 119.769531 283.480469 112.925781 281.039062 C 103.882812 277.796875 96.242188 271.914062 91.480469 264.46875 C 85.597656 255.34375 84.355469 244.097656 83.15625 233.171875 C 82.875 230.648438 82.597656 228.050781 82.234375 225.527344 C 81.515625 220.164062 80.515625 214.640625 79.59375 209.320312 C 78.355469 202.355469 77.113281 195.152344 76.3125 188.066406 C 74.914062 175.582031 75.234375 165.375 77.234375 155.929688 C 80.59375 140.082031 92.398438 141.082031 106.082031 142.203125 C 115.808594 143.003906 126.8125 143.921875 136.574219 138.921875 C 142.855469 135.679688 148.65625 129.957031 152.980469 125.3125 C 156.980469 121.03125 161.023438 116.269531 164.945312 111.667969 C 178.789062 95.378906 193.113281 78.527344 210.117188 77.648438 C 222.121094 77.046875 238.570312 76.207031 249.210938 86.132812 C 254.054688 90.65625 257.09375 96.738281 260.054688 102.621094 C 265.136719 112.828125 270.378906 123.273438 275.539062 133.679688 C 284.742188 152.167969 295.148438 173.140625 297.109375 195.472656 C 298.070312 206.597656 296.46875 218.125 292.507812 227.929688 C 288.226562 238.613281 281.464844 246.617188 273.019531 251.140625 C 261.734375 257.144531 248.8125 256.585938 236.289062 256.0625 C 224.722656 255.582031 212.800781 255.0625 202.035156 259.625 C 197.355469 264.386719 192.191406 268.671875 186.632812 272.351562 C 180.507812 276.394531 173.867188 279.4375 166.824219 281.4375 C 161.140625 282.957031 155.261719 283.957031 149.378906 284.359375 C 146.699219 284.640625 143.898438 284.71875 141.09375 284.71875 Z M 96.242188 142.003906 C 87.15625 142.003906 79.996094 144.402344 77.554688 156.050781 C 75.554688 165.457031 75.273438 175.621094 76.632812 188.105469 C 77.433594 195.191406 78.675781 202.394531 79.914062 209.359375 C 80.835938 214.683594 81.835938 220.203125 82.554688 225.566406 C 82.914062 228.089844 83.195312 230.691406 83.476562 233.210938 C 84.675781 244.058594 85.917969 255.304688 91.757812 264.347656 C 96.519531 271.710938 104.082031 277.554688 113.046875 280.757812 C 119.847656 283.199219 127.289062 283.839844 133.652344 284.199219 C 138.894531 284.519531 144.214844 284.519531 149.457031 284.160156 C 155.300781 283.757812 161.183594 282.757812 166.824219 281.238281 C 173.828125 279.277344 180.46875 276.234375 186.550781 272.191406 C 192.074219 268.511719 197.234375 264.226562 201.917969 259.464844 L 201.996094 259.546875 L 201.957031 259.425781 C 212.800781 254.785156 224.765625 255.304688 236.367188 255.785156 C 248.851562 256.34375 261.734375 256.863281 272.941406 250.902344 C 281.34375 246.417969 288.023438 238.414062 292.304688 227.847656 C 296.226562 218.125 297.867188 206.636719 296.867188 195.550781 C 294.90625 173.257812 284.503906 152.328125 275.300781 133.878906 C 270.140625 123.472656 264.898438 113.027344 259.816406 102.820312 C 256.894531 96.980469 253.855469 90.894531 249.050781 86.414062 C 238.527344 76.566406 222.164062 77.40625 210.199219 78.007812 C 193.3125 78.847656 179.027344 95.65625 165.222656 111.90625 C 161.300781 116.507812 157.261719 121.273438 153.257812 125.554688 C 148.898438 130.195312 143.097656 135.960938 136.734375 139.242188 C 126.890625 144.285156 115.847656 143.363281 106.082031 142.5625 C 102.644531 142.28125 99.320312 142.003906 96.242188 142.003906 Z M 135.695312 284.839844 C 133.691406 284.839844 131.734375 284.757812 129.773438 284.640625 C 121.96875 284.117188 115.367188 282.679688 109.644531 280.316406 C 100.882812 276.636719 93.839844 270.710938 89.359375 263.226562 C 83.476562 253.460938 82.316406 241.574219 81.195312 230.050781 C 80.957031 227.449219 80.675781 224.726562 80.355469 222.125 C 79.59375 215.761719 78.472656 209.238281 77.394531 202.957031 C 76.273438 196.390625 75.113281 189.589844 74.3125 182.90625 C 72.753906 169.617188 72.914062 158.933594 74.832031 149.207031 C 78.15625 132.558594 90.519531 133.878906 104.84375 135.398438 C 115.085938 136.480469 126.691406 137.71875 136.972656 132.636719 C 142.136719 130.078125 147.457031 125.753906 153.660156 118.949219 C 158.222656 114.027344 162.742188 108.382812 167.144531 102.941406 C 180.390625 86.53125 194.035156 69.5625 210.519531 68.484375 C 225.605469 67.484375 241.167969 67.363281 251.691406 77.289062 C 256.773438 82.089844 260.054688 88.855469 262.976562 94.816406 C 268.339844 105.824219 273.742188 116.910156 279.0625 127.796875 C 288.585938 147.40625 299.429688 169.65625 301.230469 193.351562 C 302.109375 205.195312 300.230469 217.402344 295.867188 227.730469 C 291.105469 239.015625 283.742188 247.5 274.582031 252.222656 C 262.335938 258.503906 248.292969 257.703125 234.726562 256.945312 C 222.203125 256.222656 209.277344 255.503906 197.632812 260.265625 C 192.511719 264.46875 187.070312 268.390625 181.46875 271.871094 C 175.425781 275.59375 168.984375 278.554688 162.222656 280.71875 C 156.699219 282.398438 151.019531 283.640625 145.257812 284.277344 C 142.054688 284.640625 138.894531 284.839844 135.695312 284.839844 Z M 93.320312 134.839844 C 90.597656 134.839844 88.039062 135.078125 85.757812 135.757812 C 79.996094 137.441406 76.632812 141.722656 75.113281 149.246094 C 73.191406 158.933594 72.992188 169.617188 74.59375 182.863281 C 75.394531 189.546875 76.554688 196.3125 77.675781 202.875 C 78.753906 209.160156 79.875 215.683594 80.636719 222.085938 C 80.957031 224.726562 81.234375 227.410156 81.476562 230.011719 C 82.597656 241.457031 83.757812 253.300781 89.597656 263.027344 C 94.078125 270.472656 101.042969 276.355469 109.765625 279.996094 C 115.445312 282.359375 122.007812 283.796875 129.8125 284.320312 C 134.933594 284.679688 140.09375 284.558594 145.175781 284 C 150.898438 283.320312 156.582031 282.117188 162.0625 280.4375 C 168.785156 278.277344 175.226562 275.3125 181.230469 271.632812 C 186.832031 268.109375 192.3125 264.226562 197.394531 259.984375 L 197.515625 260.105469 L 197.476562 259.984375 C 209.199219 255.183594 222.164062 255.945312 234.726562 256.625 C 248.25 257.382812 262.214844 258.183594 274.421875 251.941406 C 283.542969 247.257812 290.824219 238.855469 295.585938 227.609375 C 299.910156 217.324219 301.828125 205.15625 300.949219 193.390625 C 299.148438 169.777344 288.34375 147.566406 278.820312 127.957031 C 273.539062 117.070312 268.136719 105.984375 262.738281 94.976562 C 259.855469 89.054688 256.574219 82.332031 251.53125 77.527344 C 241.089844 67.683594 225.5625 67.804688 210.597656 68.804688 C 194.273438 69.882812 180.628906 86.8125 167.464844 103.140625 C 163.0625 108.585938 158.542969 114.226562 153.980469 119.148438 C 147.699219 125.953125 142.375 130.316406 137.175781 132.878906 C 126.8125 138 115.167969 136.761719 104.882812 135.679688 C 100.800781 135.238281 96.878906 134.839844 93.320312 134.839844 Z M 131.011719 285 C 123.890625 285 116.847656 283.757812 110.40625 281.316406 C 100.121094 277.394531 92.078125 270.671875 87.15625 261.90625 C 81.277344 251.421875 80.195312 238.855469 79.113281 226.769531 C 78.875 224.085938 78.632812 221.367188 78.355469 218.683594 C 77.554688 211.238281 76.273438 203.675781 75.074219 196.390625 C 72.113281 178.621094 69.03125 160.253906 72.390625 142.441406 C 75.714844 124.992188 88.636719 126.632812 103.601562 128.515625 C 114.367188 129.875 126.53125 131.398438 137.375 126.273438 C 148.816406 120.832031 159.101562 107.382812 169.023438 94.378906 C 181.75 77.6875 194.875 60.480469 210.878906 59.199219 C 225.925781 57.996094 242.890625 57.597656 254.171875 68.363281 C 259.535156 73.484375 262.9375 80.609375 265.898438 86.933594 L 282.503906 121.832031 C 292.386719 142.644531 303.589844 166.214844 305.230469 191.109375 C 306.03125 203.636719 303.871094 216.523438 299.109375 227.410156 C 293.867188 239.335938 285.90625 248.21875 276.019531 253.140625 C 262.777344 259.707031 247.652344 258.664062 233.046875 257.703125 C 219.601562 256.785156 205.675781 255.863281 193.152344 260.746094 C 176.867188 271.511719 161.703125 280.675781 140.9375 284.160156 C 137.65625 284.71875 134.332031 285 131.011719 285 Z M 90.636719 127.636719 C 88.117188 127.636719 85.757812 127.875 83.636719 128.433594 C 77.632812 130.117188 74.152344 134.558594 72.671875 142.402344 C 69.3125 160.171875 72.390625 178.503906 75.351562 196.273438 C 76.59375 203.597656 77.835938 211.160156 78.632812 218.605469 C 78.914062 221.285156 79.15625 224.046875 79.394531 226.6875 C 80.433594 238.773438 81.554688 251.261719 87.398438 261.707031 C 92.277344 270.429688 100.28125 277.074219 110.484375 280.957031 C 119.847656 284.519531 130.613281 285.519531 140.816406 283.796875 C 161.542969 280.316406 176.667969 271.152344 192.914062 260.425781 L 192.992188 260.585938 L 192.914062 260.425781 C 205.515625 255.503906 219.480469 256.425781 232.964844 257.34375 C 247.53125 258.34375 262.617188 259.34375 275.78125 252.820312 C 285.585938 247.941406 293.546875 239.136719 298.75 227.25 C 303.511719 216.402344 305.671875 203.554688 304.871094 191.070312 C 303.269531 166.253906 292.066406 142.683594 282.183594 121.910156 L 265.578125 87.011719 C 262.617188 80.730469 259.214844 73.644531 253.894531 68.5625 C 242.769531 57.917969 225.882812 58.316406 210.917969 59.519531 C 195.035156 60.800781 181.949219 77.929688 169.304688 94.539062 C 159.339844 107.585938 149.058594 121.070312 137.535156 126.554688 C 126.609375 131.71875 114.367188 130.195312 103.5625 128.835938 C 99 128.195312 94.601562 127.636719 90.636719 127.636719 Z M 90.636719 127.636719 " fill-opacity="1" fill-rule="nonzero"/><g fill="rgb(100%, 100%, 100%)" fill-opacity="1"><g transform="translate(163.670605, 238.764388)"><g><path d="M 4.359375 -4.75 C 4.921875 -5.875 5.503906 -7.140625 6.109375 -8.546875 C 6.710938 -9.953125 7.273438 -11.476562 7.796875 -13.125 L 9.546875 -17.421875 C 8.773438 -18.585938 7.988281 -19.851562 7.1875 -21.21875 C 6.382812 -22.582031 5.65625 -23.976562 5 -25.40625 C 4.351562 -26.832031 3.820312 -28.257812 3.40625 -29.6875 C 3 -31.125 2.796875 -32.515625 2.796875 -33.859375 C 2.796875 -33.941406 3.128906 -34.015625 3.796875 -34.078125 C 4.472656 -34.148438 5.316406 -34.207031 6.328125 -34.25 C 7.347656 -34.289062 8.453125 -34.320312 9.640625 -34.34375 C 10.835938 -34.363281 11.941406 -34.382812 12.953125 -34.40625 C 13.972656 -34.425781 14.816406 -34.445312 15.484375 -34.46875 C 16.160156 -34.5 16.5 -34.515625 16.5 -34.515625 C 17.5 -37.109375 18.472656 -39.570312 19.421875 -41.90625 C 20.378906 -44.25 21.332031 -46.613281 22.28125 -49 C 23.238281 -51.382812 24.191406 -53.820312 25.140625 -56.3125 C 26.097656 -58.800781 27.054688 -61.476562 28.015625 -64.34375 C 29.828125 -69.707031 31.597656 -74.425781 33.328125 -78.5 C 35.066406 -82.570312 36.695312 -86.363281 38.21875 -89.875 C 38.382812 -90.3125 38.671875 -90.710938 39.078125 -91.078125 C 39.492188 -91.441406 39.941406 -91.753906 40.421875 -92.015625 C 40.898438 -92.273438 41.363281 -92.492188 41.8125 -92.671875 C 42.269531 -92.847656 42.628906 -92.976562 42.890625 -93.0625 C 43.066406 -93.101562 43.726562 -93.296875 44.875 -93.640625 C 46.019531 -93.992188 47.328125 -94.363281 48.796875 -94.75 C 50.273438 -95.144531 51.738281 -95.492188 53.1875 -95.796875 C 54.644531 -96.097656 55.804688 -96.25 56.671875 -96.25 L 57.84375 -96.25 C 58.53125 -96.25 59.1875 -96.082031 59.8125 -95.75 C 60.445312 -95.425781 60.875 -94.789062 61.09375 -93.84375 C 63.164062 -88.507812 65.382812 -82.691406 67.75 -76.390625 C 70.113281 -70.085938 72.421875 -63.144531 74.671875 -55.5625 C 75.878906 -51.488281 77.066406 -47.628906 78.234375 -43.984375 C 79.410156 -40.347656 80.582031 -36.796875 81.75 -33.328125 C 82.925781 -29.867188 84.109375 -26.40625 85.296875 -22.9375 C 86.484375 -19.46875 87.707031 -15.894531 88.96875 -12.21875 C 89.351562 -10.65625 89.75 -9.421875 90.15625 -8.515625 C 90.570312 -7.609375 90.953125 -6.894531 91.296875 -6.375 C 91.648438 -5.851562 91.9375 -5.472656 92.15625 -5.234375 C 92.375 -4.992188 92.484375 -4.742188 92.484375 -4.484375 C 92.484375 -4.222656 92.066406 -3.960938 91.234375 -3.703125 L 77.265625 0.84375 C 76.222656 1.238281 75.160156 1.628906 74.078125 2.015625 C 72.992188 2.398438 71.972656 2.742188 71.015625 3.046875 C 70.066406 3.359375 69.234375 3.609375 68.515625 3.796875 C 67.804688 3.992188 67.300781 4.09375 67 4.09375 L 66.609375 4.09375 C 66.003906 4.09375 65.570312 3.90625 65.3125 3.53125 C 65.050781 3.164062 64.878906 2.8125 64.796875 2.46875 C 64.359375 1.039062 63.921875 -0.242188 63.484375 -1.390625 C 63.054688 -2.546875 62.632812 -3.695312 62.21875 -4.84375 C 61.8125 -5.988281 61.398438 -7.210938 60.984375 -8.515625 C 60.578125 -9.816406 60.175781 -11.351562 59.78125 -13.125 C 59.695312 -13.34375 59.457031 -13.523438 59.0625 -13.671875 C 58.675781 -13.828125 58.210938 -13.945312 57.671875 -14.03125 C 57.128906 -14.125 56.554688 -14.179688 55.953125 -14.203125 C 55.347656 -14.222656 54.785156 -14.234375 54.265625 -14.234375 C 52.617188 -14.234375 51.285156 -14.222656 50.265625 -14.203125 C 49.242188 -14.179688 48.34375 -14.160156 47.5625 -14.140625 C 46.789062 -14.117188 46.046875 -14.09375 45.328125 -14.0625 C 44.609375 -14.039062 43.734375 -14.03125 42.703125 -14.03125 C 41.441406 -14.03125 40.148438 -14.039062 38.828125 -14.0625 C 37.503906 -14.09375 36.300781 -14.128906 35.21875 -14.171875 L 31.515625 -14.296875 C 30.390625 -11.179688 29.265625 -8.257812 28.140625 -5.53125 C 27.015625 -2.800781 25.800781 0.015625 24.5 2.921875 C 24.414062 3.265625 24.207031 3.546875 23.875 3.765625 C 23.550781 3.984375 23.21875 4.09375 22.875 4.09375 C 22.613281 4.09375 22.460938 4.070312 22.421875 4.03125 C 18.210938 2.507812 14.675781 1.015625 11.8125 -0.453125 C 8.957031 -1.929688 6.472656 -3.363281 4.359375 -4.75 Z M 48.15625 -63.171875 C 47.113281 -59.316406 46.082031 -55.816406 45.0625 -52.671875 C 44.050781 -49.523438 43.117188 -46.738281 42.265625 -44.3125 C 41.421875 -41.894531 40.695312 -39.847656 40.09375 -38.171875 C 39.488281 -36.503906 39.054688 -35.21875 38.796875 -34.3125 L 38.796875 -33.734375 C 38.796875 -33.472656 38.773438 -33.296875 38.734375 -33.203125 L 54.328125 -33.203125 C 53.847656 -35.328125 53.335938 -37.472656 52.796875 -39.640625 C 52.253906 -41.804688 51.722656 -44.082031 51.203125 -46.46875 C 50.691406 -48.851562 50.175781 -51.410156 49.65625 -54.140625 C 49.132812 -56.867188 48.632812 -59.878906 48.15625 -63.171875 Z M 48.15625 -63.171875 "/></g></g></g><g fill="rgb(100%, 100%, 100%)" fill-opacity="1"><g transform="translate(98.474691, 239.899494)"><g><path d="M 5.75 1.4375 L 5.75 -15.796875 L 22.96875 -15.796875 L 22.96875 1.4375 Z M 5.75 1.4375 "/></g></g></g><g fill="rgb(100%, 100%, 100%)" fill-opacity="1"><g transform="translate(127.191689, 239.899494)"><g><path d="M 0 0 L 43.078125 -100.5 L 60.296875 -100.5 L 17.234375 0 Z M 0 0 "/></g></g></g></svg>