<svg xmlns="http://www.w3.org/2000/svg" xmlns:xlink="http://www.w3.org/1999/xlink" width="500" zoomAndPan="magnify" viewBox="0 0 375 374.999991" height="500" preserveAspectRatio="xMidYMid meet" version="1.0"><defs><g><g id="id1"/><g id="id2"/><g id="id3"/></g><clipPath id="id4"><path d="M 89 89 L 286.738281 89 L 286.738281 286 L 89 286 Z M 89 89 " clip-rule="nonzero"/></clipPath></defs><rect x="-37.5" width="450" fill="rgb(0%, 0%, 0%)" y="-37.499999" height="449.999989" fill-opacity="1"/><rect x="-37.5" width="450" fill="rgb(100%, 100%, 100%)" y="-37.499999" height="449.999989" fill-opacity="1"/><rect x="-37.5" width="450" fill="rgb(0%, 0%, 0%)" y="-37.499999" height="449.999989" fill-opacity="1"/><g clip-path="url(#id4)"><path fill="rgb(100%, 100%, 100%)" d="M 227.3125 285.40625 C 226.941406 285.40625 226.574219 285.40625 226.171875 285.371094 C 220.199219 285.105469 214.324219 283.023438 208.621094 281.011719 C 201.777344 278.5625 194.695312 276.046875 187.515625 276.851562 C 183.085938 277.324219 178.824219 279.066406 174.695312 280.742188 C 171.074219 282.21875 167.347656 283.730469 163.488281 284.433594 C 152.886719 286.3125 142.113281 281.953125 132.082031 276.953125 C 129.128906 275.476562 124.96875 273.027344 121.949219 269.707031 C 118.828125 266.253906 117.617188 262.628906 118.324219 258.941406 C 118.996094 255.519531 121.410156 252.703125 123.390625 250.421875 L 139.867188 231.300781 C 143.085938 227.542969 146.410156 223.6875 150.367188 220.5 C 157.113281 215 165.433594 211.746094 175.097656 210.773438 C 183.65625 209.898438 193.019531 210.972656 202.113281 213.824219 C 222.144531 220.097656 239.894531 233.480469 252.042969 251.5625 L 251.976562 251.628906 L 252.074219 251.59375 C 255.734375 259.375 254.59375 267.761719 248.855469 275.210938 C 243.886719 281.515625 235.734375 285.40625 227.3125 285.40625 Z M 190.265625 276.449219 C 196.574219 276.449219 202.75 278.628906 208.753906 280.777344 C 214.425781 282.789062 220.265625 284.871094 226.203125 285.136719 C 234.929688 285.507812 243.554688 281.617188 248.621094 274.972656 C 254.257812 267.628906 255.398438 259.34375 251.808594 251.660156 C 239.695312 233.648438 222.011719 220.296875 202.042969 214.058594 C 192.984375 211.207031 183.691406 210.167969 175.167969 211.039062 C 165.570312 212.011719 157.28125 215.265625 150.570312 220.699219 C 146.644531 223.886719 143.324219 227.746094 140.101562 231.46875 L 123.625 250.589844 C 121.578125 252.9375 119.296875 255.621094 118.625 258.972656 C 117.886719 262.699219 118.691406 269.941406 132.214844 276.683594 C 142.214844 281.683594 152.953125 286.011719 163.457031 284.132812 C 167.28125 283.460938 171.003906 281.917969 174.628906 280.476562 C 178.757812 278.796875 183.050781 277.054688 187.515625 276.550781 C 188.421875 276.484375 189.328125 276.449219 190.265625 276.449219 Z M 244.390625 274.671875 C 250.027344 267.59375 251.4375 259.542969 248.285156 251.996094 L 248.050781 252.097656 C 251.136719 259.542969 249.761719 267.496094 244.191406 274.503906 C 239.023438 280.980469 230.800781 284.703125 222.179688 284.46875 C 216.339844 284.300781 210.566406 282.386719 204.964844 280.542969 C 204.058594 280.242188 203.152344 279.9375 202.246094 279.671875 C 196.574219 277.824219 190.535156 276.113281 184.261719 276.71875 C 179.929688 277.15625 175.769531 278.730469 171.777344 280.242188 C 168.21875 281.582031 164.496094 282.992188 160.703125 283.5625 C 151.84375 284.902344 141.945312 282.320312 130.402344 275.644531 C 126.511719 273.332031 123.1875 270.3125 120.503906 266.65625 C 117.484375 262.5625 116.277344 258.640625 116.847656 254.648438 C 117.382812 250.957031 119.464844 247.835938 121.542969 244.953125 C 124.867188 240.359375 128.726562 236.9375 132.785156 233.347656 C 135.300781 231.132812 137.917969 228.820312 140.402344 226.203125 C 141.207031 225.332031 142.046875 224.457031 142.820312 223.585938 C 145.402344 220.769531 148.085938 217.851562 151.074219 215.367188 C 163.960938 204.667969 182.648438 201.378906 202.28125 206.378906 L 202.984375 206.546875 C 206.070312 207.316406 209.257812 208.121094 212.078125 209.632812 C 213.519531 210.402344 214.929688 211.273438 216.273438 212.214844 C 218.621094 213.792969 220.9375 215.5 223.183594 217.246094 C 228.050781 221.035156 231.941406 224.59375 235.097656 228.179688 C 238.21875 231.804688 240.867188 235.796875 242.984375 240.054688 C 245.0625 244.25 246.539062 247.335938 247.980469 252.132812 L 248.21875 252.0625 C 246.773438 247.269531 245.296875 244.148438 243.21875 239.957031 C 241.070312 235.660156 238.417969 231.636719 235.296875 228.011719 C 232.144531 224.425781 228.25 220.835938 223.351562 217.042969 C 221.105469 215.300781 218.753906 213.589844 216.40625 212.011719 C 215.0625 211.074219 213.65625 210.203125 212.210938 209.429688 C 209.328125 207.921875 206.136719 207.117188 203.050781 206.34375 L 202.347656 206.175781 C 182.617188 201.179688 163.859375 204.464844 150.90625 215.234375 C 147.917969 217.714844 145.203125 220.667969 142.617188 223.484375 C 141.8125 224.355469 141.007812 225.230469 140.203125 226.101562 C 137.71875 228.71875 135.132812 231.03125 132.617188 233.246094 C 128.523438 236.867188 124.664062 240.289062 121.34375 244.886719 C 119.230469 247.804688 117.148438 250.957031 116.613281 254.714844 C 116.007812 258.773438 117.214844 262.765625 120.304688 266.925781 C 122.988281 270.613281 126.34375 273.667969 130.269531 275.980469 C 141.847656 282.691406 151.8125 285.273438 160.738281 283.929688 C 164.5625 283.359375 168.253906 281.953125 171.84375 280.609375 C 175.835938 279.101562 179.964844 277.558594 184.261719 277.121094 C 190.5 276.484375 196.507812 278.226562 202.144531 280.039062 C 203.050781 280.339844 203.957031 280.644531 204.863281 280.910156 C 210.46875 282.757812 216.273438 284.667969 222.144531 284.835938 C 222.414062 284.835938 222.648438 284.835938 222.917969 284.835938 C 231.371094 284.734375 239.359375 281.011719 244.390625 274.671875 Z M 218.488281 284.066406 C 218.386719 284.066406 218.320312 284.066406 218.21875 284.066406 C 212.414062 283.996094 206.707031 282.253906 201.171875 280.578125 C 200.332031 280.308594 199.496094 280.074219 198.65625 279.804688 C 193.085938 278.128906 187.179688 276.550781 181.105469 277.121094 C 176.945312 277.492188 172.953125 278.867188 169.09375 280.207031 C 165.535156 281.449219 161.8125 282.722656 158.054688 283.191406 C 151.675781 283.996094 141.375 283.160156 128.558594 274.808594 C 125.101562 272.527344 121.878906 268.96875 118.757812 263.90625 C 115.707031 259.007812 114.464844 254.546875 114.902344 250.1875 C 115.304688 246.261719 116.949219 242.90625 119.328125 239.050781 C 122.617188 233.75 127.015625 230.730469 131.679688 227.542969 C 134.632812 225.496094 137.71875 223.382812 140.570312 220.601562 C 141.878906 219.324219 143.222656 217.917969 144.464844 216.609375 C 146.679688 214.261719 148.992188 211.84375 151.511719 209.699219 C 164.796875 198.429688 183.453125 194.269531 202.683594 198.261719 C 203.183594 198.359375 203.6875 198.460938 204.191406 198.5625 C 207.683594 199.265625 211.273438 199.972656 214.324219 201.816406 C 215.9375 202.824219 217.480469 203.996094 218.890625 205.269531 C 221.371094 207.417969 223.890625 209.632812 226.273438 211.914062 C 230.164062 215.570312 235.0625 220.5 238.6875 226.035156 C 241.675781 230.628906 243.886719 236.230469 244.457031 240.660156 C 244.894531 244.082031 244.792969 246.058594 244.660156 248.84375 C 244.59375 249.851562 244.558594 250.992188 244.527344 252.367188 L 244.558594 252.367188 C 247.175781 259.613281 245.53125 267.328125 239.960938 274.136719 C 234.863281 280.375 226.84375 284.066406 218.488281 284.066406 Z M 183.589844 276.71875 C 188.789062 276.71875 193.890625 278.09375 198.6875 279.535156 C 199.527344 279.769531 200.367188 280.039062 201.207031 280.308594 C 206.742188 281.984375 212.445312 283.730469 218.183594 283.796875 C 218.285156 283.796875 218.351562 283.796875 218.453125 283.796875 C 226.742188 283.796875 234.695312 280.140625 239.761719 274 C 245.265625 267.292969 246.875 259.644531 244.324219 252.5 L 244.457031 252.433594 L 244.292969 252.433594 C 244.324219 251.058594 244.390625 249.917969 244.425781 248.878906 C 244.558594 246.128906 244.660156 244.113281 244.222656 240.726562 C 243.652344 236.332031 241.472656 230.765625 238.484375 226.203125 C 234.894531 220.699219 229.996094 215.769531 226.105469 212.113281 C 223.6875 209.832031 221.203125 207.585938 218.722656 205.472656 C 217.3125 204.199219 215.800781 203.058594 214.191406 202.050781 C 211.171875 200.238281 207.582031 199.5 204.160156 198.832031 C 203.65625 198.730469 203.152344 198.628906 202.648438 198.527344 C 183.488281 194.535156 164.933594 198.664062 151.710938 209.898438 C 149.195312 212.046875 146.914062 214.460938 144.664062 216.777344 C 143.390625 218.117188 142.082031 219.492188 140.738281 220.769531 C 137.851562 223.585938 134.765625 225.699219 131.8125 227.710938 C 127.183594 230.898438 122.785156 233.882812 119.53125 239.148438 C 117.183594 242.972656 115.539062 246.328125 115.136719 250.1875 C 114.699219 254.480469 115.90625 258.90625 118.894531 263.703125 C 122.015625 268.734375 125.167969 272.257812 128.625 274.503906 C 141.375 282.855469 151.609375 283.664062 157.953125 282.855469 C 161.710938 282.386719 165.402344 281.113281 168.957031 279.871094 C 172.851562 278.53125 176.84375 277.15625 181.039062 276.753906 C 181.910156 276.753906 182.75 276.71875 183.589844 276.71875 Z M 213.992188 283.359375 C 208.285156 283.359375 202.582031 281.785156 197.113281 280.242188 C 196.40625 280.039062 195.734375 279.839844 195.03125 279.671875 C 189.292969 278.09375 183.65625 276.71875 177.851562 277.1875 C 173.859375 277.523438 170.03125 278.730469 166.308594 279.871094 C 162.75 280.980469 159.058594 282.152344 155.269531 282.523438 C 146.140625 283.394531 135.738281 280.171875 126.710938 273.667969 C 122.316406 270.480469 119.429688 265.449219 117.082031 260.953125 C 114.09375 255.351562 112.886719 250.519531 113.1875 245.824219 C 113.523438 240.929688 115.472656 236.769531 117.316406 233.378906 C 120.570312 227.410156 125.46875 224.761719 130.707031 221.976562 C 134.128906 220.128906 137.683594 218.253906 140.941406 215.265625 C 142.652344 213.691406 144.296875 212.046875 146.007812 210.269531 C 147.953125 208.289062 149.964844 206.210938 152.113281 204.332031 C 165.90625 192.355469 184.460938 187.324219 203.019531 190.511719 C 203.65625 190.613281 204.292969 190.714844 204.929688 190.8125 C 208.921875 191.449219 213.015625 192.121094 216.441406 194.371094 C 218.253906 195.578125 219.761719 197.019531 221.40625 198.695312 C 224.058594 201.378906 226.707031 204.164062 229.257812 206.980469 C 233.789062 211.914062 238.855469 217.851562 242.144531 224.257812 C 245.195312 230.195312 246.605469 237.003906 245.769531 241.597656 C 245.230469 244.449219 244.292969 246.027344 243.285156 247.738281 C 242.445312 249.144531 241.605469 250.589844 240.835938 252.902344 C 242.914062 259.847656 241.035156 267.226562 235.53125 273.699219 C 230.398438 279.703125 222.414062 283.328125 214.191406 283.394531 C 214.125 283.359375 214.058594 283.359375 213.992188 283.359375 Z M 180.234375 276.851562 C 185.234375 276.851562 190.132812 278.058594 195.066406 279.4375 C 195.769531 279.636719 196.441406 279.804688 197.144531 280.007812 C 202.613281 281.550781 208.285156 283.125 213.957031 283.125 C 214.023438 283.125 214.089844 283.125 214.160156 283.125 C 222.3125 283.058594 230.199219 279.46875 235.296875 273.53125 C 240.734375 267.125 242.578125 259.8125 240.53125 252.9375 L 240.53125 252.871094 C 241.304688 250.488281 242.175781 249.046875 243.015625 247.601562 C 243.988281 245.925781 244.929688 244.347656 245.464844 241.566406 C 246.304688 237.035156 244.894531 230.292969 241.875 224.390625 C 238.585938 218.015625 233.554688 212.113281 229.023438 207.183594 C 226.441406 204.367188 223.789062 201.582031 221.171875 198.929688 C 219.5625 197.289062 218.050781 195.8125 216.273438 194.636719 C 212.917969 192.421875 208.824219 191.753906 204.863281 191.117188 C 204.226562 191.015625 203.589844 190.914062 202.949219 190.8125 C 184.460938 187.628906 166.007812 192.625 152.25 204.566406 C 150.101562 206.445312 148.085938 208.523438 146.140625 210.503906 C 144.496094 212.179688 142.785156 213.925781 141.074219 215.5 C 137.785156 218.488281 134.230469 220.398438 130.773438 222.242188 C 125.605469 225.027344 120.707031 227.644531 117.484375 233.546875 C 115.640625 236.9375 113.726562 241.0625 113.390625 245.890625 C 113.089844 250.554688 114.332031 255.316406 117.25 260.886719 C 119.597656 265.347656 122.449219 270.34375 126.8125 273.5 C 135.773438 279.972656 146.105469 283.191406 155.167969 282.320312 C 158.925781 281.953125 162.582031 280.8125 166.140625 279.703125 C 169.863281 278.53125 173.722656 277.324219 177.75 276.988281 C 178.621094 276.886719 179.429688 276.851562 180.234375 276.851562 Z M 209.460938 282.722656 C 203.992188 282.722656 198.519531 281.347656 193.21875 280.007812 C 192.617188 279.839844 192.011719 279.703125 191.40625 279.570312 C 185.5 278.09375 180.167969 276.921875 174.597656 277.324219 C 170.769531 277.589844 167.078125 278.628906 163.488281 279.636719 C 159.933594 280.644531 156.242188 281.648438 152.484375 281.917969 C 143.222656 282.523438 133.15625 279.132812 124.898438 272.59375 C 120.402344 269.039062 117.921875 263.570312 115.539062 258.269531 L 115.4375 258.070312 C 113.425781 253.707031 111.175781 247.835938 111.445312 241.464844 C 111.613281 237.105469 112.785156 232.84375 115.269531 227.679688 C 118.457031 221.035156 123.894531 218.753906 129.664062 216.339844 C 133.558594 214.695312 137.585938 213.019531 141.273438 209.898438 C 143.355469 208.15625 145.269531 206.175781 147.316406 204.128906 C 149.027344 202.386719 150.804688 200.609375 152.683594 198.929688 C 167.113281 186.117188 185.570312 180.246094 203.320312 182.761719 C 204.023438 182.863281 204.761719 182.964844 205.46875 183.066406 C 209.996094 183.636719 214.730469 184.273438 218.488281 186.957031 C 220.632812 188.464844 222.3125 190.410156 223.820312 192.15625 C 226.605469 195.375 229.425781 198.695312 232.144531 202.050781 C 236.941406 207.921875 242.34375 214.832031 245.5 222.445312 C 248.519531 229.65625 249.089844 237.707031 246.941406 242.472656 C 245.601562 245.421875 243.855469 246.765625 241.976562 248.207031 C 240.332031 249.480469 238.585938 250.824219 237.078125 253.371094 C 238.621094 260.082031 236.507812 267.160156 231.070312 273.265625 C 225.96875 279 218.152344 282.554688 210.164062 282.757812 C 209.929688 282.722656 209.695312 282.722656 209.460938 282.722656 Z M 176.84375 276.988281 C 181.644531 276.988281 186.339844 278.058594 191.476562 279.300781 C 192.078125 279.4375 192.683594 279.605469 193.285156 279.769531 C 198.789062 281.148438 204.496094 282.589844 210.164062 282.453125 C 218.085938 282.253906 225.835938 278.730469 230.902344 273.027344 C 236.269531 266.957031 238.386719 259.980469 236.84375 253.339844 L 236.976562 253.304688 L 236.84375 253.238281 C 238.386719 250.621094 240.164062 249.246094 241.839844 247.9375 C 243.6875 246.53125 245.433594 245.1875 246.742188 242.304688 C 248.855469 237.605469 248.285156 229.65625 245.296875 222.511719 C 242.144531 214.929688 236.773438 208.023438 231.976562 202.183594 C 229.257812 198.832031 226.441406 195.511719 223.65625 192.289062 C 222.179688 190.578125 220.5 188.632812 218.386719 187.15625 C 214.660156 184.507812 209.996094 183.902344 205.46875 183.332031 C 204.730469 183.234375 204.023438 183.132812 203.320312 183.03125 C 185.667969 180.515625 167.28125 186.386719 152.886719 199.132812 C 151.007812 200.808594 149.226562 202.585938 147.515625 204.332031 C 145.46875 206.410156 143.523438 208.355469 141.441406 210.136719 C 137.71875 213.289062 133.691406 214.964844 129.765625 216.609375 C 124.0625 218.992188 118.660156 221.269531 115.503906 227.8125 C 113.054688 232.945312 111.878906 237.136719 111.710938 241.464844 C 111.476562 247.804688 113.691406 253.605469 115.671875 257.96875 L 115.773438 258.167969 C 118.15625 263.4375 120.605469 268.871094 125.066406 272.390625 C 133.289062 278.867188 143.289062 282.253906 152.484375 281.648438 C 156.207031 281.414062 159.898438 280.375 163.457031 279.367188 C 167.046875 278.363281 170.769531 277.324219 174.597656 277.054688 C 175.335938 276.988281 176.105469 276.988281 176.84375 276.988281 Z M 204.660156 282.050781 C 199.527344 282.050781 194.527344 280.945312 189.261719 279.769531 L 187.816406 279.4375 C 182.785156 278.328125 177.113281 277.054688 171.339844 277.421875 C 167.71875 277.65625 164.160156 278.53125 160.769531 279.335938 C 157.179688 280.207031 153.457031 281.113281 149.730469 281.246094 C 140.570312 281.550781 130.636719 277.894531 123.089844 271.484375 C 118.691406 267.730469 116.511719 262.09375 114.398438 256.660156 C 114.195312 256.15625 113.996094 255.652344 113.792969 255.148438 C 111.710938 249.917969 109.632812 243.679688 109.699219 237.070312 C 109.765625 232.207031 110.875 227.410156 113.1875 221.976562 C 116.34375 214.664062 122.28125 212.75 128.589844 210.703125 C 132.953125 209.296875 137.449219 207.820312 141.578125 204.566406 C 143.960938 202.65625 146.175781 200.441406 148.523438 198.125 C 150.035156 196.617188 151.609375 195.039062 153.253906 193.5625 C 168.65625 179.609375 186.542969 173.035156 203.621094 175.015625 C 204.394531 175.117188 205.164062 175.183594 205.9375 175.25 C 211.070312 175.785156 216.40625 176.324219 220.566406 179.476562 C 222.882812 181.21875 224.695312 183.5 226.273438 185.515625 C 229.226562 189.269531 232.175781 193.128906 235.0625 197.019531 C 240.230469 203.929688 245.96875 212.011719 248.886719 220.566406 C 251.808594 229.019531 251.503906 238.34375 248.148438 243.242188 C 246.035156 246.363281 243.417969 247.535156 240.667969 248.777344 C 238.183594 249.882812 235.632812 251.058594 233.320312 253.742188 C 234.324219 260.183594 231.976562 266.890625 226.640625 272.695312 C 221.507812 278.261719 214.058594 281.648438 206.171875 282.019531 C 205.667969 282.050781 205.164062 282.050781 204.660156 282.050781 Z M 173.386719 277.121094 C 178.453125 277.121094 183.421875 278.226562 187.851562 279.199219 L 189.292969 279.535156 C 195.066406 280.8125 200.5 282.050781 206.136719 281.785156 C 213.957031 281.414062 221.339844 278.058594 226.441406 272.558594 C 231.742188 266.824219 234.089844 260.148438 233.050781 253.773438 L 233.050781 253.707031 L 233.082031 253.675781 C 235.433594 250.890625 238.015625 249.714844 240.566406 248.574219 C 243.285156 247.335938 245.867188 246.195312 247.949219 243.109375 C 251.238281 238.277344 251.539062 229.019531 248.652344 220.667969 C 245.734375 212.148438 239.996094 204.097656 234.863281 197.1875 C 231.976562 193.328125 229.023438 189.4375 226.070312 185.714844 C 224.492188 183.703125 222.714844 181.421875 220.398438 179.710938 C 216.273438 176.625 211.003906 176.089844 205.902344 175.550781 C 205.132812 175.484375 204.359375 175.382812 203.589844 175.316406 C 186.574219 173.335938 168.757812 179.910156 153.421875 193.800781 C 151.8125 195.273438 150.234375 196.851562 148.726562 198.359375 C 146.375 200.710938 144.160156 202.921875 141.746094 204.835938 C 137.585938 208.121094 133.054688 209.597656 128.691406 211.007812 C 122.449219 213.019531 116.542969 214.929688 113.457031 222.144531 C 111.140625 227.542969 110.035156 232.308594 109.96875 237.136719 C 109.902344 243.679688 111.980469 249.917969 114.027344 255.148438 C 114.230469 255.652344 114.429688 256.15625 114.632812 256.660156 C 116.746094 262.058594 118.894531 267.660156 123.257812 271.386719 C 130.738281 277.757812 140.636719 281.414062 149.699219 281.078125 C 153.421875 280.945312 157.113281 280.039062 160.703125 279.167969 C 164.125 278.328125 167.683594 277.457031 171.339844 277.222656 C 172.011719 277.121094 172.71875 277.121094 173.386719 277.121094 Z M 199.828125 281.449219 C 194.996094 281.449219 190.234375 280.507812 185.234375 279.570312 L 183.957031 279.335938 C 178.789062 278.328125 173.457031 277.324219 168.054688 277.589844 C 164.628906 277.757812 161.273438 278.464844 158.054688 279.132812 C 154.429688 279.90625 150.671875 280.675781 146.878906 280.675781 C 137.753906 280.675781 128.15625 276.851562 121.210938 270.445312 C 116.8125 266.386719 114.832031 260.484375 112.921875 254.78125 C 112.652344 253.941406 112.382812 253.136719 112.082031 252.300781 C 110.101562 246.53125 107.953125 239.789062 107.921875 232.710938 C 107.886719 227.34375 108.929688 221.976562 111.109375 216.308594 C 114.230469 208.355469 120.671875 206.746094 127.519531 205.070312 C 132.347656 203.894531 137.347656 202.65625 141.878906 199.234375 C 144.597656 197.1875 147.113281 194.703125 149.765625 192.054688 C 151.074219 190.78125 152.414062 189.4375 153.792969 188.164062 C 174.5625 168.976562 192.480469 166.191406 203.890625 167.234375 C 204.660156 167.300781 205.433594 167.367188 206.238281 167.433594 C 212.011719 167.902344 217.984375 168.375 222.582031 171.996094 C 225.097656 173.941406 226.976562 176.589844 228.652344 178.90625 C 231.742188 183.199219 234.863281 187.59375 237.914062 192.019531 C 243.652344 200.339844 249.527344 209.261719 252.210938 218.722656 C 255.027344 228.515625 253.820312 238.949219 249.324219 244.082031 C 246.371094 247.402344 242.949219 248.40625 239.292969 249.449219 C 236.003906 250.386719 232.613281 251.359375 229.558594 254.210938 C 230.0625 260.382812 227.414062 266.789062 222.179688 272.257812 C 217.078125 277.558594 209.761719 280.878906 202.113281 281.382812 C 201.375 281.414062 200.601562 281.449219 199.828125 281.449219 Z M 169.964844 277.253906 C 174.730469 277.253906 179.460938 278.160156 184.023438 279.035156 L 185.300781 279.269531 C 191.070312 280.375 196.507812 281.449219 202.144531 281.078125 C 209.730469 280.578125 216.976562 277.289062 222.011719 272.023438 C 227.246094 266.589844 229.828125 260.25 229.324219 254.144531 L 229.460938 254.144531 L 229.359375 254.042969 C 232.445312 251.125 235.902344 250.117188 239.257812 249.179688 C 242.882812 248.140625 246.304688 247.167969 249.191406 243.878906 C 253.652344 238.816406 254.828125 228.484375 252.042969 218.789062 C 249.359375 209.363281 243.519531 200.472656 237.78125 192.1875 C 234.726562 187.761719 231.605469 183.367188 228.519531 179.074219 C 226.84375 176.757812 224.964844 174.144531 222.480469 172.195312 C 217.949219 168.640625 212.011719 168.171875 206.273438 167.703125 C 205.46875 167.636719 204.695312 167.566406 203.921875 167.5 C 192.582031 166.460938 174.730469 169.246094 154.027344 188.363281 C 152.652344 189.640625 151.308594 190.980469 150.035156 192.257812 C 147.382812 194.90625 144.867188 197.386719 142.113281 199.433594 C 137.515625 202.890625 132.515625 204.128906 127.652344 205.304688 C 120.605469 207.050781 114.496094 208.523438 111.445312 216.375 C 109.261719 222.007812 108.222656 227.34375 108.257812 232.675781 C 108.324219 239.6875 110.4375 246.394531 112.417969 252.164062 C 112.6875 252.96875 112.988281 253.808594 113.257812 254.648438 C 115.167969 260.316406 117.117188 266.21875 121.476562 270.210938 C 128.390625 276.585938 137.917969 280.375 146.980469 280.375 C 150.738281 280.375 154.296875 279.636719 158.085938 278.832031 C 161.339844 278.160156 164.664062 277.457031 168.121094 277.289062 C 168.691406 277.289062 169.328125 277.253906 169.964844 277.253906 Z M 194.898438 280.84375 C 190.402344 280.84375 185.9375 280.105469 181.273438 279.335938 L 179.863281 279.101562 C 175 278.296875 169.933594 277.457031 164.863281 277.65625 C 161.675781 277.792969 158.523438 278.328125 155.503906 278.832031 C 151.644531 279.503906 147.988281 280.105469 144.195312 279.972656 C 134.933594 279.535156 126.140625 275.746094 119.496094 269.304688 C 115 264.910156 113.222656 258.605469 111.476562 252.535156 C 111.175781 251.492188 110.875 250.421875 110.570312 249.378906 C 108.324219 242.035156 106.476562 235.359375 106.308594 228.316406 C 106.144531 222.242188 107.117188 216.308594 109.195312 210.605469 C 112.25 201.984375 118.894531 200.777344 126.578125 199.402344 C 131.878906 198.429688 137.347656 197.457031 142.347656 193.898438 C 145.335938 191.753906 148.085938 189.070312 150.972656 186.183594 C 152.113281 185.078125 153.289062 183.902344 154.460938 182.796875 C 172.046875 166.261719 188.789062 158.410156 204.292969 159.484375 C 205.03125 159.550781 205.804688 159.585938 206.574219 159.617188 C 213.050781 160.019531 219.726562 160.421875 224.761719 164.515625 C 227.480469 166.730469 229.460938 169.679688 231.238281 172.296875 C 234.492188 177.128906 237.78125 182.09375 240.96875 187.023438 C 247.3125 196.75 253.183594 206.378906 255.765625 216.84375 C 258.484375 227.945312 256.40625 239.484375 250.699219 244.886719 C 246.941406 248.441406 242.648438 249.246094 238.082031 250.117188 C 233.988281 250.890625 229.761719 251.695312 225.9375 254.679688 C 225.902344 260.550781 223.050781 266.621094 217.847656 271.753906 C 212.78125 276.785156 205.636719 280.039062 198.21875 280.675781 C 197.078125 280.777344 195.972656 280.84375 194.898438 280.84375 Z M 166.507812 277.390625 C 171.039062 277.390625 175.535156 278.128906 179.898438 278.867188 L 181.308594 279.101562 C 187.078125 280.039062 192.546875 280.945312 198.117188 280.441406 C 205.46875 279.804688 212.546875 276.550781 217.582031 271.585938 C 222.75 266.488281 225.566406 260.449219 225.566406 254.613281 L 225.703125 254.613281 L 225.632812 254.511719 C 229.492188 251.460938 233.789062 250.65625 237.914062 249.882812 C 242.445312 249.046875 246.707031 248.207031 250.398438 244.71875 C 256.035156 239.386719 258.082031 227.980469 255.398438 216.945312 C 252.847656 206.511719 246.976562 196.917969 240.632812 187.222656 C 237.445312 182.292969 234.15625 177.363281 230.902344 172.5 C 229.15625 169.917969 227.179688 166.964844 224.492188 164.785156 C 219.492188 160.726562 212.882812 160.324219 206.441406 159.921875 C 205.667969 159.886719 204.929688 159.820312 204.160156 159.785156 C 188.757812 158.710938 172.046875 166.527344 154.53125 183.03125 C 153.320312 184.171875 152.179688 185.3125 151.039062 186.417969 C 148.121094 189.304688 145.371094 192.019531 142.382812 194.167969 C 137.347656 197.757812 131.847656 198.761719 126.511719 199.703125 C 118.925781 201.078125 112.351562 202.253906 109.332031 210.738281 C 107.25 216.40625 106.308594 222.34375 106.445312 228.347656 C 106.613281 235.359375 108.492188 242 110.707031 249.3125 C 111.007812 250.355469 111.34375 251.425781 111.613281 252.46875 C 113.324219 258.503906 115.101562 264.777344 119.566406 269.136719 C 126.175781 275.542969 134.898438 279.335938 144.09375 279.738281 C 147.886719 279.871094 151.511719 279.234375 155.367188 278.597656 C 158.390625 278.058594 161.542969 277.523438 164.765625 277.390625 C 165.402344 277.390625 165.9375 277.390625 166.507812 277.390625 Z M 189.730469 280.273438 C 185.570312 280.273438 181.375 279.703125 177.046875 279.132812 C 176.476562 279.066406 175.9375 278.964844 175.367188 278.898438 C 170.90625 278.296875 166.273438 277.65625 161.644531 277.792969 C 158.691406 277.894531 155.769531 278.261719 152.984375 278.628906 C 149.027344 279.167969 145.300781 279.671875 141.441406 279.367188 C 132.585938 278.730469 123.691406 274.539062 117.6875 268.230469 C 113.15625 263.46875 111.511719 256.792969 109.933594 250.386719 C 109.597656 249.113281 109.296875 247.769531 108.929688 246.460938 L 108.691406 245.625 C 106.8125 238.613281 104.867188 231.402344 104.53125 223.921875 C 104.230469 217.449219 105.101562 211.039062 107.117188 204.902344 C 110.136719 195.609375 117.25 194.738281 125.46875 193.699219 C 131.242188 192.960938 137.179688 192.222656 142.617188 188.53125 C 146.007812 186.25 149.058594 183.199219 152.316406 179.980469 C 153.1875 179.140625 154.058594 178.234375 154.964844 177.394531 C 163.757812 168.976562 171.242188 163.105469 178.523438 158.914062 C 187.683594 153.648438 196.171875 151.300781 204.527344 151.734375 C 205.230469 151.769531 205.96875 151.800781 206.707031 151.835938 C 213.855469 152.136719 221.238281 152.472656 226.742188 157.070312 C 229.628906 159.484375 231.742188 162.804688 233.585938 165.722656 C 236.976562 171.089844 240.433594 176.589844 243.789062 182.058594 C 250.734375 193.363281 256.671875 203.628906 259.054688 215.03125 C 261.640625 227.441406 258.6875 240.054688 251.839844 245.722656 C 247.277344 249.480469 241.875 250.152344 236.640625 250.789062 C 231.742188 251.394531 226.675781 251.996094 222.109375 255.117188 C 221.539062 260.753906 218.417969 266.488281 213.351562 271.285156 C 208.253906 276.113281 201.441406 279.234375 194.160156 280.039062 C 192.648438 280.207031 191.171875 280.273438 189.730469 280.273438 Z M 162.953125 277.523438 C 167.148438 277.523438 171.339844 278.09375 175.367188 278.628906 C 175.9375 278.699219 176.476562 278.796875 177.046875 278.867188 C 182.917969 279.636719 188.453125 280.375 194.09375 279.769531 C 201.304688 278.964844 208.050781 275.878906 213.117188 271.082031 C 218.183594 266.285156 221.273438 260.585938 221.808594 255.015625 L 221.941406 255.015625 L 221.875 254.914062 C 226.507812 251.730469 231.605469 251.125 236.574219 250.519531 C 242.007812 249.851562 247.144531 249.214844 251.640625 245.523438 C 258.417969 239.921875 261.335938 227.410156 258.789062 215.097656 C 256.40625 203.726562 250.5 193.496094 243.554688 182.226562 C 240.199219 176.757812 236.773438 171.257812 233.351562 165.890625 C 231.507812 162.972656 229.425781 159.683594 226.574219 157.304688 C 221.136719 152.742188 213.789062 152.441406 206.675781 152.105469 C 205.9375 152.070312 205.230469 152.039062 204.496094 152.003906 C 196.207031 151.601562 187.75 153.914062 178.65625 159.148438 C 171.375 163.339844 163.925781 169.179688 155.132812 177.597656 C 154.226562 178.46875 153.355469 179.34375 152.484375 180.179688 C 149.226562 183.433594 146.140625 186.488281 142.71875 188.769531 C 137.25 192.492188 130.972656 193.261719 125.4375 193.96875 C 117.316406 194.972656 110.269531 195.878906 107.285156 205.003906 C 105.269531 211.140625 104.398438 217.515625 104.699219 223.953125 C 105 231.367188 106.949219 238.613281 108.828125 245.589844 L 109.0625 246.429688 C 109.398438 247.738281 109.734375 249.046875 110.070312 250.355469 C 111.644531 256.761719 113.289062 263.367188 117.753906 268.097656 C 123.726562 274.371094 132.515625 278.496094 141.34375 279.167969 C 145.167969 279.4375 148.890625 278.933594 152.820312 278.429688 C 155.636719 278.0625 158.523438 277.65625 161.507812 277.589844 C 162.046875 277.523438 162.515625 277.523438 162.953125 277.523438 Z M 184.261719 279.738281 C 180.871094 279.738281 177.347656 279.4375 173.421875 279.035156 C 172.515625 278.933594 171.609375 278.832031 170.703125 278.730469 C 166.675781 278.296875 162.515625 277.859375 158.355469 277.925781 C 155.738281 277.960938 153.121094 278.226562 150.636719 278.464844 C 146.511719 278.867188 142.617188 279.234375 138.625 278.765625 C 129.933594 277.757812 121.410156 273.429688 115.839844 267.160156 C 111.242188 261.992188 109.734375 254.914062 108.257812 248.074219 C 107.953125 246.597656 107.617188 245.054688 107.25 243.578125 C 107.046875 242.671875 106.8125 241.765625 106.578125 240.828125 C 104.902344 233.949219 103.191406 226.804688 102.753906 219.5625 C 102.285156 212.683594 103.054688 205.808594 105.035156 199.199219 C 108.023438 189.238281 115.605469 188.667969 124.363281 187.960938 C 130.300781 187.492188 137.046875 186.957031 142.917969 183.164062 C 146.710938 180.75 150.167969 177.296875 153.824219 173.671875 C 154.394531 173.101562 154.964844 172.53125 155.535156 171.960938 C 169.730469 158.074219 186.40625 143.316406 204.828125 143.886719 C 205.46875 143.917969 206.105469 143.917969 206.777344 143.953125 C 214.660156 144.15625 222.816406 144.390625 228.820312 149.523438 C 231.910156 152.171875 234.089844 155.828125 236.035156 159.046875 C 239.59375 164.984375 243.183594 171.023438 246.707031 176.992188 C 253.988281 189.40625 260.195312 200.710938 262.445312 213.085938 C 264.929688 226.804688 261.035156 240.523438 253.050781 246.429688 C 247.679688 250.421875 241.371094 250.890625 235.265625 251.328125 C 229.558594 251.761719 223.65625 252.199219 218.351562 255.453125 C 217.246094 260.820312 213.890625 266.21875 208.890625 270.714844 C 203.589844 275.378906 197.113281 278.328125 190.132812 279.269531 C 188.152344 279.636719 186.207031 279.738281 184.261719 279.738281 Z M 159.328125 277.65625 C 163.1875 277.65625 167.011719 278.058594 170.703125 278.464844 C 171.609375 278.5625 172.515625 278.664062 173.421875 278.765625 C 179.597656 279.402344 184.761719 279.804688 190.066406 279.101562 C 196.976562 278.160156 203.421875 275.242188 208.65625 270.613281 C 213.621094 266.152344 216.941406 260.785156 218.050781 255.453125 L 218.183594 255.484375 L 218.117188 255.351562 C 223.488281 252.0625 229.425781 251.59375 235.164062 251.191406 C 241.507812 250.722656 247.511719 250.253906 252.8125 246.328125 C 260.734375 240.457031 264.558594 226.875 262.109375 213.222656 C 259.894531 200.875 253.6875 189.605469 246.40625 177.195312 C 242.882812 171.191406 239.292969 165.152344 235.734375 159.25 C 233.820312 156.0625 231.640625 152.441406 228.585938 149.789062 C 222.648438 144.691406 214.5625 144.488281 206.707031 144.253906 C 206.070312 144.222656 205.398438 144.222656 204.761719 144.1875 C 186.476562 143.617188 169.832031 158.34375 155.671875 172.164062 C 155.101562 172.734375 154.53125 173.304688 153.960938 173.839844 C 150.300781 177.496094 146.84375 180.953125 143.019531 183.367188 C 137.082031 187.191406 130.300781 187.726562 124.363281 188.199219 C 115.707031 188.867188 108.191406 189.472656 105.269531 199.234375 C 103.324219 205.808594 102.550781 212.652344 102.988281 219.492188 C 103.390625 226.738281 105.136719 233.851562 106.78125 240.726562 C 107.015625 241.632812 107.214844 242.539062 107.453125 243.476562 C 107.820312 244.953125 108.121094 246.496094 108.457031 247.972656 C 109.933594 254.78125 111.445312 261.824219 115.972656 266.925781 C 121.511719 273.128906 129.96875 277.457031 138.589844 278.429688 C 142.550781 278.867188 146.441406 278.496094 150.535156 278.128906 C 153.054688 277.894531 155.636719 277.625 158.289062 277.589844 C 158.691406 277.65625 158.992188 277.65625 159.328125 277.65625 Z M 178.1875 279.269531 C 175.402344 279.269531 172.617188 279.101562 169.796875 278.898438 C 168.457031 278.796875 167.078125 278.699219 165.769531 278.597656 C 162.28125 278.328125 158.691406 278.027344 155.101562 278.027344 C 152.851562 278.027344 150.636719 278.160156 148.488281 278.296875 C 144.128906 278.53125 140.035156 278.796875 135.839844 278.128906 C 127.25 276.785156 119.261719 272.390625 113.996094 266.085938 C 109.332031 260.484375 107.921875 252.96875 106.578125 245.722656 C 106.277344 244.082031 105.941406 242.371094 105.605469 240.691406 C 105.269531 239.148438 104.933594 237.574219 104.566406 235.996094 C 103.054688 229.253906 101.511719 222.242188 101.007812 215.199219 C 100.4375 207.417969 101.109375 200.339844 102.988281 193.53125 C 105.941406 182.898438 113.996094 182.628906 123.289062 182.261719 C 129.664062 182.023438 136.914062 181.757812 143.253906 177.867188 C 147.484375 175.316406 151.273438 171.460938 155.335938 167.398438 L 156.105469 166.628906 C 170.433594 152.339844 186.675781 136.203125 204.730469 136.203125 C 204.863281 136.203125 204.996094 136.203125 205.132812 136.203125 C 205.667969 136.203125 206.171875 136.203125 206.707031 136.238281 C 215.398438 136.339844 224.359375 136.441406 230.867188 142.140625 C 234.15625 145.027344 236.4375 148.984375 238.453125 152.507812 C 242.144531 158.949219 245.902344 165.554688 249.59375 172.097656 C 257.210938 185.613281 263.6875 197.890625 265.800781 211.34375 C 266.90625 218.351562 266.4375 225.699219 264.523438 232.074219 C 262.476562 238.914062 258.921875 244.179688 254.222656 247.367188 C 248.050781 251.5625 240.800781 251.863281 233.855469 252.132812 C 227.34375 252.398438 220.632812 252.667969 214.5625 256.023438 C 212.882812 261.121094 209.257812 266.1875 204.425781 270.34375 C 199.191406 274.738281 192.851562 277.625 186.105469 278.730469 C 183.488281 279.101562 180.835938 279.269531 178.1875 279.269531 Z M 155.503906 277.757812 C 158.960938 277.757812 162.449219 278.027344 165.804688 278.328125 C 167.113281 278.429688 168.488281 278.5625 169.832031 278.628906 C 175.335938 279 180.703125 279.269531 186.070312 278.429688 C 192.785156 277.355469 199.058594 274.472656 204.257812 270.109375 C 209.089844 265.984375 212.683594 260.917969 214.359375 255.855469 L 214.492188 255.886719 L 214.425781 255.753906 C 220.535156 252.332031 227.3125 252.0625 233.855469 251.796875 C 241.101562 251.492188 247.980469 251.226562 254.089844 247.101562 C 258.71875 243.945312 262.242188 238.714844 264.289062 231.9375 C 266.167969 225.632812 266.640625 218.320312 265.53125 211.34375 C 263.453125 197.957031 256.976562 185.679688 249.359375 172.195312 C 245.667969 165.65625 241.941406 159.082031 238.21875 152.640625 C 236.203125 149.152344 233.957031 145.195312 230.699219 142.34375 C 224.257812 136.675781 215.332031 136.574219 206.707031 136.507812 C 206.171875 136.507812 205.667969 136.507812 205.132812 136.472656 C 187.046875 136.238281 170.703125 152.472656 156.308594 166.832031 L 155.535156 167.601562 C 151.476562 171.695312 147.652344 175.519531 143.421875 178.101562 C 137.015625 182.023438 129.765625 182.292969 123.324219 182.527344 C 114.128906 182.863281 106.175781 183.164062 103.257812 193.597656 C 101.378906 200.375 100.738281 207.453125 101.277344 215.167969 C 101.78125 222.210938 103.324219 229.1875 104.800781 235.929688 C 105.136719 237.507812 105.503906 239.050781 105.839844 240.625 C 106.210938 242.269531 106.511719 243.980469 106.8125 245.65625 C 108.15625 252.871094 109.566406 260.347656 114.195312 265.917969 C 119.429688 272.191406 127.316406 276.550781 135.871094 277.894531 C 140.035156 278.53125 144.128906 278.296875 148.457031 278.0625 C 150.605469 277.925781 152.851562 277.792969 155.101562 277.792969 C 155.234375 277.757812 155.367188 277.757812 155.503906 277.757812 Z M 171.242188 278.867188 C 169.664062 278.867188 167.984375 278.832031 166.242188 278.765625 C 164.328125 278.699219 162.382812 278.597656 160.46875 278.464844 C 157.652344 278.296875 154.765625 278.128906 151.878906 278.128906 C 150.101562 278.128906 148.355469 278.160156 146.679688 278.195312 C 141.980469 278.296875 137.550781 278.394531 133.121094 277.492188 C 124.765625 275.78125 117.148438 271.25 112.25 264.980469 C 107.484375 258.90625 106.210938 250.957031 104.933594 243.242188 C 104.632812 241.464844 104.332031 239.585938 103.996094 237.773438 C 103.558594 235.492188 103.089844 233.179688 102.621094 230.933594 C 101.277344 224.390625 99.867188 217.582031 99.332031 210.839844 C 98.625 202.417969 99.195312 194.90625 101.007812 187.863281 C 103.929688 176.589844 112.417969 176.589844 122.25 176.558594 C 129.0625 176.558594 136.8125 176.523438 143.625 172.53125 C 148.320312 169.78125 152.75 165.253906 156.675781 161.261719 C 157.886719 160.054688 159.058594 158.8125 160.269531 157.605469 C 174.261719 143.316406 188.722656 128.523438 205.398438 128.457031 L 206.507812 128.457031 C 215.566406 128.421875 225.835938 128.355469 232.914062 134.695312 C 236.40625 137.816406 238.789062 142.140625 240.867188 145.933594 C 244.726562 152.910156 248.621094 160.054688 252.480469 167.132812 C 258.988281 179.105469 267.074219 194 269.15625 209.496094 C 270.195312 217.078125 269.492188 225.027344 267.242188 231.835938 C 264.792969 239.183594 260.734375 244.851562 255.429688 248.171875 C 248.417969 252.566406 240.296875 252.667969 232.445312 252.769531 C 225.164062 252.871094 217.613281 252.9375 210.835938 256.425781 C 208.554688 261.324219 204.796875 265.953125 199.996094 269.84375 C 194.832031 273.96875 188.621094 276.785156 182.144531 278.027344 C 178.621094 278.664062 175.097656 278.867188 171.242188 278.867188 Z M 151.140625 277.859375 C 151.375 277.859375 151.644531 277.859375 151.878906 277.859375 C 154.765625 277.894531 157.683594 278.058594 160.503906 278.195312 C 162.382812 278.296875 164.363281 278.429688 166.242188 278.496094 C 172.179688 278.699219 177.144531 278.628906 182.046875 277.726562 C 188.523438 276.515625 194.664062 273.699219 199.796875 269.609375 C 204.59375 265.75 208.320312 261.121094 210.601562 256.257812 L 210.667969 256.289062 L 210.636719 256.191406 C 217.480469 252.667969 225.097656 252.566406 232.445312 252.46875 C 240.265625 252.367188 248.351562 252.265625 255.296875 247.90625 C 260.53125 244.617188 264.59375 238.980469 267.007812 231.703125 C 269.257812 224.925781 269.925781 217.042969 268.921875 209.496094 C 266.839844 194.035156 258.753906 179.175781 252.277344 167.199219 C 248.417969 160.121094 244.527344 152.976562 240.667969 146 C 238.484375 142.007812 236.203125 137.914062 232.75 134.828125 C 225.769531 128.589844 215.535156 128.625 206.507812 128.65625 L 205.398438 128.65625 C 188.824219 128.726562 174.394531 143.449219 160.4375 157.707031 C 159.226562 158.949219 158.019531 160.15625 156.84375 161.363281 C 152.917969 165.386719 148.457031 169.917969 143.726562 172.699219 C 136.878906 176.726562 129.09375 176.726562 122.25 176.757812 C 112.519531 176.757812 104.128906 176.792969 101.242188 187.863281 C 99.429688 194.871094 98.894531 202.386719 99.566406 210.773438 C 100.101562 217.515625 101.511719 224.289062 102.855469 230.863281 C 103.324219 233.113281 103.792969 235.460938 104.230469 237.707031 C 104.566406 239.519531 104.867188 241.398438 105.167969 243.175781 C 106.410156 250.824219 107.71875 258.773438 112.417969 264.777344 C 117.28125 270.984375 124.832031 275.511719 133.121094 277.1875 C 137.550781 278.058594 141.945312 277.992188 146.644531 277.894531 C 148.121094 277.894531 149.628906 277.859375 151.140625 277.859375 Z M 161.746094 278.664062 C 159.261719 278.664062 156.675781 278.5625 154.195312 278.464844 C 152.382812 278.394531 150.503906 278.296875 148.625 278.261719 C 147.550781 278.226562 146.511719 278.226562 145.4375 278.226562 C 140.167969 278.160156 135.203125 278.128906 130.300781 276.886719 C 122.214844 274.875 114.96875 270.144531 110.402344 263.9375 C 105.570312 257.398438 104.398438 248.976562 103.222656 240.828125 C 102.953125 238.882812 102.652344 236.867188 102.316406 234.921875 C 101.8125 231.9375 101.210938 228.886719 100.640625 225.898438 C 99.398438 219.5625 98.15625 212.984375 97.550781 206.480469 C 96.714844 197.457031 97.148438 189.503906 98.929688 182.160156 C 101.8125 170.21875 110.773438 170.488281 121.175781 170.789062 C 128.421875 171.023438 136.679688 171.257812 143.925781 167.199219 C 148.726562 164.515625 153.121094 160.121094 157.214844 155.863281 C 159.328125 153.679688 161.507812 151.367188 163.589844 149.152344 C 176.609375 135.300781 190.066406 120.976562 205.703125 120.675781 L 206.207031 120.675781 C 216.105469 120.472656 227.3125 120.238281 234.960938 127.214844 C 238.652344 130.535156 241.101562 135.199219 243.316406 139.324219 C 247.34375 146.90625 251.40625 154.585938 255.363281 162.132812 C 262.476562 175.6875 270.566406 191.046875 272.511719 207.652344 C 273.484375 215.804688 272.546875 224.324219 269.960938 231.601562 C 267.140625 239.484375 262.546875 245.488281 256.640625 248.976562 C 248.820312 253.574219 239.792969 253.507812 231.070312 253.40625 C 222.984375 253.339844 214.59375 253.238281 207.042969 256.859375 C 203.992188 261.726562 200.132812 265.917969 195.535156 269.371094 C 190.332031 273.296875 184.460938 275.980469 178.085938 277.355469 C 173.355469 278.363281 168.65625 278.628906 162.617188 278.699219 C 162.347656 278.664062 162.046875 278.664062 161.746094 278.664062 Z M 116.476562 170.957031 C 108.289062 170.957031 101.613281 172.332031 99.230469 182.226562 C 97.484375 189.503906 97.015625 197.457031 97.855469 206.445312 C 98.457031 212.953125 99.699219 219.492188 100.941406 225.832031 C 101.511719 228.785156 102.117188 231.871094 102.621094 234.855469 C 102.953125 236.800781 103.222656 238.816406 103.523438 240.761719 C 104.667969 248.878906 105.875 257.261719 110.671875 263.738281 C 115.203125 269.910156 122.417969 274.570312 130.4375 276.585938 C 135.300781 277.792969 140.269531 277.859375 145.503906 277.925781 C 146.542969 277.925781 147.617188 277.960938 148.691406 277.960938 C 150.535156 277.992188 152.414062 278.09375 154.261719 278.160156 C 157.046875 278.296875 159.933594 278.394531 162.683594 278.363281 C 168.722656 278.296875 173.386719 278.058594 178.085938 277.054688 C 184.429688 275.679688 190.234375 272.996094 195.433594 269.105469 C 199.996094 265.683594 203.855469 261.488281 206.910156 256.660156 L 206.945312 256.625 L 206.976562 256.625 C 214.59375 252.96875 223.015625 253.035156 231.136719 253.136719 C 239.828125 253.238281 248.820312 253.304688 256.574219 248.742188 C 262.410156 245.289062 266.976562 239.316406 269.792969 231.503906 C 272.378906 224.257812 273.285156 215.804688 272.34375 207.6875 C 270.398438 191.148438 262.34375 175.785156 255.230469 162.269531 C 251.269531 154.722656 247.210938 147.074219 243.183594 139.457031 C 241.003906 135.367188 238.554688 130.738281 234.894531 127.417969 C 227.3125 120.539062 216.171875 120.742188 206.304688 120.941406 L 205.804688 120.941406 C 190.265625 121.246094 176.878906 135.535156 163.890625 149.320312 C 161.8125 151.535156 159.628906 153.847656 157.515625 156.027344 C 153.390625 160.289062 148.992188 164.683594 144.160156 167.398438 C 136.847656 171.492188 128.558594 171.257812 121.277344 171.023438 C 119.566406 171.023438 117.988281 170.957031 116.476562 170.957031 Z M 155.300781 278.664062 C 152.28125 278.664062 149.195312 278.5625 146.207031 278.429688 L 145.335938 278.394531 C 139.09375 278.160156 133.222656 277.960938 127.550781 276.25 C 119.632812 273.867188 112.921875 269.105469 108.59375 262.832031 C 103.691406 255.71875 102.585938 246.796875 101.511719 238.144531 C 101.242188 236.132812 101.007812 234.019531 100.707031 232.003906 C 100.136719 228.316406 99.464844 224.558594 98.792969 220.9375 C 97.652344 214.765625 96.480469 208.390625 95.875 202.085938 C 94.867188 192.289062 95.171875 184.171875 96.914062 176.457031 C 99.765625 163.84375 109.195312 164.382812 120.136719 165.019531 C 127.851562 165.453125 136.578125 165.992188 144.296875 161.832031 C 149.195312 159.214844 153.691406 154.820312 157.816406 150.460938 C 160.636719 147.507812 163.488281 144.324219 166.242188 141.238281 C 178.488281 127.550781 191.140625 113.429688 206.003906 112.890625 C 216.675781 112.523438 228.753906 112.085938 237.042969 119.703125 C 240.9375 123.289062 243.484375 128.289062 245.769531 132.648438 C 249.960938 140.765625 254.15625 148.984375 258.285156 157.070312 C 265.699219 171.59375 274.121094 188.0625 275.902344 205.742188 C 276.804688 214.496094 275.664062 223.585938 272.679688 231.300781 C 269.457031 239.71875 264.324219 246.09375 257.847656 249.714844 C 249.191406 254.546875 239.257812 254.277344 229.660156 254.011719 C 220.769531 253.773438 211.574219 253.507812 203.320312 257.230469 C 199.796875 261.65625 195.703125 265.582031 191.105469 268.835938 C 185.9375 272.492188 180.234375 275.109375 174.125 276.652344 C 169.832031 277.691406 165.199219 278.296875 159.09375 278.53125 C 157.816406 278.628906 156.578125 278.664062 155.300781 278.664062 Z M 113.390625 165.050781 C 105.570312 165.050781 99.363281 166.796875 97.148438 176.523438 C 95.40625 184.171875 95.070312 192.289062 96.109375 202.050781 C 96.746094 208.355469 97.921875 214.730469 99.027344 220.902344 C 99.699219 224.558594 100.371094 228.316406 100.941406 231.972656 C 101.242188 233.984375 101.511719 236.097656 101.746094 238.109375 C 102.820312 246.730469 103.929688 255.652344 108.792969 262.699219 C 113.089844 268.902344 119.765625 273.632812 127.617188 276.015625 C 133.253906 277.726562 139.128906 277.925781 145.335938 278.128906 L 146.207031 278.160156 C 150.46875 278.328125 154.867188 278.464844 159.058594 278.328125 C 165.167969 278.058594 169.796875 277.492188 174.058594 276.449219 C 180.132812 274.941406 185.835938 272.324219 190.972656 268.703125 C 195.570312 265.449219 199.664062 261.558594 203.152344 257.128906 L 203.253906 257.230469 L 203.183594 257.097656 C 211.539062 253.304688 220.769531 253.574219 229.695312 253.84375 C 239.257812 254.109375 249.191406 254.378906 257.746094 249.582031 C 264.191406 245.960938 269.289062 239.652344 272.476562 231.300781 C 275.429688 223.585938 276.570312 214.5625 275.664062 205.839844 C 273.886719 188.230469 265.464844 171.792969 258.082031 157.269531 C 253.957031 149.1875 249.726562 140.96875 245.566406 132.851562 C 243.316406 128.488281 240.769531 123.523438 236.910156 119.96875 C 228.722656 112.421875 216.675781 112.859375 206.070312 113.226562 C 191.308594 113.765625 178.691406 127.851562 166.507812 141.472656 C 163.757812 144.558594 160.871094 147.742188 158.054688 150.695312 C 153.890625 155.054688 149.363281 159.484375 144.464844 162.101562 C 136.679688 166.292969 127.921875 165.757812 120.167969 165.320312 C 117.785156 165.1875 115.539062 165.050781 113.390625 165.050781 Z M 148.421875 278.699219 C 146.34375 278.699219 144.226562 278.628906 142.148438 278.496094 C 136.8125 278.226562 130.539062 277.65625 124.800781 275.613281 C 117.214844 272.894531 110.808594 267.964844 106.8125 261.726562 C 101.882812 254.078125 100.839844 244.652344 99.835938 235.492188 C 99.597656 233.378906 99.363281 231.199219 99.0625 229.085938 C 98.457031 224.59375 97.621094 219.964844 96.847656 215.5 C 95.808594 209.664062 94.765625 203.628906 94.097656 197.691406 C 92.921875 187.222656 93.191406 178.671875 94.867188 170.753906 C 97.6875 157.472656 107.585938 158.308594 119.0625 159.25 C 127.214844 159.921875 136.445312 160.691406 144.632812 156.5 C 149.898438 153.78125 154.765625 148.984375 158.390625 145.09375 C 161.746094 141.503906 165.132812 137.511719 168.421875 133.65625 C 180.03125 120.003906 192.046875 105.882812 206.304688 105.144531 C 216.371094 104.640625 230.164062 103.9375 239.089844 112.253906 C 243.148438 116.046875 245.699219 121.144531 248.183594 126.074219 C 252.445312 134.628906 256.839844 143.382812 261.167969 152.105469 C 268.886719 167.601562 277.613281 185.179688 279.257812 203.894531 C 280.0625 213.222656 278.71875 222.882812 275.398438 231.097656 C 271.808594 240.054688 266.136719 246.765625 259.054688 250.554688 C 249.59375 255.585938 238.753906 255.117188 228.25 254.679688 C 218.554688 254.277344 208.554688 253.84375 199.527344 257.667969 C 195.601562 261.65625 191.273438 265.246094 186.609375 268.332031 C 181.476562 271.722656 175.90625 274.269531 170 275.949219 C 165.234375 277.222656 160.300781 278.058594 155.367188 278.394531 C 153.121094 278.628906 150.773438 278.699219 148.421875 278.699219 Z M 110.808594 159.082031 C 103.191406 159.082031 97.183594 161.09375 95.136719 170.855469 C 93.457031 178.738281 93.222656 187.257812 94.363281 197.722656 C 95.035156 203.660156 96.074219 209.699219 97.117188 215.535156 C 97.886719 219.996094 98.726562 224.625 99.332031 229.121094 C 99.632812 231.234375 99.867188 233.414062 100.101562 235.527344 C 101.109375 244.617188 102.148438 254.042969 107.046875 261.625 C 111.042969 267.796875 117.382812 272.695312 124.898438 275.378906 C 130.605469 277.421875 136.847656 277.960938 142.179688 278.261719 C 146.578125 278.53125 151.039062 278.53125 155.4375 278.226562 C 160.335938 277.894531 165.269531 277.054688 170 275.78125 C 175.871094 274.136719 181.441406 271.585938 186.542969 268.199219 C 191.171875 265.113281 195.5 261.523438 199.425781 257.53125 L 199.496094 257.597656 L 199.460938 257.5 C 208.554688 253.605469 218.585938 254.042969 228.320312 254.445312 C 238.789062 254.914062 249.59375 255.351562 258.988281 250.355469 C 266.035156 246.597656 271.640625 239.886719 275.230469 231.03125 C 278.519531 222.882812 279.894531 213.253906 279.054688 203.960938 C 277.410156 185.277344 268.6875 167.734375 260.96875 152.273438 C 256.640625 143.550781 252.242188 134.796875 247.980469 126.242188 C 245.53125 121.34375 242.984375 116.246094 238.957031 112.488281 C 230.128906 104.238281 216.40625 104.941406 206.375 105.445312 C 192.210938 106.148438 180.234375 120.238281 168.65625 133.855469 C 165.367188 137.714844 161.980469 141.707031 158.625 145.296875 C 154.964844 149.1875 150.101562 154.015625 144.765625 156.765625 C 136.511719 160.992188 127.25 160.222656 119.0625 159.550781 C 116.175781 159.316406 113.390625 159.082031 110.808594 159.082031 Z M 143.894531 278.796875 C 142.214844 278.796875 140.570312 278.730469 138.925781 278.628906 C 132.382812 278.195312 126.847656 276.988281 122.046875 275.007812 C 114.699219 271.921875 108.792969 266.957031 105.035156 260.683594 C 100.101562 252.5 99.128906 242.539062 98.191406 232.878906 C 97.988281 230.695312 97.753906 228.417969 97.484375 226.234375 C 96.847656 220.902344 95.90625 215.433594 95.003906 210.167969 C 94.0625 204.667969 93.089844 198.964844 92.417969 193.363281 C 91.109375 182.226562 91.242188 173.269531 92.855469 165.121094 C 95.640625 151.164062 106.007812 152.273438 118.019531 153.546875 C 126.613281 154.453125 136.34375 155.492188 144.964844 151.230469 C 149.296875 149.085938 153.757812 145.460938 158.960938 139.761719 C 162.785156 135.632812 166.578125 130.90625 170.265625 126.34375 C 181.375 112.589844 192.816406 98.367188 206.640625 97.460938 C 219.292969 96.625 232.34375 96.523438 241.171875 104.839844 C 245.433594 108.867188 248.183594 114.535156 250.632812 119.535156 C 255.128906 128.757812 259.660156 138.050781 264.121094 147.171875 C 272.109375 163.609375 281.203125 182.261719 282.710938 202.117188 C 283.449219 212.046875 281.875 222.277344 278.214844 230.933594 C 274.222656 240.390625 268.046875 247.503906 260.363281 251.460938 C 250.097656 256.726562 238.316406 256.054688 226.941406 255.417969 C 216.441406 254.816406 205.601562 254.210938 195.835938 258.203125 C 191.542969 261.726562 186.976562 265.011719 182.28125 267.929688 C 177.214844 271.050781 171.8125 273.53125 166.140625 275.34375 C 161.507812 276.753906 156.746094 277.792969 151.914062 278.328125 C 149.226562 278.628906 146.578125 278.796875 143.894531 278.796875 Z M 108.355469 153.078125 C 106.074219 153.078125 103.929688 153.277344 102.015625 153.847656 C 97.183594 155.257812 94.363281 158.847656 93.089844 165.152344 C 91.480469 173.269531 91.3125 182.226562 92.652344 193.328125 C 93.324219 198.929688 94.296875 204.601562 95.238281 210.101562 C 96.144531 215.367188 97.082031 220.835938 97.71875 226.203125 C 97.988281 228.417969 98.222656 230.664062 98.425781 232.84375 C 99.363281 242.4375 100.335938 252.367188 105.238281 260.515625 C 108.996094 266.757812 114.832031 271.6875 122.148438 274.738281 C 126.914062 276.71875 132.417969 277.925781 138.960938 278.363281 C 143.253906 278.664062 147.582031 278.5625 151.84375 278.09375 C 156.644531 277.523438 161.410156 276.515625 166.007812 275.109375 C 171.644531 273.296875 177.046875 270.816406 182.078125 267.730469 C 186.777344 264.777344 191.375 261.523438 195.636719 257.96875 L 195.734375 258.070312 L 195.703125 257.96875 C 205.535156 253.941406 216.40625 254.578125 226.941406 255.148438 C 238.285156 255.789062 249.996094 256.457031 260.230469 251.226562 C 267.878906 247.300781 273.988281 240.257812 277.980469 230.832031 C 281.605469 222.210938 283.214844 212.011719 282.476562 202.152344 C 280.96875 182.359375 271.90625 163.742188 263.921875 147.308594 C 259.492188 138.183594 254.960938 128.890625 250.433594 119.667969 C 248.015625 114.703125 245.265625 109.066406 241.035156 105.042969 C 232.277344 96.792969 219.257812 96.890625 206.707031 97.730469 C 193.019531 98.636719 181.574219 112.824219 170.535156 126.511719 C 166.84375 131.074219 163.054688 135.800781 159.226562 139.929688 C 153.960938 145.628906 149.496094 149.285156 145.132812 151.433594 C 136.445312 155.726562 126.679688 154.6875 118.054688 153.78125 C 114.632812 153.414062 111.34375 153.078125 108.355469 153.078125 Z M 139.964844 278.933594 C 133.992188 278.933594 128.089844 277.894531 122.6875 275.847656 C 114.0625 272.558594 107.316406 266.925781 103.191406 259.578125 C 98.257812 250.789062 97.351562 240.257812 96.445312 230.125 C 96.242188 227.878906 96.042969 225.597656 95.808594 223.351562 C 95.136719 217.113281 94.0625 210.773438 93.054688 204.667969 C 90.574219 189.773438 87.988281 174.378906 90.808594 159.449219 C 93.59375 144.824219 104.429688 146.199219 116.980469 147.777344 C 126.007812 148.917969 136.207031 150.191406 145.300781 145.898438 C 154.898438 141.335938 163.523438 130.066406 171.84375 119.164062 C 182.515625 105.175781 193.523438 90.753906 206.945312 89.679688 C 219.5625 88.671875 233.789062 88.339844 243.25 97.363281 C 247.746094 101.65625 250.601562 107.625 253.082031 112.925781 L 267.007812 142.175781 C 275.296875 159.617188 284.691406 179.375 286.066406 200.238281 C 286.738281 210.738281 284.925781 221.539062 280.933594 230.664062 C 276.539062 240.660156 269.859375 248.105469 261.574219 252.230469 C 250.464844 257.734375 237.78125 256.859375 225.535156 256.054688 C 214.257812 255.285156 202.582031 254.511719 192.078125 258.605469 C 178.421875 267.628906 165.703125 275.308594 148.289062 278.226562 C 145.535156 278.699219 142.75 278.933594 139.964844 278.933594 Z M 106.109375 147.039062 C 103.996094 147.039062 102.015625 147.242188 100.238281 147.710938 C 95.203125 149.117188 92.285156 152.84375 91.042969 159.417969 C 88.222656 174.308594 90.808594 189.671875 93.289062 204.566406 C 94.332031 210.703125 95.371094 217.042969 96.042969 223.285156 C 96.277344 225.53125 96.480469 227.847656 96.679688 230.058594 C 97.550781 240.191406 98.492188 250.65625 103.390625 259.410156 C 107.484375 266.722656 114.195312 272.292969 122.753906 275.542969 C 130.605469 278.53125 139.632812 279.367188 148.1875 277.925781 C 165.570312 275.007812 178.253906 267.328125 191.878906 258.335938 L 191.945312 258.472656 L 191.878906 258.335938 C 202.449219 254.210938 214.160156 254.984375 225.464844 255.753906 C 237.679688 256.59375 250.332031 257.429688 261.371094 251.964844 C 269.59375 247.871094 276.269531 240.492188 280.632812 230.527344 C 284.625 221.4375 286.4375 210.671875 285.765625 200.207031 C 284.421875 179.410156 275.027344 159.652344 266.738281 142.242188 L 252.8125 112.992188 C 250.332031 107.726562 247.480469 101.789062 243.015625 97.527344 C 233.6875 88.605469 219.527344 88.941406 206.976562 89.949219 C 193.65625 91.023438 182.683594 105.378906 172.078125 119.300781 C 163.722656 130.234375 155.101562 141.539062 145.4375 146.132812 C 136.277344 150.460938 126.007812 149.1875 116.949219 148.046875 C 113.121094 147.507812 109.429688 147.039062 106.109375 147.039062 Z M 106.109375 147.039062 " fill-opacity="1" fill-rule="nonzero"/></g><g fill="rgb(100%, 100%, 100%)" fill-opacity="1"><g transform="translate(176.842992, 228.878649)"><g><path d="M 3.65625 -3.984375 C 4.125 -4.929688 4.613281 -5.992188 5.125 -7.171875 C 5.632812 -8.359375 6.109375 -9.644531 6.546875 -11.03125 L 8.03125 -14.625 C 7.375 -15.613281 6.707031 -16.679688 6.03125 -17.828125 C 5.351562 -18.972656 4.742188 -20.144531 4.203125 -21.34375 C 3.660156 -22.539062 3.210938 -23.738281 2.859375 -24.9375 C 2.515625 -26.144531 2.34375 -27.3125 2.34375 -28.4375 C 2.34375 -28.507812 2.625 -28.570312 3.1875 -28.625 C 3.757812 -28.6875 4.472656 -28.734375 5.328125 -28.765625 C 6.179688 -28.804688 7.109375 -28.832031 8.109375 -28.84375 C 9.109375 -28.863281 10.035156 -28.882812 10.890625 -28.90625 C 11.742188 -28.925781 12.453125 -28.941406 13.015625 -28.953125 C 13.578125 -28.972656 13.859375 -28.984375 13.859375 -28.984375 C 14.703125 -31.171875 15.519531 -33.242188 16.3125 -35.203125 C 17.113281 -37.171875 17.914062 -39.15625 18.71875 -41.15625 C 19.519531 -43.15625 20.320312 -45.203125 21.125 -47.296875 C 21.925781 -49.390625 22.726562 -51.640625 23.53125 -54.046875 C 25.050781 -58.554688 26.539062 -62.519531 28 -65.9375 C 29.457031 -69.363281 30.820312 -72.550781 32.09375 -75.5 C 32.238281 -75.863281 32.484375 -76.195312 32.828125 -76.5 C 33.179688 -76.8125 33.554688 -77.078125 33.953125 -77.296875 C 34.347656 -77.515625 34.738281 -77.695312 35.125 -77.84375 C 35.507812 -77.988281 35.8125 -78.097656 36.03125 -78.171875 C 36.175781 -78.203125 36.726562 -78.363281 37.6875 -78.65625 C 38.65625 -78.945312 39.757812 -79.253906 41 -79.578125 C 42.238281 -79.910156 43.46875 -80.203125 44.6875 -80.453125 C 45.90625 -80.710938 46.875 -80.84375 47.59375 -80.84375 L 48.578125 -80.84375 C 49.160156 -80.84375 49.71875 -80.707031 50.25 -80.4375 C 50.78125 -80.164062 51.132812 -79.628906 51.3125 -78.828125 C 53.0625 -74.347656 54.925781 -69.457031 56.90625 -64.15625 C 58.894531 -58.863281 60.832031 -53.035156 62.71875 -46.671875 C 63.738281 -43.253906 64.738281 -40.015625 65.71875 -36.953125 C 66.707031 -33.898438 67.691406 -30.914062 68.671875 -28 C 69.648438 -25.09375 70.640625 -22.179688 71.640625 -19.265625 C 72.640625 -16.359375 73.671875 -13.359375 74.734375 -10.265625 C 75.054688 -8.953125 75.390625 -7.910156 75.734375 -7.140625 C 76.085938 -6.378906 76.410156 -5.78125 76.703125 -5.34375 C 76.992188 -4.90625 77.226562 -4.585938 77.40625 -4.390625 C 77.582031 -4.191406 77.671875 -3.984375 77.671875 -3.765625 C 77.671875 -3.546875 77.328125 -3.328125 76.640625 -3.109375 L 64.90625 0.703125 C 64.03125 1.035156 63.132812 1.363281 62.21875 1.6875 C 61.3125 2.019531 60.457031 2.3125 59.65625 2.5625 C 58.863281 2.820312 58.164062 3.03125 57.5625 3.1875 C 56.957031 3.351562 56.53125 3.4375 56.28125 3.4375 L 55.953125 3.4375 C 55.441406 3.4375 55.078125 3.28125 54.859375 2.96875 C 54.640625 2.664062 54.492188 2.367188 54.421875 2.078125 C 54.054688 0.867188 53.691406 -0.210938 53.328125 -1.171875 C 52.960938 -2.140625 52.609375 -3.101562 52.265625 -4.0625 C 51.921875 -5.03125 51.578125 -6.054688 51.234375 -7.140625 C 50.890625 -8.234375 50.550781 -9.53125 50.21875 -11.03125 C 50.144531 -11.207031 49.941406 -11.359375 49.609375 -11.484375 C 49.285156 -11.617188 48.894531 -11.722656 48.4375 -11.796875 C 47.988281 -11.867188 47.507812 -11.910156 47 -11.921875 C 46.488281 -11.941406 46.015625 -11.953125 45.578125 -11.953125 C 44.191406 -11.953125 43.070312 -11.941406 42.21875 -11.921875 C 41.363281 -11.910156 40.609375 -11.894531 39.953125 -11.875 C 39.296875 -11.851562 38.664062 -11.832031 38.0625 -11.8125 C 37.46875 -11.800781 36.734375 -11.796875 35.859375 -11.796875 C 34.804688 -11.796875 33.722656 -11.800781 32.609375 -11.8125 C 31.503906 -11.832031 30.5 -11.863281 29.59375 -11.90625 L 26.46875 -12.015625 C 25.53125 -9.390625 24.585938 -6.929688 23.640625 -4.640625 C 22.691406 -2.347656 21.671875 0.015625 20.578125 2.453125 C 20.503906 2.742188 20.332031 2.976562 20.0625 3.15625 C 19.789062 3.34375 19.507812 3.4375 19.21875 3.4375 C 19 3.4375 18.867188 3.421875 18.828125 3.390625 C 15.296875 2.109375 12.328125 0.851562 9.921875 -0.375 C 7.523438 -1.613281 5.4375 -2.816406 3.65625 -3.984375 Z M 40.453125 -53.0625 C 39.578125 -49.820312 38.710938 -46.878906 37.859375 -44.234375 C 37.003906 -41.597656 36.21875 -39.257812 35.5 -37.21875 C 34.789062 -35.1875 34.179688 -33.46875 33.671875 -32.0625 C 33.171875 -30.664062 32.8125 -29.585938 32.59375 -28.828125 L 32.59375 -28.328125 C 32.59375 -28.109375 32.570312 -27.960938 32.53125 -27.890625 L 45.640625 -27.890625 C 45.234375 -29.671875 44.800781 -31.472656 44.34375 -33.296875 C 43.894531 -35.117188 43.453125 -37.03125 43.015625 -39.03125 C 42.578125 -41.03125 42.140625 -43.175781 41.703125 -45.46875 C 41.265625 -47.757812 40.847656 -50.289062 40.453125 -53.0625 Z M 40.453125 -53.0625 "/></g></g></g><g fill="rgb(100%, 100%, 100%)" fill-opacity="1"><g transform="translate(156.200868, 248.808578)"><g><path d="M 1.234375 0.140625 C 0.867188 0.140625 0.457031 0.046875 0 -0.140625 L 0 -0.75 L 1.234375 -0.75 C 1.734375 -0.75 2.109375 -0.929688 2.359375 -1.296875 C 2.609375 -1.671875 2.734375 -2.332031 2.734375 -3.28125 L 2.734375 -9.546875 L 3.953125 -9.546875 L 3.953125 -3.28125 C 3.953125 -2.414062 3.859375 -1.734375 3.671875 -1.234375 C 3.484375 -0.742188 3.191406 -0.390625 2.796875 -0.171875 C 2.398438 0.0351562 1.878906 0.140625 1.234375 0.140625 Z M 1.234375 0.140625 "/></g></g></g><g fill="rgb(100%, 100%, 100%)" fill-opacity="1"><g transform="translate(160.975031, 248.808578)"><g><path d="M 3.140625 0.140625 C 2.285156 0.140625 1.648438 -0.128906 1.234375 -0.671875 C 0.816406 -1.210938 0.609375 -2.125 0.609375 -3.40625 C 0.609375 -4.6875 0.816406 -5.597656 1.234375 -6.140625 C 1.648438 -6.679688 2.285156 -6.953125 3.140625 -6.953125 C 3.992188 -6.953125 4.625 -6.679688 5.03125 -6.140625 C 5.445312 -5.597656 5.65625 -4.6875 5.65625 -3.40625 C 5.65625 -2.125 5.445312 -1.210938 5.03125 -0.671875 C 4.625 -0.128906 3.992188 0.140625 3.140625 0.140625 Z M 3.140625 -0.609375 C 3.515625 -0.609375 3.820312 -0.820312 4.0625 -1.25 C 4.3125 -1.675781 4.4375 -2.394531 4.4375 -3.40625 C 4.4375 -4.414062 4.3125 -5.132812 4.0625 -5.5625 C 3.820312 -5.988281 3.515625 -6.203125 3.140625 -6.203125 C 2.753906 -6.203125 2.441406 -5.988281 2.203125 -5.5625 C 1.960938 -5.132812 1.84375 -4.414062 1.84375 -3.40625 C 1.84375 -2.394531 1.960938 -1.675781 2.203125 -1.25 C 2.441406 -0.820312 2.753906 -0.609375 3.140625 -0.609375 Z M 3.140625 -0.609375 "/></g></g></g><g fill="rgb(100%, 100%, 100%)" fill-opacity="1"><g transform="translate(167.249642, 248.808578)"><g><path d="M 2.1875 0.140625 C 1.925781 0.140625 1.640625 0.109375 1.328125 0.046875 C 1.023438 -0.00390625 0.765625 -0.0664062 0.546875 -0.140625 L 0.546875 -0.6875 L 1.90625 -0.6875 C 2.53125 -0.6875 2.984375 -0.765625 3.265625 -0.921875 C 3.546875 -1.085938 3.6875 -1.367188 3.6875 -1.765625 C 3.6875 -2.097656 3.570312 -2.351562 3.34375 -2.53125 C 3.125 -2.707031 2.78125 -2.882812 2.3125 -3.0625 C 1.914062 -3.238281 1.597656 -3.394531 1.359375 -3.53125 C 1.117188 -3.675781 0.910156 -3.882812 0.734375 -4.15625 C 0.566406 -4.425781 0.484375 -4.769531 0.484375 -5.1875 C 0.484375 -5.84375 0.675781 -6.300781 1.0625 -6.5625 C 1.457031 -6.820312 2.082031 -6.953125 2.9375 -6.953125 C 3.1875 -6.953125 3.46875 -6.925781 3.78125 -6.875 C 4.09375 -6.820312 4.351562 -6.757812 4.5625 -6.6875 L 4.5625 -6.140625 L 3.203125 -6.140625 C 2.710938 -6.140625 2.335938 -6.0625 2.078125 -5.90625 C 1.828125 -5.757812 1.703125 -5.519531 1.703125 -5.1875 C 1.703125 -4.851562 1.8125 -4.597656 2.03125 -4.421875 C 2.257812 -4.242188 2.601562 -4.066406 3.0625 -3.890625 C 3.46875 -3.710938 3.789062 -3.550781 4.03125 -3.40625 C 4.269531 -3.269531 4.472656 -3.066406 4.640625 -2.796875 C 4.816406 -2.535156 4.90625 -2.191406 4.90625 -1.765625 C 4.90625 -1.265625 4.8125 -0.878906 4.625 -0.609375 C 4.4375 -0.335938 4.144531 -0.144531 3.75 -0.03125 C 3.363281 0.0820312 2.84375 0.140625 2.1875 0.140625 Z M 2.1875 0.140625 "/></g></g></g><g fill="rgb(100%, 100%, 100%)" fill-opacity="1"><g transform="translate(172.637626, 248.808578)"><g><path d="M 3 0.140625 C 2.300781 0.140625 1.773438 -0.00390625 1.421875 -0.296875 C 1.066406 -0.597656 0.890625 -1.132812 0.890625 -1.90625 L 0.890625 -6.828125 L 2.109375 -6.828125 L 2.109375 -1.90625 C 2.109375 -1.457031 2.222656 -1.140625 2.453125 -0.953125 C 2.679688 -0.773438 3 -0.6875 3.40625 -0.6875 C 3.570312 -0.6875 3.742188 -0.710938 3.921875 -0.765625 C 4.109375 -0.816406 4.253906 -0.878906 4.359375 -0.953125 L 4.359375 -6.828125 L 5.59375 -6.828125 L 5.59375 0 L 4.5625 0 L 4.5 -0.40625 L 4.4375 -0.40625 C 4.257812 -0.238281 4.039062 -0.101562 3.78125 0 C 3.53125 0.09375 3.269531 0.140625 3 0.140625 Z M 3 0.140625 "/></g></g></g><g fill="rgb(100%, 100%, 100%)" fill-opacity="1"><g transform="translate(179.116844, 248.808578)"><g><path d="M 3.484375 0.140625 C 2.773438 0.140625 2.210938 0.0351562 1.796875 -0.171875 C 1.390625 -0.390625 1.085938 -0.753906 0.890625 -1.265625 C 0.703125 -1.785156 0.609375 -2.5 0.609375 -3.40625 C 0.609375 -4.300781 0.695312 -5.003906 0.875 -5.515625 C 1.050781 -6.035156 1.3125 -6.40625 1.65625 -6.625 C 2.007812 -6.84375 2.457031 -6.953125 3 -6.953125 C 3.539062 -6.953125 3.984375 -6.84375 4.328125 -6.625 C 4.679688 -6.40625 4.945312 -6.035156 5.125 -5.515625 C 5.300781 -5.003906 5.390625 -4.300781 5.390625 -3.40625 L 5.390625 -3 L 1.84375 -3 C 1.84375 -2.40625 1.90625 -1.941406 2.03125 -1.609375 C 2.15625 -1.273438 2.359375 -1.035156 2.640625 -0.890625 C 2.921875 -0.753906 3.289062 -0.6875 3.75 -0.6875 L 5.109375 -0.6875 L 5.109375 -0.140625 C 4.890625 -0.0664062 4.625 -0.00390625 4.3125 0.046875 C 4.007812 0.109375 3.734375 0.140625 3.484375 0.140625 Z M 4.15625 -3.8125 C 4.15625 -4.675781 4.046875 -5.289062 3.828125 -5.65625 C 3.617188 -6.019531 3.34375 -6.203125 3 -6.203125 C 2.65625 -6.203125 2.375 -6.019531 2.15625 -5.65625 C 1.945312 -5.289062 1.84375 -4.675781 1.84375 -3.8125 Z M 4.15625 -3.8125 "/></g></g></g><g fill="rgb(100%, 100%, 100%)" fill-opacity="1"><g transform="translate(185.11865, 248.808578)"><g/></g></g><g fill="rgb(100%, 100%, 100%)" fill-opacity="1"><g transform="translate(188.528761, 248.808578)"><g><path d="M 0.265625 0 L 2.59375 -9.546875 L 4.359375 -9.546875 L 6.6875 0 L 5.453125 0 L 4.84375 -2.453125 L 2.109375 -2.453125 L 1.5 0 Z M 2.3125 -3.40625 L 4.640625 -3.40625 L 3.5 -8.1875 L 3.453125 -8.1875 Z M 2.3125 -3.40625 "/></g></g></g><g fill="rgb(100%, 100%, 100%)" fill-opacity="1"><g transform="translate(195.485392, 248.808578)"><g><path d="M 0.890625 -6.828125 L 1.921875 -6.828125 L 1.984375 -6.28125 L 2.0625 -6.28125 C 2.5 -6.644531 3.0625 -6.828125 3.75 -6.828125 L 4.4375 -6.828125 L 4.4375 -5.796875 L 3.0625 -5.796875 C 2.675781 -5.796875 2.359375 -5.707031 2.109375 -5.53125 L 2.109375 0 L 0.890625 0 Z M 0.890625 -6.828125 "/></g></g></g><g fill="rgb(100%, 100%, 100%)" fill-opacity="1"><g transform="translate(200.054948, 248.808578)"><g><path d="M 2.65625 0.140625 C 1.988281 0.140625 1.476562 -0.015625 1.125 -0.328125 C 0.78125 -0.648438 0.609375 -1.222656 0.609375 -2.046875 C 0.609375 -2.847656 0.78125 -3.398438 1.125 -3.703125 C 1.476562 -4.003906 1.988281 -4.15625 2.65625 -4.15625 C 3.019531 -4.15625 3.476562 -4.113281 4.03125 -4.03125 L 4.03125 -4.640625 C 4.03125 -5.222656 3.90625 -5.617188 3.65625 -5.828125 C 3.414062 -6.035156 3.039062 -6.140625 2.53125 -6.140625 L 1.15625 -6.140625 L 1.15625 -6.6875 C 1.375 -6.757812 1.640625 -6.820312 1.953125 -6.875 C 2.265625 -6.925781 2.546875 -6.953125 2.796875 -6.953125 C 3.378906 -6.953125 3.84375 -6.890625 4.1875 -6.765625 C 4.539062 -6.640625 4.804688 -6.410156 4.984375 -6.078125 C 5.160156 -5.742188 5.25 -5.265625 5.25 -4.640625 L 5.25 0 L 4.234375 0 L 4.15625 -0.40625 L 4.09375 -0.40625 C 3.914062 -0.238281 3.695312 -0.101562 3.4375 0 C 3.1875 0.09375 2.925781 0.140625 2.65625 0.140625 Z M 3.0625 -0.6875 C 3.226562 -0.6875 3.398438 -0.710938 3.578125 -0.765625 C 3.765625 -0.816406 3.914062 -0.878906 4.03125 -0.953125 L 4.03125 -3.34375 L 3.0625 -3.34375 C 2.6875 -3.34375 2.390625 -3.242188 2.171875 -3.046875 C 1.953125 -2.847656 1.84375 -2.515625 1.84375 -2.046875 C 1.84375 -1.535156 1.953125 -1.179688 2.171875 -0.984375 C 2.390625 -0.785156 2.6875 -0.6875 3.0625 -0.6875 Z M 3.0625 -0.6875 "/></g></g></g><g fill="rgb(100%, 100%, 100%)" fill-opacity="1"><g transform="translate(206.193162, 248.808578)"><g><path d="M 0.890625 -6.828125 L 1.90625 -6.828125 L 1.984375 -6.40625 L 2.046875 -6.40625 C 2.222656 -6.582031 2.4375 -6.71875 2.6875 -6.8125 C 2.9375 -6.90625 3.203125 -6.953125 3.484375 -6.953125 C 4.179688 -6.953125 4.707031 -6.800781 5.0625 -6.5 C 5.414062 -6.207031 5.59375 -5.675781 5.59375 -4.90625 L 5.59375 0 L 4.359375 0 L 4.359375 -4.90625 C 4.359375 -5.351562 4.242188 -5.671875 4.015625 -5.859375 C 3.796875 -6.046875 3.476562 -6.140625 3.0625 -6.140625 C 2.90625 -6.140625 2.734375 -6.109375 2.546875 -6.046875 C 2.367188 -5.992188 2.222656 -5.929688 2.109375 -5.859375 L 2.109375 0 L 0.890625 0 Z M 0.890625 -6.828125 "/></g></g></g><g fill="rgb(100%, 100%, 100%)" fill-opacity="1"><g transform="translate(212.67238, 248.808578)"><g><path d="M 2.65625 0.140625 C 1.988281 0.140625 1.476562 -0.015625 1.125 -0.328125 C 0.78125 -0.648438 0.609375 -1.222656 0.609375 -2.046875 C 0.609375 -2.847656 0.78125 -3.398438 1.125 -3.703125 C 1.476562 -4.003906 1.988281 -4.15625 2.65625 -4.15625 C 3.019531 -4.15625 3.476562 -4.113281 4.03125 -4.03125 L 4.03125 -4.640625 C 4.03125 -5.222656 3.90625 -5.617188 3.65625 -5.828125 C 3.414062 -6.035156 3.039062 -6.140625 2.53125 -6.140625 L 1.15625 -6.140625 L 1.15625 -6.6875 C 1.375 -6.757812 1.640625 -6.820312 1.953125 -6.875 C 2.265625 -6.925781 2.546875 -6.953125 2.796875 -6.953125 C 3.378906 -6.953125 3.84375 -6.890625 4.1875 -6.765625 C 4.539062 -6.640625 4.804688 -6.410156 4.984375 -6.078125 C 5.160156 -5.742188 5.25 -5.265625 5.25 -4.640625 L 5.25 0 L 4.234375 0 L 4.15625 -0.40625 L 4.09375 -0.40625 C 3.914062 -0.238281 3.695312 -0.101562 3.4375 0 C 3.1875 0.09375 2.925781 0.140625 2.65625 0.140625 Z M 3.0625 -0.6875 C 3.226562 -0.6875 3.398438 -0.710938 3.578125 -0.765625 C 3.765625 -0.816406 3.914062 -0.878906 4.03125 -0.953125 L 4.03125 -3.34375 L 3.0625 -3.34375 C 2.6875 -3.34375 2.390625 -3.242188 2.171875 -3.046875 C 1.953125 -2.847656 1.84375 -2.515625 1.84375 -2.046875 C 1.84375 -1.535156 1.953125 -1.179688 2.171875 -0.984375 C 2.390625 -0.785156 2.6875 -0.6875 3.0625 -0.6875 Z M 3.0625 -0.6875 "/></g></g></g><g fill="rgb(100%, 100%, 100%)" fill-opacity="1"><g transform="translate(126.551687, 230.149941)"><g><path d="M 4.828125 1.203125 L 4.828125 -13.265625 L 19.296875 -13.265625 L 19.296875 1.203125 Z M 4.828125 1.203125 "/></g></g></g><g fill="rgb(100%, 100%, 100%)" fill-opacity="1"><g transform="translate(150.673296, 230.149941)"><g><path d="M 0 0 L 36.1875 -84.421875 L 50.65625 -84.421875 L 14.46875 0 Z M 0 0 "/></g></g></g></svg>